<svg xmlns="http://www.w3.org/2000/svg" viewBox="0 0 831 990" width="831" height="990">
	<style>
		tspan { white-space:pre }
		.shp0 { fill: #000000 } 
	</style>
	<path id="a-" class="shp0" d="M175.5 10.84C162.3 16.8 148.12 23.63 144 26.02C139.87 28.4 131.1 32.85 124.5 35.91C117.9 38.96 107.77 43.58 102 46.17C96.22 48.76 84.75 55.67 76.5 61.53C68.25 67.38 59.47 73.52 57 75.16C54.52 76.8 47.86 81.15 42.18 84.82C36.5 88.49 27.05 94.2 21.18 97.5C12.15 102.58 0.12 145.54 1.14 149.25C2.16 152.96 6.37 159.37 10.5 163.5C14.62 167.62 18 173.02 18 175.5C18 177.97 20.57 185.06 23.71 191.25C26.85 197.44 31.57 207.56 34.21 213.75C36.84 219.94 39 227.7 39 231C39 234.3 40.54 240.04 42.43 243.75C44.32 247.46 47.04 259.95 48.48 271.5C49.91 283.05 51.2 309.37 51.35 330C51.49 350.62 52.82 370.54 54.3 374.25C55.79 377.96 57.09 411.71 57.2 449.25C57.31 486.79 56.63 555.97 55.69 603C54.76 650.02 52.68 697.95 51.09 709.5C49.49 721.05 46.79 741.3 45.08 754.5C43.38 767.7 41.03 798.07 39.87 822C38.71 845.92 37.91 871.57 38.08 879C38.26 886.42 40.31 901.95 42.64 913.5C44.97 925.05 48.48 938.21 50.44 942.75C52.4 947.29 53.97 952.01 53.92 953.25C53.88 954.49 57.29 958.87 61.5 963C65.71 967.12 69.12 971.51 69.08 972.75C69.03 973.99 72.04 978.4 75.75 982.55C80.54 987.92 84.24 989.53 88.5 988.11C91.8 987.02 99.22 981.67 105 976.23C110.77 970.79 126.97 956.1 141 943.59C155.02 931.08 172.57 917.66 180 913.77C187.42 909.87 200.92 901.8 210 895.83C219.07 889.85 227.85 885.03 229.5 885.12C231.15 885.2 234.52 883 237 880.23C239.47 877.47 248.25 872.25 256.5 868.65C269.95 862.77 271.72 860.88 273.67 850.3C275.59 839.88 274.73 837.09 266.33 826.5C261.1 819.9 255.69 809.1 254.31 802.5C252.92 795.9 249.81 786.11 247.39 780.75C244.02 773.26 243 757.44 243 712.5C243 678.52 244.93 637.97 247.6 615.75C250.14 594.71 252.94 572.77 253.83 567L255.45 556.5C277.19 560.62 343.91 548.58 351.75 548.73C363.18 548.95 368.82 547.07 380.21 539.25C388.02 533.89 464.81 474.79 469.14 470.25C473.46 465.71 478.35 459.3 480 456C481.65 452.7 483 446.62 483 442.5C483 438.37 480.3 432.3 477 429C473.3 425.3 468.99 423.73 465.75 424.89C462.86 425.93 454.42 427.18 447 427.67C439.57 428.16 421.35 429.47 406.5 430.58C391.65 431.69 370.72 434.59 360 437.03C349.27 439.46 323.62 442.58 303 443.95C279.68 445.49 264.37 445.35 262.5 443.57C260.59 441.75 259.89 411.03 260.58 359.1C261.17 314.22 261.86 269.4 262.1 259.5C262.35 249.6 261.71 234.75 260.7 226.5C259.68 218.25 260.07 208.8 261.56 205.5C263.05 202.2 273.95 193.42 285.78 186C297.61 178.57 312.06 171.02 317.89 169.2C323.73 167.39 334.57 162.09 342 157.44C349.42 152.78 361.57 147.18 369 144.99C379.75 141.82 419.54 136.5 459 136.67C496.51 136.83 500.78 137.44 516.75 144.92C526.24 149.37 535.56 156.04 537.47 159.75C539.37 163.46 545.35 171.9 550.76 178.5C556.16 185.1 564.25 198.6 568.74 208.5C573.22 218.4 577.19 229.87 577.55 234C577.91 238.12 579.07 246.9 580.12 253.5C581.17 260.1 582.86 311.4 583.88 367.5C584.9 423.6 586.2 503.25 586.78 544.5C587.35 585.75 588.05 623.55 588.31 628.5C588.58 633.45 587.9 659.77 586.8 687C585.7 714.22 575.62 803.7 574.41 823.5C572.52 854.38 606.9 938.21 613.5 946.22C620.1 954.22 632.25 965.33 640.5 970.9C648.75 976.47 660.9 981.75 667.5 982.62C677.08 983.89 683.13 982.32 697.5 974.82C708.71 968.98 723.98 956.7 738 942.28C750.37 929.54 799.87 883.73 804 881.97C808.12 880.22 815.07 873.77 819.43 867.64C823.79 861.51 827.66 854.47 828.03 852C828.41 849.52 828.55 845.14 828.36 842.25C828.16 839.3 824.38 835.9 819.75 834.49C814.79 832.98 793.29 807.94 787.53 801.75C781.77 795.56 777.01 789.15 776.96 787.5C776.91 785.85 773.96 778.42 770.41 771C766.86 763.57 760.28 740.59 758.23 738.27C755.58 735.26 754.57 720.91 754.75 688.77C754.89 663.87 755.07 637.42 755.14 630C755.22 622.57 755.52 613.12 755.8 609C756.09 604.87 756.82 593.4 757.42 583.5C758.02 573.6 759.55 543.9 760.83 517.5C762.11 491.1 762.89 460.05 762.58 448.5C762.26 436.95 763.42 420.07 765.14 411C766.87 401.92 768.97 379.65 769.8 361.5C770.64 343.35 771.53 323.1 771.78 316.5C772.03 309.9 771.18 285.6 769.88 262.5C768.58 239.4 766.97 214.42 766.3 207C765.62 199.57 763.77 186.75 762.19 178.5C760.61 170.25 757.78 155.4 755.91 145.5C754.04 135.6 748.57 119.4 743.77 109.5C738.96 99.6 734.96 90.15 734.89 88.5C734.82 86.85 729.85 80.1 723.85 73.5C717.84 66.9 706.76 56.69 699.22 50.81C691.67 44.93 680.77 39.04 675 37.73C669.22 36.42 659.77 32.93 654 29.98C648.22 27.02 634.39 21.77 623.25 18.3C612.11 14.84 515.77 7.37 510 8.88C504.22 10.38 492.07 13.59 483 16C473.92 18.41 462.45 21.81 457.5 23.54C452.55 25.27 439.39 29.46 428.25 32.85C417.11 36.23 397.54 44.46 384.75 51.14C371.96 57.81 352.05 69.3 340.5 76.66C328.95 84.03 311.59 97.13 301.93 105.78C292.27 114.43 282.82 122.89 280.93 124.6C279.04 126.3 273.11 130.69 267.75 134.35C262.39 138.01 257.66 141.02 257.25 141.05C256.84 141.07 255.39 135.33 254.03 128.3C252.66 121.26 250.49 109.42 249.2 102C247.91 94.57 246.06 86.47 245.09 84C244.12 81.52 240.63 70.05 237.34 58.5C232.67 42.13 217.22 5.71 211.12 3.07C207.2 1.38 202.99 0 201.75 0C200.51 0.01 188.7 4.88 175.5 10.84Z" />
</svg>