<svg xmlns="http://www.w3.org/2000/svg" viewBox="0 0 786 882" width="786" height="882">
	<style>
		tspan { white-space:pre }
		.shp0 { fill: #000000 } 
	</style>
	<path id="A" fill-rule="evenodd" class="shp0" d="M538.5 0.18C538.5 0 543.22 1.79 549 4.16C554.77 6.54 562.87 12 567 16.32C571.12 20.63 576.19 24.12 578.25 24.08C580.31 24.03 589.37 31.09 598.38 39.75C607.39 48.41 619.03 58.87 624.25 63C629.47 67.12 642.82 79.27 653.92 90C666.39 102.06 677.1 115.8 681.97 126C686.45 135.37 691.09 152.22 692.72 165C694.29 177.37 695.05 224.62 694.4 270C693.75 315.37 692.44 360.6 691.49 370.5C690.54 380.4 691.24 404.02 693.04 423C694.84 441.97 696.23 479.77 696.11 507C696 534.22 695.93 563.92 695.96 573C695.99 582.07 698.1 597.6 700.64 607.5C703.18 617.4 705.05 630.9 704.8 637.5C704.56 644.1 706.86 657.48 709.93 667.24C713.84 679.69 717.86 686.4 723.42 689.74C727.77 692.36 740.75 701.92 752.25 711C763.75 720.07 775.61 730.87 778.6 735C781.6 739.12 783.97 747.22 783.86 753C783.73 760.36 779.53 769.56 769.84 783.75C762.23 794.89 701.77 835.38 696 836.83C690.22 838.28 677.4 840.95 667.5 842.76C657.6 844.56 644.77 845.17 639 844.12C631.38 842.72 623.12 836.75 608.89 822.35C593.22 806.49 588.51 799.48 585.45 787.5C583.34 779.25 580.45 767.77 579.03 762C577.6 756.22 573.54 733.95 570.01 712.5C566.48 691.05 562.34 667.42 560.8 660C559.26 652.57 556.78 635.02 555.28 621C553.78 606.97 553.09 577.27 553.75 555C554.62 525.79 553.91 513.11 551.23 509.5C549.18 506.76 540.75 502.28 532.5 499.56C524.25 496.83 507.37 493.33 495 491.77C480.33 489.92 467.02 489.99 456.75 491.97C446.52 493.94 438.11 493.99 432.75 492.1C427.78 490.36 422.82 485.29 420.27 479.35C416.64 470.89 416.64 467.17 420.25 453C422.55 443.92 427.16 433.11 430.47 428.98C433.79 424.84 438 418.76 439.84 415.48C441.67 412.19 449.1 405.13 456.34 399.78C463.58 394.44 474.56 388.03 480.75 385.53C486.94 383.04 491.97 379.99 491.93 378.75C491.9 377.51 499.66 374.87 509.18 372.88C518.71 370.89 534.6 368.46 544.5 367.48C554.4 366.5 563.49 364.08 564.7 362.1C565.92 360.12 566.78 332.17 566.62 300C566.46 267.82 565.47 228.92 562.5 185.58L541.5 176.6C529.95 171.66 512.4 164.12 502.5 159.83C492.6 155.55 475.68 145.84 464.9 138.27C454.12 130.7 439.94 122.64 433.4 120.37C426.85 118.1 417.79 117.09 413.25 118.12C408.71 119.16 386.92 135.91 377.65 144.64C365.67 155.92 360.23 163.53 358.81 171C357.2 179.51 358.37 183.78 373.13 205.5L372.63 414C372.33 537.5 373.29 628 374.99 636C376.57 643.42 379.92 660.64 382.43 674.25C384.94 687.86 387 705.41 387 713.25C387 721.09 388.29 732.22 389.86 738C391.44 743.77 391.78 757.6 390.62 768.73C389.27 781.62 389.59 788.99 391.5 789.04C393.15 789.08 394.01 792.13 393.41 795.81C392.81 799.49 393.95 809.25 395.95 817.5C398.66 828.67 398.75 835.37 396.3 843.75C393.27 854.07 391.63 855.37 376.5 859.5C367.42 861.97 317.21 879.63 302.25 881.01C285.79 882.52 278.96 881.98 274.15 878.76C270.66 876.41 262.89 868.09 256.9 860.25C249.19 850.18 245.12 840.94 242.98 828.75C241.32 819.26 239.97 799.69 239.98 785.25C239.99 770.73 238.66 758.33 237 757.5C235.35 756.67 181.46 794.48 177.75 797.86C173.88 801.38 163.01 805.44 152.25 807.39C136.06 810.32 130.94 810.01 114.69 805.14C104.35 802.04 95.29 797.47 94.56 795C93.83 792.52 89.5 788.47 84.92 786C80.35 783.52 73.58 778.12 69.88 774C66.19 769.87 59.18 758.4 54.32 748.5C49.46 738.6 41.25 719.7 36.07 706.5C30.9 693.3 24.18 677.1 21.14 670.5C18.1 663.9 14.22 654.45 12.52 649.5C10.82 644.55 7.34 628.35 4.79 613.5C1.86 596.44 0.14 567.73 0.12 535.5C0.11 507.45 2.1 464.59 4.55 440.25C7 415.91 8.32 394.65 7.5 393C6.67 391.35 7.93 382.91 10.28 374.25C12.64 365.59 16.69 348.37 19.28 336C22.22 322.01 29.95 301.77 39.75 282.47C48.41 265.4 56.85 248.94 58.5 245.88C60.15 242.82 117.43 196.54 130.36 183.75C143.28 170.96 160 156.45 167.5 151.5C175.01 146.55 185.28 140.01 190.32 136.97C195.37 133.93 202.87 128.39 207 124.65C211.12 120.91 219.22 115.3 225 112.17C230.77 109.05 236.17 105.82 237 105C237.82 104.17 242.42 101.47 247.21 99C252.71 96.16 263.76 94.58 277.21 94.73C294.44 94.91 300.62 96.34 309.62 102.23C315.74 106.23 320.77 110.85 320.8 112.5C320.82 114.15 323.92 118.56 327.67 122.29C332.73 127.32 336.21 128.49 341.08 126.79C344.7 125.53 351.45 121.38 356.08 117.57C360.71 113.76 371.92 105.99 381 100.3C390.07 94.6 398.51 89.96 399.75 89.97C400.99 89.99 404.73 87.64 408.08 84.75C411.42 81.86 421.42 75.45 430.3 70.5C439.17 65.55 455.68 55.95 466.97 49.17C478.26 42.38 492.22 31.45 498 24.86C503.77 18.28 511.87 11.13 516 8.97C520.12 6.8 526.87 4.02 531 2.78C535.12 1.53 538.5 0.37 538.5 0.18ZM162.64 255.75C152.42 266.06 144.04 276.86 144.03 279.75C144.01 282.64 142.44 288.04 140.54 291.75C138.64 295.46 135.39 306.6 133.32 316.5C131.26 326.4 129.18 346.65 128.7 361.5C128.23 376.35 127.92 394.57 128.01 402C128.1 409.42 128.32 430.35 128.5 448.5C128.68 466.65 129.52 503.1 130.37 529.5C131.22 555.9 132.37 580.2 132.92 583.5C133.47 586.8 134.7 591.52 135.64 594C136.58 596.47 138.85 612.34 140.68 629.25C142.5 646.16 146.02 664.05 148.5 669C150.97 673.95 152.97 680.36 152.92 683.25C152.88 686.14 155.92 691.37 159.67 694.87C163.43 698.37 170.55 702.54 175.5 704.14C180.45 705.74 188.55 706 193.5 704.72C198.45 703.43 207.9 700.99 214.5 699.28L226.5 696.17C225.43 541.43 224.42 474.22 223.56 447C222.71 419.77 220.56 388.72 218.78 378C217.01 367.27 214.38 328.8 212.95 292.5C211.52 256.2 209.14 225.82 207.66 225C206.19 224.17 172.86 245.44 162.64 255.75Z" />
</svg>