<svg xmlns="http://www.w3.org/2000/svg" viewBox="0 0 858 855" width="858" height="855">
	<style>
		tspan { white-space:pre }
		.shp0 { fill: #000000 } 
	</style>
	<path id="B" fill-rule="evenodd" class="shp0" d="M487.5 0.18C490.8 0.13 495.08 1.08 497.02 2.3C498.96 3.51 501.9 7.87 503.56 12C505.83 17.62 505.41 21.75 501.92 28.5C498.26 35.58 496.96 51.92 495.85 105C495.07 142.12 494.39 174.52 494.34 177C494.3 179.47 495.85 191.62 497.8 204C499.76 216.37 501.95 227.51 502.68 228.75C503.4 229.99 511.42 231 520.5 231C529.57 231 732.03 201 744 201C755.55 201 768.04 202.52 771.75 204.37C775.46 206.23 781.57 210.62 785.33 214.12C789.88 218.38 792.17 224 792.21 231C792.24 236.78 749.64 317.21 745.51 321.75C740.29 327.48 733.2 330.89 722.25 332.93C713.59 334.54 688.27 335.42 666 334.89C643.72 334.35 620.1 335.15 613.5 336.67C606.9 338.18 598.12 339.92 594 340.54C589.87 341.15 573 343.62 556.5 346.03C540 348.44 523.12 349.74 519 348.92C514.77 348.08 509.87 349.2 507.78 351.47C505.18 354.28 504.27 365.5 505.5 421.5L537 422.19C554.32 422.58 593.47 421.43 624 419.65C654.52 417.87 686.25 416.47 694.5 416.54C702.75 416.61 716.92 418.86 726 421.54C735.07 424.23 751.95 429.27 763.5 432.75C783.17 438.67 786.35 440.94 813.75 468.54C829.84 484.74 842.99 499.69 842.97 501.75C842.96 503.81 845.88 510.9 849.46 517.5C854.28 526.36 856.05 534.99 856.24 550.5C856.42 564.92 854.86 574.79 851.26 582C848.37 587.77 841.98 597.9 837.06 604.5C832.13 611.1 826.4 619.87 824.32 624C822.24 628.12 818.14 634.2 815.21 637.5C812.28 640.8 795.07 663.6 786 673.5C776.92 683.4 764.44 695.21 758.25 699.75C752.06 704.29 733.8 722.82 730.5 725.99C727.2 729.17 717.75 738.03 709.5 745.69C701.25 753.35 642.64 789.01 639.75 789.01C636.86 789.02 536.83 833.5 529.5 840.59C522.9 846.96 515.81 852.14 513.75 852.09C511.69 852.04 508.31 848.6 506.25 844.45C504.19 840.29 499.12 835.57 495 833.96C490.87 832.35 481.42 824.93 474 817.47C466.57 810.02 424.19 764.77 420.71 759C417.23 753.22 411.58 746.47 408.16 744C404.74 741.52 402.01 738.15 402.1 736.5C402.19 734.85 400.01 731.47 397.26 729C394.5 726.52 389.6 718.42 386.38 711C383.15 703.57 379.02 694.8 377.2 691.5C375.21 687.9 373.53 662.73 372.99 628.5C372.5 597.15 371.45 555.3 370.67 535.5C369.88 515.7 369.1 496.8 368.94 493.5C368.78 490.2 369.4 464.21 370.32 435.75C371.25 407.29 373.01 382.5 374.25 380.66C375.49 378.83 374.47 376.15 372 374.71C369.52 373.27 361.42 372.08 354 372.06C346.57 372.04 329.7 373.64 316.5 375.62C296.49 378.61 290.32 378.49 279.38 374.86C270.22 371.81 264.87 367.79 261.65 361.5C258.89 356.13 257.32 346.45 257.75 337.5C258.14 329.25 259.93 319.8 261.72 316.5C263.51 313.2 269.15 305.84 274.24 300.15C279.33 294.46 288.9 284.68 295.5 278.41C302.1 272.15 314.92 263.08 324 258.27C333.07 253.46 346.57 248.67 354 247.62C365.6 245.97 367.74 244.56 369.17 237.6C370.09 233.15 370.77 205.74 370.67 176.71C370.53 134.34 361.96 109.15 363.41 96.37C365.04 81.94 366.78 78.32 375.41 71.38C380.96 66.91 462.9 9.86 469.5 6.45C476.1 3.05 484.2 0.23 487.5 0.18ZM530.25 521.95C525.71 521.98 521.32 523.35 520.5 525C519.67 526.65 518.42 543.86 517.71 563.25C517 582.64 517.68 605.92 519.22 615C520.76 624.07 526.11 640.27 531.1 651C536.09 661.72 540.14 672.86 540.09 675.75C540.04 678.64 547.52 687.41 556.72 695.25C565.92 703.09 578.4 713.93 584.47 719.35C590.54 724.76 632.02 750 634.5 750C636.97 750 645.41 745.99 653.25 741.09C661.09 736.18 668.51 732.13 669.75 732.09C670.99 732.04 677.06 727.42 683.25 721.82C689.44 716.23 698.55 708.08 703.5 703.72C708.45 699.36 713.17 695.9 714 696.02C714.82 696.14 719.14 691.12 723.6 684.87C728.05 678.62 733.06 668.1 734.74 661.5C736.41 654.9 739.65 642.75 741.94 634.5C745.51 621.64 745.49 617.14 741.82 603C739.47 593.92 735.3 583.12 732.56 579C729.82 574.87 725.93 568.8 723.92 565.5C721.9 562.2 718.93 556.8 717.31 553.5C715.68 550.2 710.56 544.41 705.93 540.63C701.29 536.84 693.45 530.51 688.5 526.55C683.55 522.59 672.07 517.92 663 516.17C653.92 514.42 626.92 513.31 603 513.69C577.59 514.1 555.13 515.96 549 518.15C543.22 520.22 534.79 521.93 530.25 521.95ZM68.61 240.07C71.3 240.1 76.87 242.77 81 246C85.12 249.23 90.23 251.9 92.35 251.93C94.47 251.97 99.2 255.63 102.85 260.06C106.51 264.49 120.64 277.31 134.25 288.56C147.86 299.8 171 323.02 171 325.5C171 327.97 167.29 336.94 162.75 345.42C158.21 353.9 153.15 363.07 151.5 365.81C149.85 368.55 109.81 409.24 102.75 411.32C93.2 414.14 89.91 413.77 81 408.86C75.22 405.68 66.12 400.47 60.77 397.29C55.42 394.11 51.03 390.49 51.02 389.25C51.01 388.01 47.16 382.61 42.47 377.25C37.78 371.89 29.34 365.59 23.72 363.26C18.1 360.92 11.09 356.87 8.15 354.26C5.17 351.6 2.87 345.53 2.96 340.5C3.05 335.55 7.15 323.06 12.06 312.75C16.98 302.44 32.75 275.77 35.21 270C37.67 264.22 45.09 255.11 51.7 249.75C58.31 244.39 65.92 240.03 68.61 240.07ZM105 531.27C105.82 531.04 111.9 533.06 118.5 535.76C125.1 538.46 131.17 541.69 132 542.93C132.82 544.18 141.26 548.75 150.75 553.1C161.61 558.07 171.87 565.72 178.45 573.75C184.19 580.76 189.67 591.22 190.62 597C191.84 604.41 190.52 611.04 186.15 619.5C182.74 626.1 180.01 632.85 180.07 634.5C180.14 636.15 176.78 641.21 172.6 645.75C168.42 650.29 165 654.67 165 655.5C165 656.32 139.96 692.55 137.58 697.5C133.53 705.92 132.29 706.45 118.38 705.66C110.19 705.2 100.46 702.83 96.75 700.41C93.04 697.98 86.56 692.96 82.36 689.25C78.16 685.54 69.39 677.44 62.86 671.25C56.34 665.06 48.48 654.94 45.39 648.75C39.87 637.66 39.88 637.24 46.14 619.5C49.64 609.6 53.17 600.82 54 600C54.82 599.17 58.32 594.45 61.77 589.5C65.22 584.55 73.83 570.12 80.89 557.44C87.96 544.75 95.94 533.77 98.62 533.04C101.3 532.3 104.17 531.51 105 531.27Z" />
</svg>