<svg xmlns="http://www.w3.org/2000/svg" viewBox="0 0 675 834" width="675" height="834">
	<style>
		tspan { white-space:pre }
		.shp0 { fill: #000000 } 
	</style>
	<path id="C" class="shp0" d="M97.5 6.46C94.2 9.82 9.78 84.22 6.31 90C0.48 99.71 0.2 102.77 2.59 130.5C4.01 147 17.36 219.61 20.25 224.02C23.14 228.43 32.25 235.1 40.5 238.84C52.88 244.45 58.91 245.36 75 244.06C85.72 243.18 196.2 237.96 232.5 236.57C268.8 235.18 363.3 228.79 376.5 228.47C389.7 228.14 407.28 222 408.6 222C409.92 222 411 226.05 411 231C411 235.95 409.65 240 408 240C406.35 240 405.05 241.69 405.11 243.75C405.18 245.81 400.45 254.59 394.61 263.25C388.78 271.91 384 279.67 384 280.5C384 281.32 380.29 286.24 375.75 291.42C371.21 296.6 366.06 302.34 364.29 304.17C362.53 306 352.64 313.57 342.31 321C331.98 328.42 315.67 340.57 306.07 348C296.46 355.42 284.76 363.82 280.05 366.66C275.35 369.5 268.8 373.55 265.5 375.66C262.2 377.76 255.45 382.29 250.5 385.71C245.55 389.14 239.47 392.88 237 394.02C234.52 395.16 226.42 400.1 219 405C211.57 409.9 202.12 415.57 198 417.6C193.87 419.64 185.1 425.77 178.5 431.22C171.9 436.67 164.81 441.1 162.75 441.07C160.69 441.03 155.29 444.42 150.75 448.6C146.21 452.78 129.11 460.19 123.75 465.09C118.39 469.99 99.43 487.03 90.78 495.72C82.14 504.4 75.09 512.85 75.11 514.5C75.14 516.15 71.12 521.55 66.17 526.5C61.22 531.45 57.13 537.19 57.08 539.25C57.04 541.31 54.96 546.04 52.48 549.75C49.99 553.46 46.54 561.9 44.81 568.5C43.08 575.1 40.28 585.9 38.59 592.5C36.9 599.1 34.96 622.05 34.28 643.5C33.59 664.95 33.12 691.27 33.23 702C33.34 712.72 31.95 729.6 30.14 739.5C27.6 753.38 27.72 760.15 30.67 769.07C33.66 778.09 36.81 781.47 45 784.39C50.77 786.46 57.52 787.16 60 785.95C62.47 784.74 77.32 782.99 93 782.06C108.67 781.12 125.55 779.02 130.5 777.39C135.45 775.77 301.87 759.92 339 760.78C376.12 761.63 420.34 763.61 437.25 765.17C454.16 766.73 471.02 769.69 474.72 771.75C478.41 773.81 483.48 777.66 485.97 780.29C488.46 782.93 493.65 789.68 497.49 795.29C501.34 800.91 508.09 807.84 512.49 810.7C516.9 813.57 526.91 819.98 534.75 824.95C544.98 831.45 550.9 833.41 555.75 831.91C559.46 830.76 565.87 826.89 570 823.32C574.12 819.75 622.81 790.61 628.68 785.25C634.56 779.89 644.42 770.77 650.6 765C656.77 759.22 664.14 751.12 666.97 747C669.8 742.87 672.33 733.42 672.6 726C673.04 713.87 671.74 711.06 659.79 698.29C652.48 690.48 645.15 684.03 643.5 683.96C641.85 683.9 633.75 677.02 625.5 668.68C617.25 660.34 604.42 650.21 597 646.17C589.57 642.13 581.47 638.88 579 638.96C576.52 639.04 573.15 637.93 571.5 636.49C569.85 635.06 557.02 632.29 543 630.33C528.97 628.37 505.35 626.09 490.5 625.26C475.65 624.43 453.37 623.87 441 624.01C428.62 624.15 415.8 624.89 412.5 625.67C409.2 626.44 398.4 627.79 388.5 628.67C378.6 629.55 349.57 631.89 324 633.88C298.42 635.87 275.47 638.73 273 640.23C270.52 641.73 255 643.61 238.5 644.4L208.5 645.85C202.57 626.55 202.31 620.68 204.16 617.25C205.72 614.36 222.24 574.72 229.42 564C236.6 553.27 270.6 508.45 282.63 497.38C294.66 486.32 308.89 473.83 314.25 469.63C319.61 465.43 325.01 461.97 326.25 461.92C327.49 461.88 330.52 460.05 333 457.85C335.47 455.65 346.27 449.29 357 443.7C367.72 438.12 378.71 431.52 381.41 429.03C384.11 426.54 391.53 422.9 397.91 420.95C404.28 419 418.14 412.25 428.69 405.95C439.25 399.65 449.38 392.34 451.19 389.7C453.01 387.05 458.55 382.79 463.5 380.22C468.45 377.65 484.65 363.32 499.5 348.37C514.35 333.42 527.85 321.05 529.5 320.88C531.15 320.71 539.12 311.56 547.22 300.54C555.32 289.52 565.32 273.75 569.45 265.5C573.57 257.25 579.45 243.07 582.52 234C585.58 224.92 588.07 211.76 588.05 204.75C588.02 197.74 589.46 188.29 591.25 183.75C593.04 179.21 595.03 167.4 595.67 157.5C596.32 147.6 596.83 131.4 596.81 121.5C596.77 106.64 595.61 102.53 590.13 97.92C584.43 93.12 579.7 92.52 556.5 93.68C541.65 94.43 445.5 93.73 412.5 97.91C363.81 104.07 336.39 105.68 267 106.48C198.56 107.26 179.11 106.6 169.5 103.17C160.6 99.99 156.54 96.38 153.79 89.19C151.74 83.86 150.06 67.69 150.04 53.25C150.01 33.78 148.56 24.1 144.43 15.75C141.37 9.56 136.65 3.49 133.93 2.25C131.22 1.01 123.26 0.08 116.25 0.18C107.56 0.3 101.59 2.3 97.5 6.46Z" />
</svg>