<svg xmlns="http://www.w3.org/2000/svg" viewBox="0 0 660 879" width="660" height="879">
	<style>
		tspan { white-space:pre }
		.shp0 { fill: #000000 } 
	</style>
	<path id="D" class="shp0" d="M352.5 2.08C349.2 2.92 208.34 87.34 206.25 104.5C205.01 114.67 204.86 124.69 205.91 126.75C206.96 128.81 207.68 138.6 207.52 148.5C207.35 158.4 209.2 185.06 211.61 207.75C214.02 230.44 215.32 250.35 214.5 252C213.67 253.65 214.35 259.05 216 264C218.47 271.4 217.92 274.46 212.9 281.25C209.54 285.79 206.85 288.15 206.92 286.5C206.99 284.85 205.01 286.54 202.52 290.25C200.04 293.96 195.97 297 193.5 297C191.02 297 180.56 305.76 170.25 316.46C158.22 328.95 143.44 340.26 129 348.04C116.62 354.71 82.09 378.09 74.25 383.38C66.41 388.67 22.33 450.71 20.29 455.25C18.24 459.79 15.07 464.85 13.23 466.5C11.38 468.15 7.8 472.87 5.26 477C1.19 483.62 1.16 485.91 4.96 496.5C7.34 503.1 18.93 643.85 21 648C22.65 651.3 28.05 656.7 33 660C39.07 664.05 44.69 665.43 50.25 664.25C54.79 663.29 64.26 658.9 71.3 654.5C78.34 650.1 91.84 639.29 101.3 630.48C110.76 621.68 122.55 612.34 127.5 609.73C132.45 607.13 140.55 604.15 145.5 603.12L154.5 601.25C154.5 566.57 153.43 555.82 152.12 555C150.82 554.17 149.16 546.07 148.44 537C147.73 527.92 146.37 513.07 145.43 504C144.48 494.92 143.23 477.37 142.64 465C142.06 452.62 140.77 431.36 139.79 417.75C138.22 396 138.64 392.73 143.25 390.79C146.14 389.57 184.09 356.77 192.12 351C200.16 345.22 207.96 337.8 209.46 334.5C210.96 331.2 214.4 328.5 217.1 328.5C220.25 328.5 222.49 331.72 223.37 337.5C224.11 342.45 225.58 356.62 226.63 369C227.68 381.37 229.02 430.65 229.61 478.5C230.2 526.35 232.19 577.65 234.04 592.5C235.88 607.35 237.3 648.86 237.19 684.75C237.09 720.64 236.76 751.01 236.48 752.25C236.19 753.49 237.42 757.87 239.21 762C241.01 766.12 245.21 776.92 248.55 786C251.88 795.07 255.38 806.89 256.31 812.25C257.24 817.61 261.08 824.36 264.84 827.25C268.6 830.14 274.68 837.22 278.34 843C282 848.77 287.36 857.17 290.25 861.66C293.82 867.22 299.81 870.89 309 873.16C316.42 875 326.55 877.26 331.5 878.18C337.82 879.36 344.52 877.65 354 872.43C361.42 868.35 371.89 864.11 377.25 863C382.85 861.85 387.58 858.77 388.37 855.75C389.21 852.54 395.05 849.04 403.37 846.75C410.87 844.69 421.05 839.62 426 835.5C431.6 830.83 435 825.17 435 820.5C435 816.37 436.35 812.32 438 811.5C439.65 810.67 441 807.97 441 805.5C441 803.02 438.86 795.94 436.25 789.75C433.64 783.56 430.3 776.47 428.84 774C427.38 771.52 423.39 763.42 419.97 756C415.57 746.45 412.86 731.52 410.73 705C409.07 684.37 407.1 659.06 406.35 648.75C405.61 638.44 403.76 627.64 402.24 624.75C400.72 621.86 398.66 585.75 397.66 544.5C396.65 503.25 396.15 449.25 396.55 424.5C396.95 399.75 396.98 369.71 396.64 357.75C396.26 344.83 397.22 339 399 339C400.65 339 403.35 342 405 342C406.65 342 413.06 344.29 419.25 347.1C425.44 349.9 433.73 352.94 437.67 353.85C443 355.08 445.93 358.97 449.06 369C451.37 376.42 454.08 401.4 455.07 424.5C456.54 458.6 446.76 521.18 447.84 535.5C448.71 547.05 452.29 564.6 455.8 574.5C459.3 584.4 464.48 595.87 467.3 600C470.13 604.12 473.8 611.44 475.47 616.26C477.16 621.15 483.18 627.78 489.09 631.26C494.91 634.69 505.25 641.55 512.06 646.5C518.87 651.45 526.48 658.87 528.97 663C531.62 667.39 538.59 672.06 545.75 674.25C555.83 677.34 559.46 677.26 566.25 673.84C570.79 671.55 580.57 663.45 588 655.84C595.42 648.23 606.22 640.11 612 637.81C617.77 635.51 626.21 630.11 630.75 625.81C635.29 621.51 642.69 617.66 647.19 617.25C652.83 616.73 656.24 614.16 658.11 609C659.61 604.87 659.98 598.12 658.94 594C657.9 589.87 652.26 581.1 646.42 574.5C640.57 567.9 631.79 556.42 626.89 549C622 541.57 608.14 496.65 606.32 478.5C604.5 460.35 602.99 440.77 602.95 435C602.92 429.22 603.12 421.12 603.4 417C603.69 412.87 603.87 402.75 603.81 394.5C603.75 386.25 602.69 368.02 601.44 354C599.52 332.38 597.98 327.23 591.34 320.16C587.03 315.58 582.49 311.86 581.25 311.91C580.01 311.96 571.24 306.6 561.75 300C552.26 293.41 543.15 288.02 541.5 288.04C539.85 288.06 529.05 283.45 517.5 277.78C505.95 272.12 429.11 235.36 423.75 231.68C418.39 228.01 411.97 225 409.5 225C407.02 225 404.94 223.99 404.86 222.75C404.79 221.51 404.62 204.3 404.5 184.5C404.37 164.7 398.38 29.14 397.53 26.25C396.69 23.36 397.3 14.29 395.23 9.75C392.44 3.65 374.12 1.38 367.48 1.03C362.54 0.77 355.8 1.25 352.5 2.08Z" />
</svg>