<svg xmlns="http://www.w3.org/2000/svg" viewBox="0 0 660 810" width="660" height="810">
	<style>
		tspan { white-space:pre }
		.shp0 { fill: #000000 } 
	</style>
	<path id="e-" class="shp0" d="M145.33 2.56C140.29 3.63 134.22 6.11 131.83 8.07C129.45 10.04 24.7 82.11 22.85 85.31C21.01 88.5 16.12 94.28 12 98.16C7.87 102.03 3.49 105.16 2.25 105.1C1.01 105.05 0.04 108.04 0.09 111.75C0.14 115.46 2.82 122.55 6.05 127.5C9.28 132.45 16.32 139.7 21.71 143.62C27.09 147.54 36.56 158.67 42.75 168.37C48.94 178.07 54.03 187.69 54.08 189.75C54.12 191.81 56.48 196.04 59.33 199.14C62.17 202.24 65.41 210.34 66.52 217.14C67.64 223.94 69.97 234.9 71.7 241.5C73.44 248.1 76.24 311.89 77.93 383.25C80.16 477.43 80.09 518.96 77.66 534.75C75.75 547.21 75.13 568.67 76.21 585C77.24 600.67 79.2 634.42 80.57 660C81.93 685.57 82.18 707.85 81.14 709.5C80.1 711.15 79.3 730.11 79.37 751.63C79.48 783.65 80.45 792.24 84.75 798.88C87.64 803.35 92.36 807.04 95.25 807.1C98.14 807.15 213.22 732.7 219 727.81C224.77 722.92 231.05 715.45 232.95 711.21C235.18 706.23 235.62 697.66 234.19 687C232.97 677.92 229.67 665.1 226.85 658.5C224.03 651.9 220.36 635.02 218.7 621C217.04 606.97 214.88 588.07 213.9 579C212.56 566.61 213.16 561.86 216.31 559.93C218.83 558.39 242.74 567.7 249.75 572.22C256.76 576.74 263.17 581.31 264 582.36C264.82 583.41 271.57 588.95 279 594.67C286.42 600.39 298.91 611.36 306.75 619.04C314.59 626.72 322.01 632.98 323.25 632.96C324.49 632.94 352.87 662.61 357 664.77C361.12 666.92 372.7 676.52 382.71 686.09C398.52 701.2 402.98 703.8 416.46 705.75C428 707.42 434.9 706.78 443.25 703.25C449.44 700.63 459.9 692.34 466.5 684.82C473.1 677.3 480.34 667.62 482.58 663.32C484.82 659.02 493.83 648.75 502.6 640.5C511.92 631.73 519.41 621.76 520.62 616.5C521.77 611.55 521.87 603.45 520.85 598.5C519.83 593.55 515.58 585.45 511.4 580.5C507.23 575.55 503.52 570.65 503.15 569.61C502.79 568.57 493.61 563.17 482.74 557.61C471.87 552.05 457.69 543.08 451.24 537.69C444.78 532.29 434.1 524.34 427.5 520.02C420.9 515.7 411.45 510.78 406.5 509.09C401.55 507.4 396.82 505.12 396 504.03C395.17 502.93 382.35 495.87 367.5 488.34C352.65 480.81 335.1 471.92 328.5 468.58C321.9 465.24 313.12 461.08 309 459.33C304.87 457.59 295.42 453.98 288 451.32C280.57 448.66 262.35 443.14 247.5 439.05C232.65 434.96 218.14 430.35 215.25 428.81C210.47 426.25 210.12 421.24 211.4 372.75L212.8 319.5C246.67 321.13 260.21 323.49 264.75 325.8C269.29 328.11 276.71 329.99 281.25 329.98C285.79 329.96 292.87 332.3 297 335.16C301.12 338.03 306.52 342.04 309 344.08C311.47 346.13 318.22 351.15 324 355.25C329.77 359.35 351.37 374.15 372 388.13C392.62 402.1 412.45 416.68 416.07 420.52C419.68 424.36 425.75 429.87 429.57 432.77C433.38 435.67 468.47 461.7 485.25 460.25C496.39 459.28 568.57 434.37 576 430.99C583.42 427.6 637.56 394.42 645.43 387C657.04 376.04 659.76 371.53 659.91 363C660.02 356.63 657.42 348.77 653.3 343.03C649.56 337.82 640.42 329.41 633 324.33C625.57 319.26 618.15 315.14 616.5 315.17C614.85 315.2 610.12 311.86 606 307.74C601.87 303.62 594.45 298.93 589.5 297.33C584.55 295.72 573.07 291.27 564 287.42C554.92 283.58 541.09 276.06 533.25 270.72C525.41 265.37 516.97 261 514.5 261C512.02 261 500.89 256.31 489.75 250.59C478.61 244.86 464.77 239.27 459 238.16C453.22 237.06 447.15 235.15 445.5 233.91C443.85 232.68 434.4 230.09 424.5 228.16C414.6 226.23 402.45 223.44 397.5 221.96C392.55 220.48 379.72 217.56 369 215.48C358.27 213.39 331.95 211.51 310.5 211.3C289.05 211.08 237.07 222.84 228 223.89L211.5 225.79C207.41 203.09 205.89 192.45 205.47 187.5C205.06 182.55 203.71 165 202.48 148.5C201.25 132 200.41 104.66 200.62 87.75C200.89 65.56 199.75 54.7 196.52 48.75C194.05 44.21 191.98 37.8 191.91 34.5C191.83 31.2 187.44 22.05 182.14 14.16C174.02 2.08 171.08 -0.11 163.5 0.22C158.55 0.44 150.37 1.49 145.33 2.56Z" />
</svg>