<svg xmlns="http://www.w3.org/2000/svg" viewBox="0 0 423 888" width="423" height="888">
	<style>
		tspan { white-space:pre }
		.shp0 { fill: #000000 } 
	</style>
	<path id="E" class="shp0" d="M82.5 35.33C77.55 39.41 68.77 45.13 63 48.06C57.22 50.98 44.4 61.75 34.5 71.98C24.6 82.22 15.05 92.14 13.27 94.04C11.49 95.95 8.3 100.87 6.17 105C3.22 110.72 2.39 136.3 2.67 213C2.87 268.27 4.37 322.95 6 334.5C7.63 346.05 10.9 369.67 13.26 387C15.62 404.32 17.57 423.22 17.59 429C17.62 434.77 19.78 453 22.41 469.5C25.38 488.21 27.76 528.3 28.73 576C29.58 618.07 31.57 670.05 33.15 691.5C34.72 712.95 35.95 739.27 35.87 750C35.77 764.14 37.05 770.74 40.53 774C43.17 776.47 46.17 781.2 47.2 784.5C48.23 787.8 55.56 799.27 63.5 810C71.44 820.72 85.72 838.1 95.22 848.6C104.72 859.11 116.89 872.27 122.25 877.85C129.69 885.59 134.49 888 142.5 888C148.27 888 156.04 886.83 159.75 885.4C163.46 883.97 172.58 876.88 180.02 869.65C187.46 862.42 202.98 842.49 214.52 825.37C226.06 808.24 238.48 789.34 242.12 783.37C245.77 777.39 249.58 767.1 250.6 760.5C252 751.48 250.72 744.59 245.48 732.78C241.64 724.13 195.8 652.8 193.35 649.5C190.9 646.2 164.43 535.12 163.46 531C162.49 526.87 161.76 511.69 161.84 497.25C161.95 479.79 163.58 467.74 166.72 461.25C169.54 455.43 178.3 447.14 188.47 440.67C197.84 434.72 212.25 426.5 220.5 422.42C228.75 418.34 238.87 413.21 243 411.03C247.12 408.85 251.99 406.26 253.8 405.28C255.62 404.3 323.89 373.68 329.26 371.48C334.62 369.29 387.6 348 397.5 340.35C407.4 332.69 417.26 322.84 419.41 318.46C422.62 311.92 422.62 309.24 419.41 303.42C417.26 299.52 413.47 295.29 411 294C408.52 292.72 399.07 293.02 390 294.68C380.92 296.34 368.1 299.84 361.5 302.47C354.9 305.1 344.77 310.15 339 313.69C333.22 317.23 325.12 321.15 321 322.41C316.87 323.67 309.45 327.75 304.5 331.48C299.55 335.21 286.05 342.84 274.5 348.44C262.95 354.03 249.45 361.73 244.5 365.53C239.55 369.34 229.76 375.05 222.75 378.23C215.74 381.4 208.31 385.38 206.25 387.06C204.19 388.74 198.45 393.46 193.5 397.56C188.55 401.65 183.49 404.99 182.25 405C181.01 405 175.89 408.71 170.88 413.25C165.86 417.79 160.8 420.42 159.63 419.1C158.46 417.78 158.96 413.05 160.75 408.6C162.54 404.14 163.05 397.8 161.88 394.5C160.71 391.2 160.93 386.14 162.38 383.25C163.82 380.36 164.68 368.21 164.29 356.25C163.79 340.66 165.1 331.1 168.92 322.5C171.97 315.64 179.02 307.34 185.38 303.12C191.5 299.06 202.57 293.47 210 290.68C217.42 287.9 229.24 283.46 236.25 280.81C243.26 278.17 258.79 274.59 270.75 272.86C282.71 271.14 293.17 268.77 294 267.61C294.82 266.45 301.57 262.53 309 258.91C316.42 255.3 325.26 249.9 328.64 246.92C332.02 243.94 342.14 237.55 351.14 232.72C360.14 227.89 376.27 216.2 387 206.74C401.55 193.89 407.84 185.85 411.76 175.02C414.66 167.03 417.02 156.79 417.01 152.25C417.01 147.71 415.15 140.29 412.9 135.75C410.64 131.21 405.24 125.14 400.9 122.25C394.91 118.27 389.91 117.49 380.25 119.03C370.55 120.57 221.06 245.28 210.75 251.92C200.44 258.57 191.32 264 190.5 264C189.67 264 184.97 267.04 180.04 270.75C175.12 274.46 170.32 276.82 169.39 276C168.45 275.17 169.33 266.4 171.35 256.5C173.36 246.6 174.76 225.67 174.45 210C174.14 194.32 175.75 167.32 178.03 150C180.55 130.85 181.34 111.44 180.04 100.5C178.86 90.6 178.47 77.77 179.17 72C179.87 66.22 178.32 49.35 175.73 34.5C171.98 13.01 169.49 6.12 163.51 0.75C159.38 -2.96 87.45 31.25 82.5 35.33Z" />
</svg>