<svg xmlns="http://www.w3.org/2000/svg" viewBox="0 0 1089 798" width="1089" height="798">
	<style>
		tspan { white-space:pre }
		.shp0 { fill: #000000 } 
	</style>
	<path id="F" class="shp0" d="M305.17 2.95C292.76 2.99 275.12 17.1 272.77 21.51C270.42 25.91 225.04 74.85 225.11 76.5C225.19 78.15 219.16 86.92 211.72 96C204.28 105.07 192.02 172.61 192.47 201.75C192.73 218.66 192.81 234.52 192.65 237C192.49 239.47 193.75 247.57 195.45 255C197.15 262.42 198.37 288.07 198.16 312C197.96 335.92 199.17 371.02 200.86 390C202.54 408.97 204.88 438.67 206.04 456C207.2 473.32 208.23 507.75 208.32 532.5C208.49 574.74 207.99 578.79 200.24 598.5C195.7 610.05 188.74 622.87 184.79 627L177.6 634.5C169.89 622.26 167.1 606.8 165.29 585C163.72 566.02 160.98 546.79 159.21 542.25C157.45 537.71 155.86 514.76 155.7 491.25C155.53 467.74 155.53 445.46 155.7 441.75C155.86 438.04 158.02 432.97 160.5 430.5C163.25 427.75 164.43 422.8 163.53 417.75C162.72 413.21 159.01 406.65 155.28 403.16C151.55 399.68 145.8 396.14 142.5 395.29C139.2 394.45 134.39 395.28 131.81 397.13C129.23 398.98 124.51 404.9 121.31 410.29C118.12 415.67 114.15 420.03 112.5 419.97C110.85 419.92 101.4 427.25 91.5 436.27C81.6 445.29 67.78 455.11 60.79 458.09C53.8 461.06 46.64 466.2 44.88 469.5C43.12 472.8 34.66 478.87 26.09 483C15.9 487.9 8.98 493.62 6.11 499.5C2.53 506.84 1.8 524.3 2.19 594C2.55 659.29 3.77 684.29 7.33 699.75C9.9 710.89 16.05 726.07 21 733.5C25.95 740.92 31.35 747 33 747C34.65 747 44.44 752.79 54.75 759.87C65.06 766.95 84.97 777.41 99 783.12C119.89 791.62 128.39 793.5 146 793.5C157.82 793.5 168.62 794.48 170 795.69C171.37 796.89 176.55 797.12 181.5 796.19C186.45 795.27 200.62 792.38 213 789.77C227.73 786.66 241.2 781.36 252 774.43C261.07 768.6 277 754.98 287.38 744.16C297.76 733.35 307.58 723.15 309.2 721.5C310.82 719.85 316.94 713.77 322.8 708C328.65 702.22 337.15 690.75 341.69 682.5C346.22 674.25 352.87 662.44 356.47 656.25C360.06 650.06 363 642.3 363 639C363 635.7 366.49 619.84 370.76 603.75C377.93 576.7 378.38 571.35 376.73 532.5C375.75 509.4 374.24 470.25 373.37 445.5C372.51 420.75 370.55 391.72 369.01 381C367.48 370.27 365.32 332.47 364.22 297C363.12 261.52 362.06 217.99 361.86 200.25C361.56 173.42 375.9 169.48 382.5 171.25C390.98 173.52 599.51 163.06 600.75 163.75C601.99 164.44 602.88 173.44 602.73 183.75C602.59 194.06 604.1 206.55 606.09 211.5C608.09 216.45 610.56 242.1 611.59 268.5C612.62 294.9 613.06 392.77 612.57 486C611.83 627.74 612.47 661.4 616.47 691.5C619.29 712.7 623.02 729.35 625.55 732C627.91 734.47 629.88 738.19 629.92 740.25C629.97 742.31 633.04 746.04 636.75 748.52C640.46 751.01 650.25 753.08 658.5 753.13C668.6 753.18 675.95 751.37 681 747.58C685.12 744.49 824.55 681.57 829.5 676.44C834.45 671.3 854.62 635.09 851.8 624C849.9 616.57 845.12 604.09 841.18 596.25C837.23 588.41 832.65 581.32 831 580.5C829.35 579.67 825.16 572.59 821.68 564.75C818.21 556.91 812.33 547.12 808.62 543C804.92 538.87 796.91 523.35 790.83 508.5C782.11 487.18 779.45 476.13 778.22 456C777.36 441.97 774.75 421.72 772.42 411C770.1 400.27 766.68 364.5 764.83 331.5C762.99 298.5 762.32 257.32 763.36 240C764.4 222.67 765.87 204.11 766.63 198.75C767.82 190.28 769.77 188.41 781.5 184.5C793.92 180.36 796.02 180.44 807.75 185.53C814.76 188.57 826.24 191.95 833.25 193.03C840.26 194.11 854.1 199.05 864 204C873.9 208.95 885.34 217.39 889.42 222.75C893.5 228.11 896.87 235.54 896.92 239.25C896.96 242.96 898.35 249.37 900 253.5C901.65 257.62 903.5 293.74 904.11 333.75C904.99 391.07 906.19 408.41 909.77 415.5C912.27 420.45 917.51 426.1 921.41 428.06C925.31 430.02 931.2 432.44 934.5 433.43C938.1 434.51 942.3 433.33 945 430.48C947.47 427.87 1027.2 386.94 1030.5 384.08C1033.8 381.21 1075.02 333.56 1079.94 323.25C1084.85 312.94 1088.9 300.79 1088.94 296.25C1088.97 291.71 1087.31 284.59 1085.25 280.41C1083.19 276.24 1080.15 272.8 1078.5 272.78C1076.85 272.75 1071.83 268.4 1067.35 263.11C1062.87 257.83 1055.31 243.37 1050.55 231C1045.78 218.62 1040.2 201.07 1038.13 192C1036.07 182.92 1032.57 169.42 1030.36 162C1028.16 154.57 1022.65 136.35 1018.14 121.5C1013.62 106.65 1007.47 90.79 1004.46 86.25C1001.46 81.71 999 76.65 999 75C999 73.35 993.26 67.5 986.25 62C979.24 56.5 934.73 29.86 921.87 27.86C909.02 25.86 891.75 23.66 883.5 22.97C875.25 22.28 664.72 13.71 654 11.95C643.27 10.18 632.14 8.8 629.25 8.87C626.36 8.94 314.7 2.93 305.17 2.95Z" />
</svg>