<svg xmlns="http://www.w3.org/2000/svg" viewBox="0 0 876 954" width="876" height="954">
	<style>
		tspan { white-space:pre }
		.shp0 { fill: #000000 } 
	</style>
	<path id="G" class="shp0" d="M651 2.91C648.52 4.41 632.32 5.82 615 6.05C597.67 6.28 578.77 6.14 573 5.76C567.22 5.37 544.27 6.89 522 9.13C499.72 11.37 461.92 13.56 438 14C414.07 14.43 379.65 14.72 361.5 14.63C343.35 14.55 314.32 14.42 297 14.35C276.52 14.26 262.17 15.66 255.99 18.36C250.76 20.64 242.28 28.57 237.14 36C232 43.42 222.91 56.92 216.94 66C210.97 75.07 203.02 87.22 199.26 93C195.51 98.77 188.9 111.6 184.58 121.5C180.26 131.4 172.56 147.6 167.47 157.5C162.39 167.4 151.21 189 142.64 205.5C134.07 222 121.89 244.95 115.57 256.5C109.25 268.05 101.76 280.87 98.93 285C96.1 289.12 92.68 295.87 91.33 300C89.97 304.12 84.65 312.9 79.49 319.5C74.34 326.1 67.91 337.57 65.2 345C62.5 352.42 59.55 367.27 58.65 378C57.72 389.18 55.95 456.45 57.35 499.5C58.59 537.45 61.03 606.97 62.77 654C64.84 709.73 64.94 747.33 63.06 762C61.48 774.37 58.79 789.22 57.09 795C55.39 800.77 53.98 809.55 53.97 814.5C53.95 819.45 49.06 839.02 43.09 858C37.13 876.97 30.1 895.87 27.47 900C24.84 904.12 19.95 910.51 16.6 914.2C13.24 917.88 8.14 920.92 5.25 920.95C0.94 920.99 0.34 922.75 1.91 930.75C2.96 936.11 6 943.56 8.66 947.29C12.64 952.88 15.37 953.78 24 952.34C29.77 951.38 39.22 947.62 45 943.98C50.77 940.35 64.27 933.08 75 927.83C85.72 922.58 97.54 914.85 101.25 910.64C104.96 906.44 159.52 845.1 163.36 838.5C167.2 831.9 173.67 819.75 177.73 811.5C181.8 803.25 186.81 791.77 188.88 786C190.95 780.22 194.65 770.1 197.12 763.5C199.58 756.9 201.6 746.77 201.61 741C201.61 735.22 200.75 713.62 199.69 693C198.63 672.37 196.43 648.75 194.8 640.5C193.18 632.25 191.95 594.45 192.09 556.5C192.23 518.55 191.98 474 191.55 457.5C191.12 441 190.86 417.37 190.99 405C191.12 392.62 191.42 375.75 191.66 367.5C191.9 359.25 192.6 332.92 193.21 309C194.13 273.59 195.56 262.15 200.93 247.5C204.55 237.6 210.64 225.45 214.46 220.5C218.28 215.55 222.92 208.12 224.78 204C226.63 199.87 231.53 191.77 235.66 186C239.79 180.22 256.01 158.93 259.07 156.29C263.06 152.86 270.28 151.59 284.57 151.81C295.53 151.98 316.65 154.41 331.5 157.2C346.35 160 360.52 163.52 363 165.03C366.63 167.24 367.33 173.75 366.63 198.63C366.16 215.61 364.45 240.97 362.83 255C361.22 269.02 358.76 294.67 357.36 312C355.97 329.32 355.24 378.6 355.75 421.5C356.25 464.4 358 505.57 359.64 513C361.28 520.42 363.28 553.5 364.1 586.5C364.92 619.5 366.69 649.05 368.04 652.17C369.39 655.29 374.21 659.68 378.75 661.92C383.29 664.17 392.4 666 399 666C407.75 666 415.26 663.14 426.75 655.43C435.41 649.61 445.81 642.52 449.85 639.68C453.89 636.83 462.66 630.45 469.35 625.5C476.03 620.55 487.57 612.58 495 607.8C502.42 603.01 516.92 590.86 527.21 580.8C542.01 566.33 546.99 559.05 551 546C553.78 536.92 556.57 522.07 557.17 513C557.96 501.22 556.59 492.64 552.38 483C549.13 475.57 520.42 417.75 517.79 409.5C514.89 400.43 511.67 372.57 509.65 339C507.81 308.47 505.89 270 505.39 253.5C504.88 237 504.18 218.77 503.81 213C503.45 207.22 503.35 196.76 503.58 189.75C503.96 178.26 504.74 177 511.5 177C515.62 177 522.04 178.6 525.75 180.55C529.46 182.51 537.9 185.15 544.5 186.43C551.1 187.71 564.6 190.73 574.5 193.15C584.4 195.57 597.22 199.01 603 200.8C609.28 202.75 622.34 212.78 635.51 225.78C649.97 240.05 660.09 253.16 665.02 264C670.19 275.38 673.31 289.34 675.09 309C676.51 324.67 677.68 376.65 677.7 424.5C677.71 472.35 679.09 547.27 680.75 591C682.42 634.72 684.4 675.22 685.16 681C685.92 686.77 687.99 701.29 689.77 713.25C691.55 725.21 695.46 746.14 698.47 759.75C701.48 773.36 705.2 786.66 706.72 789.31C708.25 791.95 712.87 798.06 717 802.89C721.12 807.71 728.55 813.4 733.5 815.54C738.92 817.87 748.47 818.8 757.5 817.87C765.75 817.03 786 814.13 802.5 811.44C822.87 808.12 836.11 804.21 843.75 799.28C849.94 795.27 855.67 792 856.5 792C857.32 792 862.21 787.61 867.35 782.25C876.52 772.7 876.68 772.05 875.09 750C873.75 731.54 871.68 724.54 863.51 711C858.03 701.92 850.51 691.8 846.81 688.5C843.1 685.2 840.05 680.14 840.03 677.25C840.01 674.36 837.85 664.91 835.23 656.25C832.61 647.59 829.31 637.8 827.89 634.5C826.48 631.2 823.24 602.17 820.7 570C818.16 537.82 835.28 334.05 835.93 322.5C836.59 310.95 835.77 289.35 834.11 274.5C832.45 259.65 830.53 233.32 829.85 216C829.16 198.67 827.1 180.45 825.26 175.5C823.42 170.55 820.02 155.7 817.71 142.5C815.39 129.3 812.03 112.76 810.25 105.75C808.46 98.74 802.03 83.21 795.95 71.25C789.87 59.29 783.76 47.47 782.36 45C780.97 42.52 777.5 36.8 774.66 32.27C771.82 27.74 653.47 1.41 651 2.91Z" />
</svg>