<svg xmlns="http://www.w3.org/2000/svg" viewBox="0 0 780 906" width="780" height="906">
	<style>
		tspan { white-space:pre }
		.shp0 { fill: #000000 } 
	</style>
	<path id="H" class="shp0" d="M637.5 3.67C632.55 5.44 625.8 8.71 622.5 10.96C619.2 13.21 614.28 15.04 611.58 15.02C608.87 15.01 596.38 24.45 583.83 36C571.27 47.55 557.29 58.84 552.75 61.1C548.21 63.35 538.77 71.79 531.78 79.85C519.55 93.93 518.98 95.5 517.03 120C515.92 134.02 514.86 166.42 514.66 192C514.47 217.57 512.63 249.97 510.57 264C508.33 279.26 503.38 296.73 498.23 307.5C493.5 317.4 485.78 328.94 481.06 333.15C474.91 338.64 467.43 341.42 454.5 343.02C444.6 344.25 434.14 344.52 431.25 343.62C428.36 342.73 428.28 288.75 428.58 247.5C428.88 206.25 429.73 163.72 430.47 153C431.21 142.27 433.99 116.62 436.64 96C439.3 75.37 442.15 49.72 442.98 39C443.97 26.1 443.13 16.67 440.49 11.13C438.02 5.96 434.21 2.82 430.5 2.93C427.2 3.02 422.47 4.36 420 5.9C417.52 7.45 412.38 11.14 408.56 14.1C404.74 17.07 399 21.86 395.81 24.75C392.61 27.64 384.94 32.72 378.75 36.05C372.56 39.38 361.09 48.15 353.25 55.55C345.41 62.95 334.61 71.26 329.25 74.03C323.89 76.8 315.03 83.89 309.58 89.78C304.12 95.68 297.14 105.22 294.07 111C290.85 117.06 288.3 128.47 288.04 138C287.8 147.07 289.06 170.02 290.86 189C292.65 207.97 295.17 249.82 296.45 282C297.73 314.17 297.83 341.85 296.66 343.5C295.49 345.15 285.98 346.9 275.52 347.39C265.06 347.88 244.35 349.55 229.5 351.09C214.65 352.63 196.76 353.92 189.75 353.95C178.41 353.99 177.04 353.25 177.36 347.25C177.55 343.54 176.89 308.77 175.89 270C174.89 231.22 172.52 186.67 170.62 171C168.72 155.32 167.83 124.95 168.63 103.5C169.64 76.6 171.65 60.78 175.12 52.5C177.88 45.9 180.11 35.44 180.07 29.25C180.01 20.05 178.77 17.73 173.25 16.54C169.54 15.74 158.74 15.06 149.25 15.04C137.44 15.01 131.99 16.18 131.97 18.75C131.96 20.81 124.2 29.95 114.72 39.05C105.25 48.15 92.1 62.01 85.5 69.84C78.9 77.67 66.75 88.73 58.5 94.41C50.25 100.1 39.22 111.22 34 119.12C28.77 127.03 22.84 140.25 20.8 148.5C17.84 160.53 17.89 167.66 21.03 184.5C23.19 196.05 25.42 225.75 26 250.5C26.58 275.25 27.3 306.3 27.62 319.5C27.93 332.7 11.97 673 7.65 715.5L2.76 763.5C14.46 772.6 19.62 773.72 27 772.61C32.77 771.73 51.34 770.34 68.25 769.51C96.74 768.11 498.62 751.22 526.5 764.19C554.42 777.19 609.37 864.75 613.5 873C617.99 881.99 625.51 891.01 632.25 895.51C638.44 899.65 646.54 903.02 650.25 903.01C653.96 903.01 664.42 898.27 673.5 892.5C682.57 886.72 775.64 797.8 777.41 792C779.17 786.22 779.8 778.46 778.8 774.75C777.49 769.82 734.25 729.72 722.28 717.77C710.3 705.82 698.81 696.04 696.75 696.02C694.69 696.01 693 694.65 693 693C693 691.35 675.79 681.73 654.75 671.63C633.71 661.52 613.8 652.07 610.5 650.63C607.2 649.19 594.37 646.39 582 644.42C569.62 642.44 550.72 640.25 540 639.56C529.27 638.86 385.69 627.57 338.25 627.37C254.87 627.01 251.1 627.25 225 634.5C210.15 638.62 195.3 642 192 642C188.7 642 184.65 639.3 183 636C181.15 632.3 180.48 604.38 181.25 563.25C181.94 526.54 183.29 488.74 184.25 479.25C185.52 466.72 187.44 461.42 191.25 459.89C194.14 458.73 220.8 457.6 250.5 457.37C286.75 457.09 312.39 455.37 328.5 452.12C341.7 449.46 361.95 445.69 373.5 443.74C385.18 441.77 401.82 441.09 411 442.21C420.07 443.31 431.55 443.94 436.5 443.6C441.45 443.27 449.55 443.08 454.5 443.18C459.45 443.29 483.75 444.23 508.5 445.27C551.76 447.1 554.48 446.86 579 439.08C593.02 434.63 608.07 428.86 612.43 426.25C616.79 423.64 624.22 416.57 628.93 410.54C633.64 404.51 640.2 395.1 643.5 389.64C646.8 384.17 652.01 375.61 655.09 370.6C658.16 365.6 661.54 360.82 662.59 360C663.64 359.17 666.79 353.77 669.59 348C672.39 342.22 675.88 332.77 677.33 327C678.79 321.22 678.98 305.02 677.76 291C676.53 276.97 674.47 232.42 673.17 192C671.88 151.57 670.66 113.1 670.46 106.5C670.26 99.9 669.16 91.12 668.01 87C666.87 82.87 667.13 63.97 668.6 45C670.93 14.87 670.65 9.82 666.39 5.15C663.7 2.21 658.12 -0.05 654 0.14C649.87 0.32 642.45 1.91 637.5 3.67Z" />
</svg>