<svg xmlns="http://www.w3.org/2000/svg" viewBox="0 0 855 864" width="855" height="864">
	<style>
		tspan { white-space:pre }
		.shp0 { fill: #000000 } 
	</style>
	<path id="J" class="shp0" d="M425.13 2.07L274.5 2.63C242.95 18.11 238.86 21.97 232.5 34.5C228.32 42.75 223.23 52.2 221.2 55.49C219.16 58.78 213.79 65.87 209.25 71.24C204.71 76.61 195.46 98.14 188.7 111.75C181.93 125.36 170.45 145.61 163.2 156.75C155.94 167.89 150 179.02 150 181.5C150 183.97 146.96 189.04 143.25 192.75C136.69 199.31 136.5 201.27 136.43 261C136.38 294.82 135.37 326.21 134.17 330.75C132.5 337.09 130.09 339.08 123.75 339.35C119.21 339.54 114.15 339.91 112.5 340.18C110.85 340.45 105.11 341.64 99.75 342.84C92.42 344.46 88.89 347.6 85.5 355.5C83.02 361.27 69.86 378.94 56.25 394.76C42.64 410.58 29.14 428.13 26.25 433.76C23.36 439.39 17.29 446.5 12.75 449.56C8.21 452.62 3.49 458.69 2.25 463.06C0.68 468.61 1.81 474.62 6 483C11.67 494.33 12.75 495 25.5 495C32.92 495 42.04 493.81 45.75 492.36C49.46 490.91 70.72 489.22 93 488.61L133.5 487.5C133.76 529.35 135.61 581.32 137.78 630C139.94 678.67 141.22 741.68 140.61 770.02C140.61 770.02 139.75 842.95 140.21 849.48C140.61 854.99 141.6 860.17 142.42 861C143.24 861.82 149.67 858.54 156.7 853.7C163.74 848.87 188.55 834.4 193.5 828.89C198.45 823.37 203.85 818.85 205.5 818.82C207.15 818.8 214.24 813.43 221.25 806.89C228.26 800.35 237.71 793.33 242.25 791.28C246.79 789.23 254.59 784.84 259.59 781.53C264.58 778.21 273.45 771.45 279.3 766.5C285.14 761.55 292.35 752.1 295.32 745.5C299.31 736.62 300.65 726.47 300.47 706.5C300.31 688.88 286.45 611.1 284.73 604.5C283.01 597.9 281.22 587.1 280.74 580.5C280.27 573.9 279.56 552.3 279.16 532.5C278.76 512.7 279.57 492.62 280.96 487.89L283.5 479.28C318.37 482.31 333.9 483.99 340.5 484.96L352.5 486.74C349.21 522.2 346.86 548.7 345.14 568.5C343.43 588.3 342.72 618.67 343.58 636C344.87 661.86 346.2 668.57 351.01 673.5C354.24 676.8 356.84 680.85 356.8 682.5C356.76 684.15 361.82 689.55 368.06 694.5C374.29 699.45 388.87 712.64 400.45 723.81C412.03 734.99 432.7 751.86 446.39 761.31C460.09 770.77 475.82 781.2 481.36 784.5C486.89 787.8 494.59 793.37 498.46 796.88C502.33 800.39 510.9 805.65 517.5 808.58C528.09 813.28 530.91 813.43 541.5 809.88C548.1 807.66 557.55 803.7 562.5 801.07C567.45 798.44 574.54 794.31 578.26 791.89C581.98 789.48 689.37 676.91 710.35 655.41C731.33 633.91 752.55 610.42 757.5 603.23C762.45 596.03 797.23 552.78 799.1 548.24C800.97 543.7 806.98 380.9 806.96 366.75C806.93 353.96 805.2 340.12 803.11 336C800.13 330.11 796.11 328.03 784.41 326.33C774.32 324.85 764.41 325.58 753.75 328.58C745.09 331.01 731.92 337.05 724.5 342C717.07 346.95 709.99 351.03 708.75 351.08C707.51 351.12 701.82 358.21 696.1 366.83L685.69 382.5C686.94 483.46 685.88 509.16 683.11 523.5C680.88 535.05 675.69 551.92 671.59 561C667.49 570.07 658.09 586.27 650.69 597C643.3 607.72 633.34 623.25 628.55 631.5C623.77 639.75 614.37 653.43 607.68 661.9C600.98 670.37 592.46 678.81 588.75 680.65C584.34 682.84 581.48 682.96 580.5 681C579.67 679.35 467.54 597.45 469.2 591C470.25 586.87 471.88 578.1 472.8 571.5C473.72 564.9 470.66 456.99 470.15 444.75C469.68 433.61 470.43 420.45 471.82 415.5C473.2 410.55 475.03 392.32 475.88 375C477.05 351.1 476.47 342.67 473.46 340.06C471.28 338.17 462.07 335.85 453 334.92C443.92 333.99 435.15 333.2 433.5 333.17C431.85 333.14 412.95 334.96 391.5 337.21C370.05 339.45 337.34 343.14 318.82 345.4C286.15 349.38 272.84 344.29 272.65 339.75C272.46 335.21 267.85 161.9 271.19 158.25C273.84 155.36 275.66 150.69 275.25 147.87C274.57 143.24 278.01 142.81 310.5 143.44C330.3 143.83 355.27 144.98 366 146C376.72 147.03 404.4 148.14 427.5 148.48C450.6 148.82 491.1 150.53 517.5 152.28C543.9 154.02 568.87 156.25 573 157.23C577.12 158.21 600.75 159.75 625.5 160.66C650.25 161.58 676.57 162.59 684 162.91C695.44 163.41 698.85 162.13 706.37 154.5C711.25 149.55 819.41 41.76 827.25 37.81C835.09 33.85 844.54 26.42 848.25 21.31C851.96 16.19 855 10.65 855 9C855 7.35 850.61 5.07 845.25 3.93C839.89 2.79 806.47 2.04 771 2.25C735.52 2.47 684.44 3.06 657.47 3.57C630.5 4.08 507.97 1.75 425.13 2.07Z" />
</svg>