<svg xmlns="http://www.w3.org/2000/svg" viewBox="0 0 699 741" width="699" height="741">
	<style>
		tspan { white-space:pre }
		.shp0 { fill: #000000 } 
	</style>
	<path id="K" fill-rule="evenodd" class="shp0" d="M550.5 2.86L548.25 11.93C547.01 16.92 542.79 25.39 538.87 30.75C534.95 36.11 530.86 45.9 529.78 52.5C528.69 59.1 509.6 99.22 506.51 105C503.14 111.31 482.88 168.29 482.49 193.5C482.25 208.35 477.44 298.35 478.56 316.5C479.67 334.65 502.33 549 504.53 568.5C506.2 583.35 508.07 604.27 508.69 615C509.31 625.72 511.23 635.85 512.95 637.5C514.83 639.29 515.6 649.59 514.86 663C513.9 680.56 512.38 686.49 507.93 690C504.8 692.47 488.79 697.6 472.37 701.39C455.94 705.18 438.45 709.57 433.5 711.15C428.55 712.73 406.95 715.32 385.5 716.92C364.05 718.52 339.07 721.24 330 722.97C320.92 724.7 292.57 728.05 267 730.4C241.42 732.76 204.97 735.46 186 736.41C167.02 737.36 149.14 738.1 146.25 738.07C143.36 738.03 138.34 734.96 135.1 731.25C131.85 727.54 116.51 520.76 115.62 513.75C114.54 505.23 109.34 494.28 99.96 480.75C92.23 469.61 77.05 452.07 66.21 441.76C55.37 431.45 42.45 421.92 37.5 420.58C29.28 418.36 28.17 416.47 24.69 398.82C22.59 388.2 0 330.6 0 324C0 317.4 22.8 265.61 24.82 262.09C26.84 258.56 31.87 252.11 36 247.76C40.12 243.41 44.51 239.88 45.75 239.92C46.99 239.97 52.05 237.3 57 234C62.35 230.43 69.92 228.3 75.66 228.75C84.18 229.41 134.32 310.35 133.5 312C132.67 313.65 172.81 361.24 179.62 368.25C186.43 375.26 193.35 393 195 393C196.65 393 203.46 387.94 210.14 381.75C216.81 375.56 222.21 368.81 222.14 366.75C222.06 364.69 219.64 362.49 216.75 361.87C213.38 361.14 207.88 351.75 201.38 335.62C195.81 321.8 163.61 255.42 159.32 246.76C155.02 238.1 150.49 231.01 149.25 231.01C148.01 231 147.04 229.31 147.1 227.25C147.15 225.19 144.41 220.8 141 217.5C137.59 214.2 134.85 210.49 134.9 209.25C134.96 208.01 130.95 200.92 126 193.5C121.05 186.07 117.02 178.99 117.05 177.75C117.07 176.51 111.59 170.1 104.86 163.5C93.89 152.73 90.89 151.41 75.57 150.59C66.18 150.1 55.46 149.08 51.75 148.34C48.04 147.6 41.53 141.94 37.29 135.75C32.7 129.05 30.21 122.07 31.12 118.5C31.96 115.2 37.12 110.24 42.58 107.47C48.03 104.71 112.09 42.26 117.09 35.25C122.08 28.24 126.08 20.47 125.97 18C125.85 15.52 129.53 11.68 134.13 9.46C138.76 7.22 146.18 6.21 150.75 7.21C155.29 8.19 162.31 12.04 166.36 15.75C172.49 21.37 311.02 287.02 313.5 289.5C315.97 291.97 317.32 295.35 316.5 297C315.67 298.65 316.35 300 318 300C319.65 300 321.65 292.24 322.45 282.75C323.25 273.26 322.92 242.55 321.7 214.5C320.49 186.45 320.17 158.83 321 153.13C322.2 144.8 326.34 139.61 342 126.82C352.72 118.05 428.92 67.96 438 60.81C447.07 53.67 458.55 44.08 463.5 39.5C468.45 34.92 524.92 3.26 550.5 2.86ZM298.89 362.25C297.85 365.96 294.97 369.67 292.5 370.5C290.02 371.32 254.15 401.59 248.06 410.25C241.27 419.92 237 429.47 237 435C237 439.95 235.65 444 234 444C232.35 444 238.72 645.43 242.25 646.3C245.14 647.02 258.3 647.88 271.5 648.21C284.7 648.53 298.87 648.65 303 648.45C307.12 648.26 313.02 646.39 316.1 644.3C321.33 640.75 321.77 634.39 322.65 549C323.17 498.67 324.52 443.32 325.66 426C326.79 408.67 327.69 391.8 327.67 388.5C327.64 385.2 326.46 374.72 325.06 365.22C323.65 355.71 321.15 347.79 319.5 347.61C317.85 347.43 315.49 347.45 314.25 347.64C313.01 347.84 312.65 345.97 313.45 343.5C314.24 341.02 314.32 339 313.62 339C312.92 339 309.75 342.71 306.57 347.25C303.39 351.79 299.94 358.54 298.89 362.25ZM656.25 159.1C660.81 159.03 664.46 161.92 667.5 168C669.97 172.95 672.04 177.34 672.09 177.75C672.14 178.16 669.78 181.36 666.84 184.85C662.06 190.53 661.5 198.43 661.5 260.71C661.5 310.21 700.42 600.22 698.6 606C696.79 611.77 690.39 621.58 684.4 627.8C678.4 634.01 671.81 639.07 669.75 639.05C667.69 639.02 661.61 643.74 656.25 649.53C650.89 655.32 644.81 660.05 642.75 660.03C640.69 660.01 630.56 668.15 620.25 678.1C609.94 688.06 599.47 696.1 597 695.97C594.52 695.84 590.47 697.88 588 700.5C585.52 703.12 580.46 705.21 576.75 705.13C572.23 705.04 568.95 702.28 566.81 696.75C565.05 692.21 560.31 685.12 556.27 681C552.23 676.87 547.62 668.1 546.03 661.5C544.44 654.9 543.12 643.42 543.09 636C543.06 628.57 540.23 606.97 536.8 588C533.37 569.02 531.27 548.77 532.14 543C533.01 537.22 532.47 531.15 530.93 529.5C529.33 527.77 527.91 474.97 527.61 405C527.27 329.33 528.3 275.58 530.34 262.5C532.14 250.95 536.06 237.15 539.06 231.84C542.39 225.92 555.55 214.88 573 203.37C588.67 193.03 612.3 178.86 625.5 171.89C638.7 164.92 652.54 159.16 656.25 159.1Z" />
</svg>