<svg xmlns="http://www.w3.org/2000/svg" viewBox="0 0 729 969" width="729" height="969">
	<style>
		tspan { white-space:pre }
		.shp0 { fill: #000000 } 
	</style>
	<path id="L" class="shp0" d="M642.7 3.78C641.12 5.83 638.83 11.55 637.62 16.5C636.4 21.45 630.23 30.22 623.91 36C617.59 41.77 605.23 52.39 596.46 59.59C587.68 66.79 572.4 78.58 562.5 85.81C552.6 93.03 510.75 115.48 502.5 117.93C494.25 120.38 480.75 124 472.5 125.98C464.25 127.97 455.47 130.29 453 131.15C450.52 132 440.4 132.44 430.5 132.11C420.6 131.78 411.15 130.42 409.5 129.1C407.85 127.78 399.75 125.23 391.5 123.44C383.25 121.65 368.75 116.43 359.27 111.84C349.8 107.25 201.29 7.5 174.6 7.5L136.5 7.5C83.02 34.71 64.94 44.83 61.82 47.55C58.69 50.27 49.92 55.36 42.32 58.84C34.72 62.33 22.09 70.77 14.25 77.59C6.14 84.66 0 92.58 0 96C0 99.3 0.67 104.02 1.5 106.5C2.59 109.78 7.26 110.94 18.75 110.76C27.41 110.63 32.47 109.84 30 108.99C26.84 107.92 29.08 105.18 37.5 99.81C44.38 95.42 55.9 91.46 64.5 90.53C78.63 89 81.04 89.85 106.07 105.2C120.68 114.17 133.96 124.2 135.56 127.5C137.17 130.8 145.97 138.9 155.13 145.5C164.29 152.1 174.98 160.54 178.89 164.25C182.8 167.96 187.35 171 189 171C190.65 171 191.99 172.01 191.99 173.25C191.98 174.49 194.49 176.85 197.57 178.5C200.65 180.15 209.09 185.46 216.33 190.31C223.57 195.15 238.95 204.02 250.5 210.03C262.05 216.03 276.22 221.86 282 222.99C287.77 224.12 306.67 225.19 324 225.36C341.32 225.54 362.25 224.68 370.5 223.45C378.75 222.22 389.21 219.37 393.75 217.11C398.29 214.85 404.36 213.02 407.25 213.04C410.14 213.07 418.91 209.02 426.75 204.04C434.59 199.07 442.69 194.98 444.75 194.96C446.81 194.93 454.57 191.94 462 188.31C469.42 184.68 482.25 177.26 490.5 171.83C498.75 166.41 506.61 161.97 507.96 161.98C509.32 161.99 512.69 159.89 515.46 157.31C518.23 154.73 521.36 153.71 522.42 155.06C523.47 156.4 525.24 187.2 526.35 223.5C527.53 262.09 527.08 305.7 525.27 328.5C523.57 349.95 521.8 380.53 521.34 396.45C520.88 412.38 519.49 424.87 518.25 424.2C517.01 423.54 515.32 425.7 514.5 429C513.5 433 488.89 447.04 481.43 450.75C473.96 454.46 420.9 484.72 411 490.5C401.1 496.27 387.94 502.29 381.75 503.86C375.56 505.43 364.42 510.1 357 514.23C349.57 518.37 310.42 545.36 303 552C293.06 560.9 248.06 581.51 243.07 582.75C238.08 583.99 231.64 587.44 228.75 590.42C225.86 593.4 216.75 598.08 208.5 600.83C200.25 603.58 185.4 611.3 175.5 617.98C165.6 624.66 153.01 633.14 147.53 636.82C142.04 640.49 129.22 649.6 119.03 657.05C108.84 664.49 98.47 674.73 96 679.78C93.52 684.84 86.66 694.95 80.74 702.24C74.82 709.53 66.73 724.27 62.75 735C56.7 751.35 55.56 759.83 55.67 787.5C55.77 811.92 57.13 823.43 60.9 831.75C63.71 837.94 67.35 843 69 843C70.65 843 76.54 850.09 82.1 858.75C87.65 867.41 105.43 889.35 121.6 907.5C137.78 925.65 155.84 944.14 161.75 948.59C167.66 953.04 176.21 959.45 180.75 962.84C185.29 966.23 190.69 968.97 192.75 968.93C194.81 968.88 202.91 964.16 210.75 958.43C218.59 952.69 227.29 944.29 230.1 939.75C232.9 935.21 246.06 921.09 259.35 908.37C272.63 895.66 285.52 885.14 288 885.01C290.47 884.87 295.23 881.78 298.57 878.13C301.91 874.48 306.15 868.8 307.99 865.5C310.68 860.67 262.2 820.2 249 807C235.8 793.8 225.01 780.64 225.03 777.75C225.05 774.86 202.34 722.77 203.59 717C204.84 711.22 201.74 686.18 209.57 673.5C214.66 665.25 240.9 635.26 247.5 630.79C254.1 626.32 266.92 616.36 276 608.64C285.07 600.93 301.27 589.09 312 582.34C322.72 575.58 338.25 566.47 346.5 562.09C354.75 557.71 362.85 552.35 364.5 550.19C366.15 548.02 382.01 538.1 399.75 528.13C417.49 518.16 432.67 510 433.5 510C434.32 510 446.81 504.38 461.25 497.52C475.69 490.65 488.85 484.83 490.5 484.58C492.15 484.34 496.54 483.2 500.25 482.07C503.96 480.93 508.35 477.3 510 474C511.65 470.7 514.35 468 516 468C517.65 468 519.83 472.39 520.84 477.75C521.86 483.11 523.19 502.35 523.8 520.5C524.41 538.65 524.95 554.85 524.99 556.5C525.03 558.15 524.14 579.75 523.01 604.5C521 648.52 548.04 729.9 554.53 736.5C561.02 743.1 572.89 752.98 580.91 758.45L595.5 768.4C611.77 760.39 657.62 728.89 669.38 717.75C681.14 706.61 692.86 695.47 695.43 693C698 690.52 705.26 686.14 711.55 683.25C717.85 680.36 723 676.65 723 675C723 673.35 724.35 672.67 726 673.5C727.84 674.42 728.71 669.48 728.25 660.75C727.58 648.02 726.7 646.41 720 645.65C715.87 645.18 707.48 639.78 701.35 633.65C695.21 627.52 686.73 618.45 682.49 613.5C678.26 608.55 674.84 602.14 674.9 599.25C674.95 596.36 653.15 461.47 653.35 426C653.59 383.8 654.96 310.8 655.47 274.5C655.99 238.2 656.51 205.12 656.64 201C656.77 196.87 658.86 111.47 660.52 94.5C661.81 81.3 663.24 56.1 663.68 38.49C664.13 20.89 663.82 5.89 663 5.16C662.17 4.44 657.91 2.99 653.53 1.95C648.66 0.79 644.45 1.5 642.7 3.78Z" />
</svg>