<svg xmlns="http://www.w3.org/2000/svg" viewBox="0 0 501 840" width="501" height="840">
	<style>
		tspan { white-space:pre }
		.shp0 { fill: #000000 } 
	</style>
	<path id="m-" fill-rule="evenodd" class="shp0" d="M189 1.86C194.77 2.78 199.89 3.75 200.38 4.02C200.86 4.28 202.11 13.27 203.17 24C204.22 34.72 205.1 47.55 205.13 52.5C205.15 57.45 204.1 71.62 202.8 84C201.5 96.37 194.6 135.45 193.78 163.5C192.97 191.55 192.18 231.37 192.03 252C191.89 272.62 192.98 307.05 194.45 328.5C195.92 349.95 198.67 371.21 200.56 375.75C202.45 380.29 204 390.07 204 397.5C204 410.88 204.12 411.03 216.75 414.23C223.76 416 240.3 417.21 253.5 416.9C266.7 416.6 284.25 417.09 292.5 418.01C300.75 418.92 320.32 420.34 336 421.16C351.67 421.98 374.96 425.43 387.75 428.83C400.54 432.22 416.4 437.7 423 441C429.6 444.3 440.06 452.45 446.25 459.12C452.44 465.79 495.35 527.25 496.99 535.5C498.63 543.75 499.51 566.02 498.93 585C498.27 606.7 496.09 624.51 493.04 633C490.38 640.42 485.22 650.55 481.57 655.5C477.93 660.45 451.35 706.84 447.67 707.25C444 707.66 410.59 741.9 402.75 746.67C394.91 751.45 386.14 758.87 383.25 763.17C380.36 767.48 304.12 807.7 300 811.41C294.36 816.49 204.65 835.5 157.5 837.42C98.36 839.83 80.14 828.02 77.25 826.95C74.36 825.88 71.93 822.64 71.83 819.75C71.74 816.86 71.42 797.62 71.12 777C70.82 756.37 71.84 713.17 73.4 681C74.97 648.82 76.22 614.4 76.2 604.5C76.18 594.6 69.25 371.32 68.04 354C66.82 336.67 64.43 305.62 62.72 285C61.02 264.37 57.35 239.63 54.56 230.02C51.02 217.77 46.12 209.23 38.2 201.52C31.99 195.46 26.88 189.15 26.84 187.5C26.81 185.85 21.43 178.76 14.89 171.75C8.35 164.74 2.32 155.62 1.5 151.5C0.26 145.28 3.57 140.55 20.91 123.75C32.4 112.61 48.94 99.06 57.66 93.64C66.37 88.21 79.57 78.01 87 70.96C94.42 63.91 152.92 20.97 162 13.59C176.41 1.88 179.83 0.39 189 1.86ZM201 546C201.03 570.41 203.13 588.97 205.68 603C208.24 617.02 213.76 637.27 217.96 648C222.16 658.72 226.77 669.52 228.21 672C229.66 674.47 233.23 681.09 236.17 686.7C239.21 692.51 248.59 701.45 258 707.49C274.04 717.79 275.09 718.04 295.5 716.12C307.05 715.03 324.6 711.29 334.5 707.81C344.4 704.33 354.52 699.73 357 697.59C359.47 695.45 366.9 690.95 373.5 687.59C380.1 684.23 409.3 648.45 412.36 643.5C417.35 635.41 417.49 633.46 413.71 624.24C411.39 618.6 406.18 611.85 402.12 609.24C398.06 606.63 388.57 598.42 381.05 591C372.08 582.16 359.61 574.25 344.93 568.09C332.59 562.91 315.07 557.78 306 556.67C296.92 555.57 281.4 552.84 271.5 550.6C261.6 548.36 248.77 545.99 243 545.33C237.22 544.67 225.41 544.55 216.75 545.07L201 546Z" />
</svg>