<svg xmlns="http://www.w3.org/2000/svg" viewBox="0 0 444 891" width="444" height="891">
	<style>
		tspan { white-space:pre }
		.shp0 { fill: #000000 } 
	</style>
	<path id="N" class="shp0" d="M155.91 2.79C150.09 4.11 143.83 7.06 142 9.34C140.18 11.63 132.79 16.14 125.59 19.37C118.39 22.6 109.12 28.95 105 33.5C100.87 38.04 91.38 44.85 83.91 48.63C76.21 52.52 62.22 64.6 51.62 76.5C41.34 88.05 29.5 116.92 25.29 126C21.08 135.07 16.25 147.9 14.55 154.5C12.84 161.1 9.62 175.95 7.38 187.5C5.11 199.22 2.44 241.63 1.33 283.5C-0.15 339.38 0.3 361.94 3.08 372C5.14 379.42 8.09 409.12 9.66 438C11.22 466.87 12.85 501.97 13.27 516C13.69 530.02 15.12 596.17 16.43 663C17.74 729.82 18.97 803.92 19.16 827.66L19.5 870.81L19.5 888C49.72 877.83 120.93 837.37 136.49 825C152.05 812.62 174.02 797.77 185.31 792C196.61 786.22 286.2 726.9 289.5 725.47C292.87 724 297.69 716.65 300.49 708.68C305.37 694.83 305.33 694.34 298.99 687.64C293.76 682.11 287.26 680.17 265.5 677.65C246.55 675.46 233.58 675.48 222 677.72C212.92 679.48 202.8 680.17 199.5 679.26C196.2 678.35 188.1 679.54 181.5 681.9C174.9 684.26 167.47 687.06 165 688.13C161.05 689.83 160.41 676.16 159.77 576.78C159.37 514.48 160.18 454.72 161.58 444C163.1 432.32 162.85 409.46 160.96 387C159.22 366.37 157.76 340.05 157.72 328.5C157.68 316.95 158.15 295.35 158.78 280.5C159.41 265.65 158.83 236.62 157.5 216C156.16 195.37 155.96 174.79 157.04 170.25C158.12 165.71 160.69 161.97 162.75 161.94C164.81 161.9 280.2 271.47 283.5 275.78C286.8 280.1 298.95 293.42 310.5 305.38C322.05 317.35 333.86 327.11 336.75 327.07C339.64 327.03 347.4 323.62 354 319.5C360.6 315.37 372.41 303.71 380.25 293.57C388.09 283.44 399 270.95 404.51 265.82C410.01 260.7 421.15 250.09 429.26 242.25C439.18 232.66 444 225.55 444 220.5C444 216.37 442.21 208.61 440.03 203.25C437.84 197.89 433.45 190.25 430.28 186.28C427.1 182.31 419.82 173.53 414.11 166.78C408.39 160.03 395.17 145.05 384.72 133.5C374.26 121.95 364.09 110.78 362.11 108.67C360.12 106.56 350.4 97.7 340.5 88.99C330.6 80.28 317.77 69.92 312 65.97C306.22 62.02 194.4 2.84 184.5 1.97C174.6 1.1 161.74 1.47 155.91 2.79Z" />
</svg>