<svg xmlns="http://www.w3.org/2000/svg" viewBox="0 0 822 846" width="822" height="846">
	<style>
		tspan { white-space:pre }
		.shp0 { fill: #000000 } 
	</style>
	<path id="o-" class="shp0" d="M385.5 4.8C375.6 7.24 364.46 11.21 360.75 13.62C357.04 16.03 352.31 17.99 350.25 17.98C348.19 17.97 336.37 24.22 324 31.87C311.62 39.52 295.99 50.67 289.26 56.64C282.52 62.61 187.41 131.55 181.06 136.5C174.7 141.45 168.91 146.85 168.19 148.5C167.47 150.15 153.97 164.14 138.19 179.59C122.41 195.05 107.14 208.88 104.25 210.34C101.36 211.8 91.57 222.45 82.5 234C73.42 245.55 36.18 296.55 32.48 301.5C26.71 309.22 25.4 316.05 23.31 349.5C21.97 370.95 25.79 509.25 28.41 517.5C31.02 525.75 35.19 550.05 37.67 571.5C40.15 592.95 42.8 632.77 43.58 660C44.44 690.4 43.71 715.29 41.68 724.5C39.86 732.75 35.66 748.27 32.33 759C29.01 769.72 24.46 780.52 22.22 783C19.98 785.47 18.12 789.19 18.08 791.25C18.03 793.31 13.95 801.07 9 808.5C1 820.5 0.33 823.17 3 832.5C5.6 841.59 7.51 843.22 17.25 844.67C23.44 845.59 32.21 844.92 36.75 843.17C41.29 841.43 44.97 838.31 44.94 836.25C44.9 834.19 49.29 830.13 54.69 827.24C60.08 824.35 71.92 815.84 81 808.34C90.07 800.83 100.2 792.22 103.5 789.19C106.8 786.17 197.82 684.07 201.76 675C207.99 660.69 208.71 655.52 207.17 636C206.2 623.62 196.94 371.32 195.97 354C195 336.67 202.88 250.91 205.18 242.25C207.48 233.59 211.66 220.42 214.47 213C217.59 204.77 225.75 193.65 235.38 184.5C244.06 176.25 256.42 167.76 262.84 165.63C269.25 163.5 291.04 160.46 311.25 158.88C331.46 157.29 351.04 154.44 354.75 152.54C358.46 150.64 369.6 149.12 379.5 149.17C389.4 149.22 421.8 149.8 451.5 150.46C496.47 151.46 549.41 174.94 557.25 179.76C565.09 184.58 575.39 194.36 580.13 201.51C585.12 209.01 589.17 219.57 589.71 226.5C590.22 233.1 591.35 247.27 592.22 258C593.08 268.72 592.5 288.97 590.93 303C589.36 317.02 587.63 638.85 588.68 640.5C589.73 642.15 592.08 656.32 593.91 672C595.74 687.67 600.04 709.95 603.46 721.5C606.89 733.05 611.8 748.57 614.38 756C616.96 763.42 621.87 771.64 625.29 774.26C628.7 776.87 635.55 787.93 640.5 798.84C647.45 814.15 651.21 819.02 657 820.2C661.12 821.04 675.3 820.55 688.5 819.1C701.7 817.65 716.55 815.49 721.5 814.31C726.45 813.12 741.3 807.07 754.5 800.85C767.7 794.63 785.21 785.04 793.41 779.52C801.62 774.01 811.38 764.1 815.11 757.5C818.85 750.9 821.92 741.11 821.95 735.75C821.99 728.22 819.95 724.63 813 720C808.05 716.7 801.64 713.96 798.75 713.91C795.86 713.86 786.75 709.97 778.5 705.26C769.48 700.11 758.8 690.28 751.72 680.6C745.24 671.74 737.32 657.75 734.12 649.5C729.22 636.83 728.19 625.4 727.5 576C727.06 543.82 727.88 499.27 729.34 477C730.8 454.72 732.64 416.25 733.43 391.5C734.23 366.75 735.66 335.02 736.61 321C737.56 306.97 739.61 289.76 741.17 282.75C742.73 275.74 743.4 268.99 742.66 267.75C741.92 266.51 742.72 247.95 744.44 226.5C746.16 205.05 747.42 170.62 747.24 150C747 122.35 745.51 108.56 741.58 97.5C738.64 89.25 734.06 78.45 731.39 73.5C728.72 68.55 722.34 60.45 717.2 55.5C712.07 50.55 701.02 37.23 692.32 33.24C681.76 28.38 667.53 25.16 649.5 23.55C634.65 22.21 609.67 19.65 594 17.86C578.32 16.07 552 12.57 535.5 10.09C519 7.61 485.25 5.12 460.5 4.57C435.75 4.01 412.8 2.84 409.5 1.96C406.2 1.08 395.4 2.36 385.5 4.8Z" />
</svg>