<svg xmlns="http://www.w3.org/2000/svg" viewBox="0 0 786 882" width="786" height="882">
	<style>
		tspan { white-space:pre }
		.shp0 { fill: #000000 } 
	</style>
	<path id="O" fill-rule="evenodd" class="shp0" d="M488.17 4.25C495.55 6.5 506.53 15.79 523.91 34.5C537.71 49.35 550.41 62.85 552.15 64.5C553.88 66.15 557.18 69.52 559.47 72C561.76 74.47 569.45 83.75 576.57 92.61C583.68 101.47 591.14 111.6 593.15 115.11C595.15 118.63 605.06 130.27 615.16 141C625.26 151.72 635.62 164.55 638.18 169.5C640.74 174.45 643.79 179.17 644.95 180C646.11 180.82 651.68 188.25 657.32 196.5C662.97 204.75 669.83 216.22 672.57 222C675.31 227.77 679.68 237.56 682.28 243.75C685.13 250.55 699.92 431.4 700.7 454.5C701.48 477.6 701.98 512.02 701.81 531C701.64 549.97 701.35 579.67 701.15 597C700.96 614.32 701.84 638.62 703.11 651C704.38 663.37 707.01 675.87 708.96 678.76C711.47 682.5 719.45 684.93 736.5 687.15C749.7 688.86 763.54 690.88 767.25 691.63C771.61 692.52 775.62 696.98 778.57 704.25C781.09 710.44 783.13 718.2 783.1 721.5C783.07 724.8 780.33 732.9 777 739.5C773.67 746.1 648.75 872.04 640.5 875.88C629.52 880.99 622.68 882.36 615 880.98C609.22 879.94 602.2 876.03 599.39 872.29C596.58 868.56 592.11 859.42 589.44 852C586.78 844.57 581.84 832.42 578.45 825C573.61 814.37 572.36 805.75 572.58 784.5C572.73 769.65 574.24 750.07 575.94 741C577.64 731.92 578.99 692.77 578.94 654C578.89 615.22 578.48 578.1 578.03 571.5C577.58 564.9 576.94 534.19 576.61 503.25C576.03 449.76 575.71 446.93 570 445.5C566.37 444.59 555.43 448.79 542.25 456.16C530.29 462.85 516.45 469.52 511.5 470.98C506.55 472.44 469.76 485.91 462.75 489.14C455.74 492.36 448.99 494.96 447.75 494.91C446.51 494.86 406.42 517.09 399 519.26C391.11 521.55 357.79 546.51 332.25 556.38C312.86 563.87 296.32 570 295.5 570C294.67 570 288.26 572.55 281.25 575.67C274.24 578.78 259.72 584.73 249 588.88C238.27 593.02 224.1 598.06 217.5 600.07C210.9 602.08 198.07 608.55 189 614.45C179.92 620.35 170.86 627.28 168.85 629.84C166.56 632.76 165.16 645.45 165.1 663.75C165.04 679.84 162.3 709.87 159 730.5C155.7 751.12 151.65 770.7 150 774C148.35 777.3 147 782.7 147 786C147 789.3 139.24 799.91 129.75 809.58C116.53 823.05 108.64 828.39 96 832.41C86.92 835.3 66 838.71 49.5 839.98C33 841.26 16.8 841.31 13.5 840.09C9.69 838.68 6.22 833.06 3.99 824.68C1.23 814.28 1.33 808.33 4.49 796.5C6.69 788.25 10 770.02 11.84 756C13.68 741.97 15.75 725.77 16.44 720C17.13 714.22 22.32 351.68 35.47 337.5C43.12 329.25 50.76 321.96 52.44 321.3C54.12 320.64 56.17 319.2 57 318.1C57.82 317 212.55 186.3 217.5 184.22C222.45 182.15 286.74 132.07 291.97 126.66C297.21 121.25 302.51 116.86 303.75 116.91C304.99 116.96 437.75 26.1 445.41 19.5C453.06 12.9 463.42 6.04 468.42 4.25C474.96 1.91 480.52 1.91 488.17 4.25ZM307.5 157.24C302.55 159.54 292.76 166.95 285.75 173.71C278.74 180.47 267.4 189.71 260.55 194.25C253.7 198.79 246.05 203.85 243.54 205.5C241.03 207.15 236.29 210.52 233.02 213C229.74 215.47 221.73 222.22 215.21 228C208.69 233.77 199.99 245.92 195.88 255C191.77 264.07 186.68 276.9 184.57 283.5C182.46 290.1 178.62 307.65 176.04 322.5C173.45 337.35 170.51 359.62 169.5 372C168.49 384.37 167.06 400.24 166.33 407.25C165.6 414.26 165.67 420 166.5 420C167.32 420 176.1 415.95 186 411C195.9 406.05 222.56 395.91 245.25 388.46C267.94 381.02 295.95 371.39 307.5 367.08C319.05 362.76 336.94 355.35 347.25 350.61C357.56 345.88 367.69 341.97 369.75 341.92C371.81 341.88 375.52 340.11 378 337.98C380.47 335.85 393.3 330.97 406.5 327.14C419.7 323.3 446.7 312.05 466.5 302.14C486.3 292.22 505.53 282.62 509.23 280.8C512.93 278.99 516 276.82 516.07 276C516.13 275.17 507.33 264.37 496.52 252C485.7 239.62 472.42 226.8 467 223.5C461.58 220.2 450.61 212.1 442.62 205.5C434.63 198.9 422.55 188.44 415.79 182.25C409.03 176.06 402.49 171 401.25 171C400.01 171 391.3 164.25 381.9 156C372.49 147.75 363.04 141 360.9 141C358.75 141 353.12 139.08 348.37 136.74C340.14 132.67 339.2 132.96 328.12 142.78C321.73 148.44 312.45 154.95 307.5 157.24ZM516 314.1C510.22 316.5 499.76 321.06 492.75 324.23C485.74 327.41 436.72 346.73 426 351.73C415.27 356.74 402.45 362.91 397.5 365.44C392.55 367.98 387.82 370.83 387 371.78C386.17 372.73 317.02 399.53 303 407C288.97 414.47 220.8 451.12 217.5 452.07C214.2 453.02 203.4 457.5 193.5 462.02C183.6 466.54 173.14 471.09 170.25 472.12C165.54 473.81 164.99 479.15 164.92 524.25C164.87 551.89 165.55 575.51 166.42 576.75C167.29 577.99 171.71 577.48 176.25 575.63C180.79 573.77 237.11 556.03 248.25 549.95C259.39 543.88 281.32 532.27 297 524.17C312.67 516.06 327.52 507.61 330 505.4C332.47 503.18 341.25 498.44 349.5 494.87C357.75 491.3 374.29 483.79 386.25 478.19C398.21 472.58 409.35 468 411 468C412.65 468 416.36 466.68 419.25 465.06C422.14 463.45 435.97 457.87 450 452.67C464.02 447.47 477.52 441.7 480 439.86C482.47 438.01 487.54 434.81 491.25 432.75C494.96 430.69 499.35 429 501 429C502.65 429 509.06 426.86 515.25 424.25C521.44 421.64 531.22 417.48 537 415.01C542.77 412.55 553.24 407.26 560.25 403.26L573 396C565.63 366.94 559.85 347.02 555.4 333C549.06 312.99 546.04 307.38 541.41 306.93C538.16 306.62 533.47 307.12 531 308.05C528.52 308.97 521.77 311.7 516 314.1Z" />
</svg>