<svg xmlns="http://www.w3.org/2000/svg" viewBox="0 0 765 876" width="765" height="876">
	<style>
		tspan { white-space:pre }
		.shp0 { fill: #000000 } 
	</style>
	<path id="P" fill-rule="evenodd" class="shp0" d="M94.5 0.22C96.15 -0.05 101.96 4.18 107.42 9.62C112.87 15.05 121.83 27.6 127.33 37.5C132.83 47.4 139.16 57.25 141.41 59.38C144.44 62.27 153.05 62.85 174.75 61.63C190.84 60.74 212.44 61.29 222.75 62.86C233.06 64.44 254.32 66.38 270 67.17C285.67 67.97 316.72 67.31 339 65.71C361.27 64.12 386.92 62.11 396 61.26C409.28 60.02 413.54 60.77 417.85 65.11C420.79 68.07 433.37 87.54 432.27 124.82C431.6 147.74 431.07 184.05 431.1 205.5C431.14 226.95 432.65 253.27 434.47 264C436.29 274.72 438.17 301.51 438.64 323.51C439.11 345.52 440.85 364.81 442.5 366.38C444.15 367.95 452.92 368.48 462 367.57C471.07 366.65 489.3 364.82 502.5 363.5C515.7 362.18 527.85 361.86 529.5 362.8C531.15 363.73 540.6 366.08 550.5 368.02C560.4 369.96 575.92 373.13 585 375.07C594.07 377 606.56 381.16 612.75 384.29C618.94 387.43 626.3 393.71 629.1 398.25C631.91 402.79 639.67 412.64 646.35 420.15C653.03 427.66 661.21 437.11 664.52 441.15C667.83 445.19 674.95 455.25 680.33 463.5C685.72 471.75 707.88 522.97 712.2 537C716.52 551.02 722.04 573.3 724.48 586.5C726.91 599.7 730.2 617.92 731.8 627C733.39 636.07 736.11 657.67 737.83 675C739.55 692.32 740.93 717.97 740.9 732C740.86 749.85 742.11 758.85 745.07 762C747.39 764.47 750.27 769.87 751.46 774C752.65 778.12 755.3 784.2 757.35 787.5C759.4 790.8 761.8 797.55 762.68 802.5C763.57 807.45 762.43 817.24 760.15 824.25C756.76 834.66 644.59 868.67 636.75 867.05C628.91 865.42 618.79 860.7 614.25 856.55C609.19 851.91 605.95 845.81 605.88 840.75C605.82 836.21 603.74 831.15 601.26 829.5C598.78 827.85 595.55 821.77 594.08 816C592.61 810.22 589.36 798.07 586.86 789C584.35 779.86 580.89 746.4 579.1 714C577.33 681.82 575.34 635.25 574.68 610.5C574.03 585.75 571.18 553.35 568.35 538.5C564.36 517.5 560.81 507.98 552.36 495.66C542.47 481.24 502.17 468.13 489 466.74C478.27 465.62 464.1 465.53 445.5 468.43L442.88 509.47C441.43 532.03 440.08 569.19 439.88 592.02C439.67 614.86 434.81 729.9 434.35 736.5C433.6 747.01 434.34 748.59 440.25 749.25C443.96 749.66 451.05 747.3 456 744C460.95 740.7 469.72 738 475.5 738C481.27 738 488.22 739.01 490.92 740.25C493.63 741.49 497.68 746.21 499.92 750.75C503.21 757.41 503.32 762.04 500.47 774.75C498.53 783.41 493.47 795.77 489.22 802.22C483.85 810.36 473.73 818.36 456 828.48C441.97 836.47 427.12 844.51 423 846.33C418.87 848.15 356.59 871.36 348.75 873.02C340.55 874.75 330.68 874.97 325.5 873.53C320.4 872.12 314.29 867.24 311.4 862.27C307.31 855.22 306.01 842.88 304.78 799.5C303.94 769.8 301.71 736.05 299.82 724.5C297.93 712.95 295.87 665.02 295.23 618C294.59 570.97 293.58 529.12 293 525C292.42 520.87 291.73 509.4 291 481.5C291 481.5 146.14 437.84 143.25 437.9C140.36 437.95 133.87 432.94 128.83 426.75C123.78 420.56 115.81 411.45 111.11 406.5C103.66 398.66 101.95 393.25 97.82 364.5C95.22 346.35 84.14 189.07 84.14 163.5L74.32 165.81C68.78 167.12 54.05 166.54 40.5 164.47C22.38 161.71 14.38 158.94 7.83 153.16C-0.3 145.97 -0.75 144.39 0.57 127.5C1.5 115.72 48.44 36.1 58.14 24.89C68.37 13.06 79.07 3.7 83.64 2.6C87.96 1.56 92.85 0.49 94.5 0.22ZM262.51 152.65C255.42 152.86 248.45 155.14 245.44 158.25C241.57 162.26 240 170.97 238.84 195C238 212.32 236.34 243.37 235.14 264C233.16 297.88 239.47 351.25 244.5 351.18C247.8 351.13 255.22 352.78 261 354.85C266.77 356.91 276.22 360.94 282 363.79C287.77 366.65 292.8 368.65 293.17 368.24C293.54 367.83 295.06 341.17 296.54 309C298.03 276.82 299.08 227.67 298.88 199.76C298.65 168.68 297.34 148.78 295.5 148.39C293.85 148.04 288.45 148.77 283.5 150.02C278.55 151.27 269.1 152.45 262.51 152.65Z" />
</svg>