<svg xmlns="http://www.w3.org/2000/svg" viewBox="0 0 750 951" width="750" height="951">
	<style>
		tspan { white-space:pre }
		.shp0 { fill: #000000 } 
	</style>
	<path id="Q" fill-rule="evenodd" class="shp0" d="M726.75 0.4C729.64 0.18 734.7 1.35 738 3C742.04 5.02 744.57 10.16 745.75 18.75C746.72 25.76 746.32 36.22 744.86 42C743.29 48.23 610.57 136.42 601.5 145.5C592.42 154.57 585.03 163.01 585.06 164.25C585.09 165.49 582.73 169.28 579.81 172.68C576.89 176.09 571.46 184.52 567.75 191.43C564.04 198.35 561.02 205.69 561.04 207.75C561.07 209.81 557.69 219.94 553.54 230.25C549.39 240.56 543.3 261.82 540 277.5C536.7 293.17 534.67 307.35 535.5 309C536.32 310.65 535.65 312.67 534 313.5C532.35 314.32 531 318.37 531 322.5C531 326.62 528.14 341.81 524.63 356.25C521.13 370.69 514.36 390.6 509.57 400.5C504.79 410.4 500.93 419.85 500.99 421.5C501.06 423.15 496.33 429.22 490.5 435C484.67 440.77 479.92 446.51 479.95 447.75C479.98 448.99 482.31 451.01 485.14 452.25C487.97 453.49 494.38 458.31 499.39 462.97C504.4 467.63 515.58 478.43 524.24 486.97C532.89 495.51 571.15 546.9 573.86 553.5C576.57 560.1 579.62 572.25 580.64 580.5C581.65 588.75 583.71 599.55 585.21 604.5C586.72 609.45 588.53 629.7 589.24 649.5C589.95 669.3 592.12 692.92 594.06 702C596 711.07 600.16 722.21 603.3 726.75C606.43 731.29 609.04 736.69 609.09 738.75C609.15 740.81 613.62 747.9 619.04 754.5C625.59 762.49 714.22 798.09 720 798.01C725.77 797.93 734.89 799.93 740.25 802.44C748.86 806.47 750 808.4 750 819C750 825.6 748.65 831 747 831C745.35 831 744 833.02 744 835.5C744 837.97 741.64 839.96 738.75 839.92C735.86 839.87 616.05 916.79 604.5 925.43C592.95 934.06 578.77 943.52 573 946.44C565.55 950.2 559.01 951.2 550.5 949.89C542.61 948.66 535.14 944.69 528.68 938.26C523.29 932.89 462.85 855.94 460.23 849.75C457.01 842.15 455.05 825.86 454.17 799.5C453.46 778.05 452.54 740.25 452.14 715.5C451.47 674.91 416.67 570.45 413.74 565.5C410.8 560.55 403.92 552.15 398.45 546.83C392.98 541.51 378.71 532.4 366.75 526.58C354.52 520.63 311.64 527.21 307.51 531.75C303.38 536.29 300 540.67 300 541.5C300 542.32 297.52 546.71 294.48 551.25C291.45 555.79 286.13 568.27 282.67 579C279.22 589.72 273.77 608.62 270.58 621C267.39 633.37 262.49 654.3 259.69 667.5C256.9 680.7 253.36 695.55 251.84 700.5C250.32 705.45 249.07 712.87 249.06 717C249.06 721.12 246.82 733.95 244.1 745.5C241.38 757.05 238.17 769.2 236.95 772.5C235.74 775.8 233.23 782.21 231.37 786.75C229.12 792.27 222.79 797.46 212.25 802.44C203.59 806.53 65.47 872.96 63 872.88C60.52 872.8 39.79 884.54 35.25 887.9C30.71 891.25 23.96 894.04 20.25 894.1C16.54 894.15 11.32 891.79 8.65 888.85C5.99 885.91 2.95 879.79 1.9 875.25C0.32 868.38 1.92 865.11 11.46 855.75C17.77 849.56 28.78 833.7 35.94 820.5C43.1 807.3 54.05 789.75 60.27 781.5C66.49 773.25 74.46 760.42 77.97 753C81.49 745.57 126.18 659.1 129.09 652.5C132.01 645.9 138.8 631.05 144.19 619.5C149.58 607.95 154.97 594.45 156.15 589.5C157.34 584.55 162.5 566.32 167.61 549C172.72 531.67 176.97 514.8 177.04 511.5C177.12 507.99 174.03 503.95 169.59 501.75C165.41 499.69 118.99 465.02 117.75 465.05C116.51 465.07 110.58 460.01 104.58 453.8C98.57 447.58 92.68 439.12 91.48 435C90.29 430.87 86.86 422.77 83.86 417C80.86 411.22 76.36 399.75 73.84 391.5C71.33 383.25 50.69 109.76 50.8 102.75C50.92 94.83 54.12 84.26 59.25 74.83C66.41 61.67 131.92 24.91 141 19.94C150.07 14.97 163.24 9.8 170.25 8.45C180.43 6.49 185.57 7.23 195.75 12.1C202.76 15.45 212.55 20.49 217.5 23.3C224.81 27.44 236.64 28.61 280.5 29.52C313.95 30.2 344.77 29.19 361.5 26.84C376.35 24.76 411.45 22.82 439.5 22.53C467.55 22.24 501.97 20.35 516 18.34C530.02 16.32 549.6 13.37 559.5 11.78C569.4 10.2 603.15 9.51 634.5 10.26C684.14 11.45 693.44 10.93 706.5 6.21C714.75 3.24 723.86 0.62 726.75 0.4ZM282 96.86C264.67 98.13 243.07 99.88 234 100.75C224.92 101.62 215.47 103.56 213 105.07C209.51 107.19 207.9 118.39 205.81 155.15C204.34 181.19 203.32 214.99 203.56 230.25C203.91 252.06 205.87 263.62 212.73 284.25C217.53 298.69 226.99 324 233.74 340.5C240.5 357 247.04 371.48 248.27 372.67C249.49 373.87 257.92 377.34 267 380.38C281.34 385.2 288.8 385.64 324 383.76C354.26 382.14 368.48 380 380.25 375.29C388.91 371.83 399.04 367.09 402.75 364.76C406.46 362.42 413.55 354.66 418.5 347.51C423.45 340.35 428.51 334.16 429.75 333.75C430.99 333.34 432 331.65 432 330C432 328.35 435.22 319.91 439.16 311.25C443.09 302.59 448.49 290.1 451.14 283.5C453.8 276.9 457.98 262.72 460.43 252C462.88 241.27 468.83 221.02 473.65 207C478.47 192.97 486.42 172.72 491.32 162C496.22 151.27 503.44 133.05 507.36 121.5C511.29 109.95 516.19 99.49 518.25 98.25C520.31 97.01 522 93.97 522 91.5C522 87.9 517.64 87.02 500.25 87.12C486.28 87.2 299.32 95.59 282 96.86Z" />
</svg>