<svg xmlns="http://www.w3.org/2000/svg" viewBox="0 0 669 777" width="669" height="777">
	<style>
		tspan { white-space:pre }
		.shp0 { fill: #000000 } 
	</style>
	<path id="R" class="shp0" d="M342.9 3.08C341.58 4.28 331.72 8.11 321 11.59C310.27 15.08 297.45 17.87 292.5 17.8C287.55 17.73 237.38 37.38 232.46 40.9C227.53 44.43 216.75 51.01 208.5 55.53C200.25 60.06 186.75 68.95 178.5 75.3C170.25 81.64 162.49 86.87 161.25 86.92C160.01 86.96 156.64 88.96 153.75 91.36C150.86 93.77 141.51 102.54 132.96 110.86C124.42 119.19 115.98 126 114.21 126C112.45 126 100.54 135.69 87.75 147.53C74.96 159.37 54.71 176.25 42.75 185.03C30.79 193.81 21 202.35 21 204C21 205.65 16.91 210.71 11.91 215.25C6.91 219.79 2.8 226.2 2.78 229.5C2.75 232.8 4.48 237.16 6.62 239.2C9.18 241.64 13.96 242.15 20.66 240.7C26.85 239.36 35.15 233.8 41.86 226.5C47.94 219.9 84.56 198.5 99 185.6C110.29 175.5 121.34 168.13 125.25 168.08L132 168C129.2 250.54 128.39 309.6 128.38 352.5C128.37 395.4 129.36 439.95 130.58 451.5C131.8 463.05 133.84 475.2 135.11 478.5C136.39 481.8 143.7 491.25 151.35 499.5C159.01 507.75 166.04 517.2 166.98 520.5C167.92 523.8 183.72 541.05 202.09 558.84C220.47 576.62 237.19 591.14 239.25 591.09C241.31 591.04 243.48 592.69 244.06 594.75C244.64 596.81 249.48 599.17 254.8 600C260.12 600.82 279.52 598.23 282 596.84C284.47 595.44 289.87 591.52 294 588.12C298.12 584.71 309.26 575.19 318.75 566.96C328.24 558.73 390.15 518.28 390.44 510.75C390.82 501.1 389.22 498.1 379.19 489.65C372.76 484.24 363.45 477.77 358.5 475.28C353.55 472.79 344.1 467.5 337.5 463.51C330.9 459.52 295.1 440.2 292.5 435C290.02 430.05 280.78 345.45 280.48 340.5C280.19 335.55 279.13 330.15 278.13 328.5C277.14 326.85 269.34 125.32 271.92 122.38C273.8 120.25 265.88 120.25 291.42 114.36C304.87 111.26 309.52 110.89 319.5 114.15C326.1 116.31 340.61 125.25 351.75 134.04C362.89 142.82 373.69 149.97 375.75 149.92C377.81 149.88 436.5 214.5 436.5 214.5C435.68 319.12 434.5 369.07 433.36 393C432.02 421.1 432.57 447.65 434.9 468C436.89 485.32 439.91 510.3 441.61 523.5C443.3 536.7 445.08 552.22 445.55 558C446.03 563.77 447.39 589.42 448.57 615C449.76 640.57 452.49 667.57 454.64 675C456.8 682.42 457.91 689.85 457.11 691.5C456.31 693.15 457.82 696.52 460.46 699C463.11 701.47 465.21 705.19 465.13 707.25C465.06 709.31 467.36 713.8 470.25 717.21C473.14 720.63 479.55 725.15 484.5 727.25C489.45 729.36 503.62 741.36 516 753.91C535.33 773.53 539.98 776.77 549 776.91C557.38 777.04 609.8 740.83 615 736.5C619.95 732.37 624 728.32 624 727.5C624 726.67 651.91 692.68 654.85 690.13C658.23 687.2 665.66 675.42 667.21 672C668.33 669.52 667.84 663.79 666.12 659.25C664.33 654.52 660.76 651.03 657.75 651.07C654.86 651.11 613.88 595.72 613.03 585C612.18 574.27 594.51 330.64 595.39 311.25C596.28 291.86 595.99 276.55 594.75 277.22C593.51 277.89 592.27 268.1 592 255.47C591.72 242.84 590.86 183.37 589.92 171C588.98 158.62 580.67 117.67 579 118.5C577.35 119.32 530.9 74.73 531 70.5C531.08 67.2 478.12 23.97 474 22.79C469.87 21.6 463.12 19.19 459 17.45C454.87 15.7 448.12 12.54 444 10.43C439.87 8.32 426.37 5.2 414 3.48C401.62 1.77 381.1 0.48 368.4 0.63C355.69 0.78 344.22 1.88 342.9 3.08Z" />
</svg>