<svg xmlns="http://www.w3.org/2000/svg" viewBox="0 0 384 1077" width="384" height="1077">
	<style>
		tspan { white-space:pre }
		.shp0 { fill: #000000 } 
	</style>
	<path id="S" fill-rule="evenodd" class="shp0" d="M375.75 2.14C376.99 2.61 379.43 10.09 381.18 18.75C384 32.72 383.66 35.69 378.15 45C372.32 54.87 368.63 887.18 364.74 891C362.22 893.47 360.13 896.17 360.11 897C360.08 897.82 349.59 909 336.78 921.83C323.98 934.66 306.75 951.86 298.5 960.06C290.25 968.26 281.47 974.94 279 974.89C276.52 974.85 264.04 984.98 251.25 997.41C238.46 1009.83 226.99 1019.94 225.75 1019.87C224.51 1019.79 219.45 1023.71 214.5 1028.57C209.55 1033.43 200.77 1040.18 195 1043.57C189.22 1046.96 178.1 1053.51 170.28 1058.12C162.45 1062.73 155.36 1068.86 154.53 1071.75C153.6 1074.94 150.06 1077 145.5 1077C140.5 1077 137.5 1075 136.5 1071C135.56 1067.23 138.63 1059.94 144.75 1051.41C150.11 1043.94 155.51 1037.87 156.75 1037.91C157.99 1037.96 163.14 1032.26 168.2 1025.25C173.26 1018.24 180.69 1010.81 184.7 1008.75C189.98 1006.04 204.8 980.59 213.1 972.75C223.46 962.98 230.14 941.47 232.58 939C236 935.53 230.47 744.67 229.86 729C229.02 707.53 84.75 499.42 79 492C73.26 484.57 60.89 469.82 51.53 459.2C42.16 448.59 27.41 432.05 18.75 422.45C10.09 412.85 2.14 401.29 1.1 396.75C0.05 392.21 0.73 386.14 2.6 383.25C4.47 380.36 6 375.3 6 372C6 368.7 7.54 362.96 9.42 359.25C11.3 355.54 25.81 339.27 41.67 323.1C57.53 306.93 72.07 290.73 73.99 287.1C75.91 283.47 84.01 275.55 91.99 269.51C99.97 263.46 121.44 243.21 139.69 224.51C157.95 205.8 174.49 187.46 176.44 183.75C178.4 180.04 183.71 175.14 188.25 172.88C192.79 170.61 202.11 161.49 208.96 152.63C215.82 143.76 232.02 125.54 244.96 112.15C257.91 98.76 282.39 75.13 299.36 59.65C316.34 44.17 330.18 29.81 330.11 27.75C330.05 25.69 335.74 19.39 342.75 13.76C349.76 8.14 359.55 3.02 364.5 2.41C369.45 1.79 374.51 1.67 375.75 2.14ZM150.15 249C136.66 263.02 126.07 276.52 126.6 279C127.14 281.47 142.11 307.11 152.25 317.25C159.26 324.26 165 331.35 165 333C165 334.65 170.48 341.74 177.19 348.75C183.89 355.76 192.33 366.59 195.94 372.82C199.55 379.04 204.52 384.11 207 384.09C210.91 384.04 211.15 378.8 208.82 344.27C207.34 322.4 206.09 301.8 206.05 298.5C206 295.2 206.8 285.75 207.82 277.5C208.84 269.25 210.95 259.12 212.5 255C214.06 250.87 215.64 238.72 216.01 228C216.38 217.27 216.53 204.11 216.35 198.75C216.14 192.9 214.43 189 212.08 189C209.92 189 200.62 196.76 191.42 206.25C182.21 215.74 163.64 234.97 150.15 249Z" />
</svg>