<svg xmlns="http://www.w3.org/2000/svg" viewBox="0 0 717 909" width="717" height="909">
	<style>
		tspan { white-space:pre }
		.shp0 { fill: #000000 } 
	</style>
	<path id="T" fill-rule="evenodd" class="shp0" d="M151.5 0.14C156.45 0.11 162.01 1.08 163.85 2.3C165.69 3.51 170.24 10.57 173.95 18C178.15 26.39 181.32 39.45 182.31 52.5C183.19 64.05 182.37 81.6 180.48 91.5C178.59 101.4 174.98 129.07 172.46 153C169.94 176.92 167.35 216.07 166.71 240C166.04 264.78 167.04 292.81 172.5 326.79L187.5 328.66C195.75 329.7 211.27 329.91 222 329.15C232.72 328.38 260.4 325.56 283.5 322.87C306.6 320.19 332.59 316.65 341.25 315C349.91 313.35 358.69 312.77 360.75 313.72C362.81 314.66 366.86 313.31 369.75 310.72C373.69 307.18 375 301.31 375 287.25C374.99 276.94 373.13 257.7 370.85 244.5C368.57 231.3 366.98 207 367.32 190.5C367.73 170.65 369.82 154.92 373.51 144C376.57 134.92 382.15 122.77 385.91 117C389.67 111.22 396.51 101.23 401.12 94.79C405.73 88.35 414.26 78.23 420.07 72.29C425.89 66.36 440.74 54.63 453.07 46.24C468.91 35.46 477.7 31.32 483 32.14C487.12 32.78 492.19 35.93 494.25 39.15C497.06 43.53 498.19 75.46 499.5 287.54L508.5 288.76C513.45 289.43 526.27 288.74 537 287.23C547.72 285.72 558.86 283.25 561.75 281.74C564.64 280.23 580.16 277.15 596.25 274.89C617.4 271.91 630.9 271.56 645 273.63C655.72 275.2 669.22 279.26 675 282.65C680.77 286.03 691.28 293.68 698.35 299.65C707.08 307.02 712.25 314.35 714.45 322.5C716.32 329.41 716.91 343.73 715.85 356.25C714.83 368.21 685.31 451.71 683.25 453.8C681.19 455.9 676.91 462.31 673.75 468.05C670.59 473.8 664.18 482.89 659.5 488.25C654.83 493.61 651 499.01 651 500.25C650.99 501.49 647.96 505.95 644.25 510.17C640.54 514.39 626.13 527.21 612.24 538.67C598.35 550.13 582.15 562.47 576.24 566.1C570.33 569.73 557.4 576.59 547.5 581.35C537.6 586.11 524.44 590.9 518.25 592C509.73 593.52 506.2 596 503.69 602.25C501.47 607.76 500.93 627.91 502.05 663C502.97 691.87 505.23 724.27 507.07 735C509.58 749.57 509.55 759.05 506.94 772.5C504.29 786.13 501.15 792.7 493.97 799.55C488.76 804.53 481.8 812.07 478.5 816.3C475.2 820.54 468.45 826.24 463.5 828.97C458.55 831.7 443.02 838.54 429 844.16C414.97 849.78 351.7 873.76 328.5 871.8C313.65 870.55 291.37 867.62 279 865.3C266.62 862.97 239.62 860.21 219 859.16C196.05 857.99 173.06 858.55 159.75 860.62C147.79 862.48 126.86 867.5 113.25 871.77C93.72 877.91 86.28 881.95 78 890.92C72.22 897.18 64.12 904 60 906.1C53.79 909.25 52.26 909.18 51.08 905.7C50.31 903.39 47.94 899.81 45.83 897.75C42.73 894.72 43.74 891.85 51.07 882.75C56.06 876.56 69.55 861.37 81.04 849C92.53 836.62 105.11 821.77 109 816C112.88 810.22 119.79 801.45 124.34 796.5C128.89 791.55 135.02 782.77 137.96 777C140.89 771.22 147.84 762.15 153.4 756.84C160.06 750.47 167.59 746.61 175.5 745.52C182.1 744.61 203.7 743.25 223.5 742.5C243.3 741.74 268.95 740.38 280.5 739.46C292.05 738.55 308.92 737.3 318 736.68C327.07 736.06 340.28 733.75 347.35 731.53C358.13 728.15 361.22 725.32 366.49 714C371.93 702.31 381.38 455.36 380 453.99C378.63 452.62 339.48 451.09 293 450.58C246.53 450.08 194.32 449.11 177 448.43C159.67 447.75 141.45 445.91 136.5 444.34C131.55 442.77 121.42 440.67 114 439.68C106.57 438.68 94.26 434.86 86.64 431.18C79.02 427.51 64.49 417.07 54.35 408C44.22 398.92 35.94 390.49 35.96 389.25C35.98 388.01 31.54 379.91 26.09 371.25C19.74 361.17 13.54 344.71 8.84 325.5C2.13 298.09 1.53 289.94 1.85 231C2.04 195.52 3.85 146.92 5.87 123C7.89 99.07 11.2 76.65 13.22 73.17C15.25 69.68 21.2 65.97 26.45 64.92C31.7 63.86 44.44 57.07 54.75 49.83C65.06 42.58 82.95 31.54 94.5 25.3C106.05 19.05 121.57 10.85 129 7.06C136.42 3.28 146.55 0.17 151.5 0.14ZM509.12 440.19C505.95 452.9 504.04 472.57 504.03 492.75C504.01 517.14 504.91 524.74 507.75 523.92C509.81 523.32 529.06 502.8 530.03 499.5C531.01 496.2 535.68 489.11 540.4 483.75C545.13 478.39 549.01 470.96 549.03 467.25C549.05 463.54 549.75 455.77 550.59 450C551.75 441.97 550.51 437.61 545.31 431.47C540.81 426.18 534.37 422.84 526.34 421.67L514.19 419.89L509.12 440.19Z" />
</svg>