<svg xmlns="http://www.w3.org/2000/svg" viewBox="0 0 906 915" width="906" height="915">
	<style>
		tspan { white-space:pre }
		.shp0 { fill: #000000 } 
	</style>
	<path id="U" fill-rule="evenodd" class="shp0" d="M276.75 0.21C284.59 0.09 294.71 1.86 299.25 4.14C303.79 6.42 309.19 11.82 311.25 16.14C313.31 20.46 319.75 74.77 319.26 102C318.77 129.22 316.32 167.02 313.8 186C311.29 204.97 310 221.17 310.94 222C311.88 222.82 318.92 224.18 326.58 225C334.23 225.83 385.05 226.38 439.5 226.24C505.72 226.06 549.39 224.57 604.25 217.5L607.74 205.5C609.65 198.9 615.45 185.74 620.61 176.25C625.77 166.76 630 157.65 630 156C630 154.35 633.49 147.94 637.75 141.75C642.01 135.56 648.29 124.42 651.71 117C655.13 109.57 659.74 101.81 661.96 99.75C664.18 97.69 666 94.65 666 93C666 91.35 673.09 82.05 681.75 72.34C690.41 62.63 700.35 51.49 703.83 47.59C707.31 43.69 715.16 37.12 721.26 33C727.36 28.87 733.97 24 735.93 22.17C737.89 20.33 744.9 15.94 751.5 12.4C759.93 7.87 769.3 5.86 783 5.61C793.72 5.42 805.87 6.96 810 9.04C814.12 11.11 819.86 13.3 822.75 13.9C825.64 14.51 830.7 17.7 834 21C837.3 24.3 842.02 27 844.5 27C846.97 27 866.75 48.71 870.1 53.25C873.46 57.79 906.8 148.2 905.1 151.5C903.4 154.8 903 169.72 903 175.5C903 181.27 901.99 186.34 900.75 186.75C899.51 187.16 883.81 231.59 876.09 243.75C869.54 254.06 858.84 267.9 852.31 274.5C845.78 281.1 837.98 288.76 834.97 291.52C831.96 294.28 825.45 298.1 820.5 300C815.55 301.9 804.07 304.83 795 306.5C785.92 308.18 776.81 310.78 774.75 312.28C772.69 313.77 768.64 314.48 765.75 313.85C762.86 313.22 757.12 315.17 753 318.18C746.86 322.67 745.47 326.28 745.31 338.08C745.21 346.01 737.91 453.82 736.5 486C734.93 521.89 746.51 617.99 747.75 618C748.99 618 750 620.02 750 622.5C750 624.97 833.54 699.32 834.24 701.55C835.09 704.29 871.47 707.65 874.17 712.5C876 715.8 878.55 719.17 879.83 720C881.11 720.82 882.96 726.9 883.92 733.5C885.25 742.51 884.44 746.62 880.71 750C877.97 752.47 875.8 755.85 875.88 757.5C875.96 759.15 873.32 762.19 870.01 764.25C866.7 766.31 794.9 863.82 789.08 869.09C783.26 874.37 773.77 879.53 768 880.55C762.22 881.58 749.06 883 738.75 883.71C727.39 884.49 720 883.82 720 882C720 880.35 717.97 879 715.5 879C713.02 879 698.51 863.06 696.3 858.75C694.81 855.86 693.12 852.15 692.55 850.5C691.97 848.85 690.49 847.84 689.25 848.25C688.01 848.66 686.15 845.96 685.12 842.25C684.09 838.54 681.46 833.47 679.3 831C677.13 828.52 670.89 821.16 665.43 814.64C659.97 808.12 648.75 796.08 640.5 787.88C631.43 778.86 621.51 764.57 615.41 751.73C609.86 740.05 603.45 721.72 601.15 711C598.86 700.27 595.73 678 594.19 661.5C592.44 642.72 592.51 593.93 594.37 531C596.01 475.72 598.11 415.65 599.05 397.5C599.98 379.35 600.65 358.42 600.52 351C600.39 343.57 599.47 336.82 598.48 336C597.49 335.17 576.84 336.88 552.59 339.78C527.61 342.78 476 345.73 433.5 346.6C392.25 347.45 348.37 349.53 336 351.23C323.62 352.94 312.15 355.22 310.5 356.32C308.85 357.41 305.12 360.38 302.22 362.9C298.03 366.56 288.99 580.35 290.86 598.5C292.72 616.65 294.23 651.07 294.21 675C294.19 698.92 293.42 725.92 292.49 735C291.56 744.07 289.16 759.42 287.15 769.1C285.14 778.77 281.75 788.22 279.62 790.1C277.48 791.97 275.79 795.19 275.87 797.25C275.94 799.31 268.91 808.75 260.25 818.22C251.59 827.7 234.07 845.58 221.33 857.97C208.59 870.36 180.82 899.1 180 900C179.17 900.9 175.12 903.82 171 906.48C166.87 909.15 158.77 912.3 153 913.5C146.79 914.78 139.74 914.31 135.75 912.33C129.36 909.18 129.1 907.76 130.81 885.75C131.81 872.96 133.49 861.15 134.56 859.5C135.63 857.85 137.42 837.6 138.54 814.5C139.66 791.4 141.89 760.35 143.5 745.5C145.12 730.65 147.75 713.77 149.36 708C150.97 702.22 153.79 684.67 155.64 669C157.49 653.32 159.77 624.97 160.7 606C161.63 587.02 162.86 570.82 163.43 570C164 569.17 164.92 518.55 166.5 346.5L154.5 347.46C147.52 348.02 103.8 350.96 100.5 348.83C97.2 346.7 92.14 344.96 89.25 344.98C86.36 344.99 72.86 339.28 59.25 332.29C45.64 325.29 32.03 316.86 29.02 313.54C26 310.22 18.57 297.37 1.5 262.5L1.5 220.5C1.5 181.61 2.06 177.41 9 163.84C13.69 154.66 26.6 139.87 43.5 124.3C58.35 110.61 74.55 95.97 79.5 91.75C84.45 87.54 97.19 79.68 107.81 74.29C118.44 68.91 129.91 62.26 133.31 59.53C136.72 56.8 145.57 51.7 153 48.2C160.42 44.69 175.95 36.47 187.5 29.93C199.05 23.38 211.54 16.67 215.25 15.01C218.96 13.36 223.69 11.96 225.75 11.92C227.81 11.87 236.92 9.26 246 6.13C255.07 2.99 268.91 0.33 276.75 0.21ZM123.75 164.22C124.38 178.76 125.43 181.61 130.5 182.53C133.8 183.13 138.52 185.47 141 187.74C143.47 190 150.9 192.22 157.5 192.68L169.5 193.5C168.34 158.62 167.38 141.75 166.6 133.5C165.83 125.25 163.47 113.44 161.35 107.25C159.08 100.61 155.56 95.99 152.76 96C150.15 96 145.06 99.04 141.46 102.75C137.68 106.64 123.32 154.24 123.75 164.22ZM737.16 158.62C737.67 174.34 739.12 179.76 744.08 184.5C749.11 189.31 752.55 190.08 761.43 188.37C767.52 187.2 777.56 184.16 783.75 181.62L795 177C775.24 160.18 756.14 135.9 754.49 133.62C751.94 130.12 750.31 130.2 743.99 134.11C737.11 138.36 736.56 140.32 737.16 158.62Z" />
</svg>