<svg xmlns="http://www.w3.org/2000/svg" viewBox="0 0 495 852" width="495" height="852">
	<style>
		tspan { white-space:pre }
		.shp0 { fill: #000000 } 
	</style>
	<path id="v-" fill-rule="evenodd" class="shp0" d="M139.5 0.77C142.8 0.62 148.62 2.75 152.43 5.5C156.24 8.25 159.95 12.86 160.68 15.75C161.41 18.64 165.27 308.92 165.16 318C165.05 327.07 165.76 335.17 166.73 336C167.71 336.82 188.3 337.38 212.5 337.22C236.7 337.07 262.57 335.42 270 333.55C277.42 331.68 305.1 330.11 331.5 330.06C361.6 330.01 389.57 328.21 406.5 325.22C421.35 322.61 442.63 320.25 453.79 319.98C473 319.53 474.47 319.98 481.28 328.5C485.24 333.45 489.67 342.22 491.14 348C492.61 353.77 493.47 380.77 493.06 408C492.65 435.22 492.25 461.21 492.16 465.75C492.07 470.29 492.08 480.41 492.18 488.25C492.27 496.09 491.59 515.32 490.65 531C489.44 551.2 490.04 561.41 492.72 566.06C496.09 571.91 495.55 573.39 487.86 579.56C483.11 583.38 476.36 589.26 472.86 592.63C469.36 596 460.25 605.45 452.6 613.63C444.96 621.81 384.11 666.06 378.75 666.04C371.52 666.01 368.61 664.45 367.5 660C366.67 656.7 364.99 654.01 363.75 654.01C362.51 654.02 360.42 628.71 359.1 597.76C357.77 566.82 356.08 536.1 355.34 529.5C354.59 522.9 352 504 349.57 487.5C347.15 471 343.78 447.04 342.08 434.25C340.39 421.46 337.81 408.64 336.35 405.75C334.76 402.61 328.43 399.63 320.6 398.34C313.39 397.15 291.97 397.53 273 399.18C254.02 400.83 157.14 431.1 156.23 437.11C155.53 441.73 154.86 454.48 154.73 465.46C154.6 476.44 153.49 484.88 152.25 484.21C151.01 483.55 149.21 496.16 148.25 512.25C147.29 528.34 146.69 550.95 146.92 562.5C147.15 574.05 146.48 705.9 144.96 712.5C143.45 719.1 143.13 728.55 144.25 733.5C145.37 738.45 146.45 745.54 146.65 749.25C146.89 754 145.67 755.56 142.5 754.5C139.25 753.41 54.8 841.64 50.27 843.72C45.75 845.8 42.04 848.51 42.02 849.75C42.01 850.99 34.57 852 25.5 852C10.88 852 8.81 851.23 7.35 845.25C6.44 841.54 4.75 828.37 3.6 816C2.44 803.62 2.37 784.05 3.43 772.5C4.49 760.95 6.27 721.8 7.39 685.5C8.51 649.2 9.86 587.77 10.39 549C10.93 510.22 15.6 387.9 16.67 361.5C17.73 335.1 17.28 289.2 15.68 259.5C14.07 229.8 13.7 202.12 14.87 198C16.03 193.87 15.95 170.25 14.69 145.5C12.84 109.01 13.23 98.8 16.72 91.5C19.09 86.55 25.41 79.48 30.76 75.79C36.12 72.1 45.22 64.58 51 59.08C56.77 53.58 126.52 4.76 129 3.44C131.47 2.11 136.2 0.91 139.5 0.77ZM339.26 120C348.5 120 380.36 167.54 383.25 170.64C386.14 173.75 390.88 179.49 393.79 183.39C396.7 187.3 399.08 193.87 399.08 198C399.08 202.12 339.75 275.37 331.5 280.77C323.25 286.17 312.79 292.03 308.25 293.79C302.14 296.17 298.06 296.03 292.52 293.25C288.41 291.19 285.04 288.49 285.02 287.25C285.01 286.01 242.19 213.45 244.82 208.5C247.45 203.55 255.21 193.66 262.05 186.53C268.9 179.39 276.52 170.49 279 166.74C281.47 163 286.87 155.94 291 151.06C295.12 146.18 305.03 137.2 313.01 131.1C324.04 122.67 330.35 120 339.26 120Z" />
</svg>