<svg xmlns="http://www.w3.org/2000/svg" viewBox="0 0 738 834" width="738" height="834">
	<style>
		tspan { white-space:pre }
		.shp0 { fill: #000000 } 
	</style>
	<path id="V" fill-rule="evenodd" class="shp0" d="M407.01 0C411.53 0 415.86 3.09 419.25 8.75C422.66 14.43 424.98 31.95 422.96 43.5C420.95 55.05 416.08 354.77 420 357.22C422.6 358.84 470.2 359.92 532.5 359.77C593.5 359.63 646.37 358.2 654 356.49C661.42 354.82 676.95 353.6 688.5 353.79C700.05 353.98 715.91 355.46 723.75 357.07C736.93 359.78 738 360.67 738 369C738 373.95 664.88 473.98 654.75 473.76C648.56 473.63 632.02 474.35 618 475.36C603.97 476.37 574.27 479.45 552 482.21C529.72 484.97 507.45 487.2 502.5 487.17C497.55 487.14 479.03 486.53 461.35 485.81C433.7 484.68 428.44 485.23 423.85 489.72C419.39 494.07 419.03 496.58 421.65 504.72C423.56 510.64 426.98 694.57 427.88 702C429.32 714 307.91 820.04 299.25 824.97C290.59 829.91 280.12 833.97 276 834C270.24 834.04 267.67 831.78 264.91 824.28C262.29 817.12 262.14 809.28 264.34 795C266 784.27 268.16 774.15 269.16 772.5C270.15 770.85 271.41 758.02 271.95 744C272.5 729.97 274.33 710.4 276.03 700.5C277.74 690.6 279.83 668.32 280.68 651C281.54 633.67 282 614.77 281.71 609C281.43 603.22 281.26 595.8 281.33 592.5C281.41 589.2 282.61 565.34 286.5 492.47L277.5 490.26C272.55 489.05 250.95 488.99 229.5 490.12C208.05 491.25 179.7 492.99 166.5 493.98C153.3 494.98 120.22 494.1 93 492.04C48.68 488.68 41.77 488.8 27 493.23C10.62 498.14 10.46 498.12 5.14 491.34C1.75 487.02 0.52 482.29 1.81 478.5C2.93 475.2 11.42 464.71 20.67 455.18C29.93 445.66 39.52 433.39 42 427.92C44.47 422.45 48.08 416.07 50 413.74C51.93 411.41 54.29 406.12 55.26 402C56.22 397.87 62.07 388.9 68.26 382.06C74.44 375.21 84.22 367.41 90 364.72C95.77 362.04 105.22 359.67 111 359.46C116.77 359.25 124.87 359.44 129 359.88C133.12 360.32 145.95 359.71 157.5 358.53C170.1 357.24 188.1 357.8 202.5 359.94C215.7 361.9 233.92 364.25 243 365.16C252.07 366.07 264.9 366.97 283.5 367.5L283.12 327C282.91 304.72 282.45 250.05 282.09 205.5C281.71 157.88 282.79 116.16 284.72 104.25C287.08 89.71 364.36 23.25 377.01 15C389.67 6.75 403.17 0 407.01 0ZM562.5 136.33C567.45 137.18 630.98 219.49 628.04 226.5C625.97 231.45 566.53 289.45 560.59 289.38C555.04 289.32 548.24 287.97 545.48 286.38C542.72 284.8 532.26 275.74 522.23 266.25C512.2 256.76 502.99 249.04 501.75 249.09C500.51 249.14 496.52 246.78 492.87 243.84C489.23 240.9 486.24 236.47 486.24 234C486.24 231.52 556.59 135.33 562.5 136.33Z" />
</svg>