<svg xmlns="http://www.w3.org/2000/svg" viewBox="0 0 399 843" width="399" height="843">
	<style>
		tspan { white-space:pre }
		.shp0 { fill: #000000 } 
	</style>
	<path id="w-" class="shp0" d="M327 7.5C321.22 11.43 259.42 58.41 252 62.24C244.57 66.07 226.35 75.57 211.5 83.35C186.54 96.43 184.44 98.24 183.75 107.25C183.27 113.53 185.11 119.4 188.93 123.75C192.25 127.52 196.41 139.1 198.36 150C200.63 162.68 201.04 178.94 199.53 196.5C198.25 211.35 197.1 244.42 196.96 270C196.82 295.57 197.34 339.45 198.11 367.5C198.87 395.55 198.15 441.13 196.5 468.79L193.5 519.07C178.39 525.99 169.61 529.84 164.25 532.08C158.89 534.32 150.79 537.7 146.25 539.58C141.71 541.46 135.97 543 133.5 543C131.02 543 127.62 538.61 125.93 533.25C124.24 527.85 122.62 488.01 122.31 444C122 400.27 122.05 352.35 122.42 337.5C122.8 322.65 122.96 303.07 122.79 294C122.62 284.92 123.4 270.75 124.52 262.5C125.71 253.66 125.2 244.11 123.27 239.25C120.46 232.17 118.3 231 108 231C101.4 231 11.14 285.34 8.25 286.28C5.36 287.23 2.21 291.71 1.25 296.25C0.13 301.55 1.11 306.11 4 309C7.86 312.87 8.28 327.3 7.04 412.5C5.6 511.48 5.6 511.5 12.55 524.99C16.37 532.41 22.23 539.83 25.56 541.49C28.9 543.15 35.98 547.54 41.31 551.25C46.64 554.96 52.01 557.98 53.25 557.95C54.49 557.92 56.85 559.28 58.5 560.98C60.15 562.67 72.97 568.07 87 572.98C101.52 578.06 119.61 582.12 129 582.41C138.07 582.68 148.54 582.03 152.25 580.95C156.24 579.8 159.61 575.93 160.5 571.5C161.35 567.26 166.23 561.44 171.75 558.09C177.11 554.84 183.86 552.14 186.75 552.09C191.6 552.01 191.88 555.69 190.41 600.75C189.54 627.56 188.26 652.2 187.56 655.5C186.86 658.8 187.49 668.92 188.97 678C190.44 687.07 193.42 700.57 195.57 708C197.73 715.42 224.68 776.55 229.06 781.5C233.44 786.45 248.16 802.19 261.76 816.48C284.37 840.23 287.27 842.32 295.5 840.74C300.45 839.79 310.12 833.5 316.99 826.76C323.85 820.02 336.68 808.07 345.49 800.22C354.29 792.36 367.07 781.56 373.88 776.22C380.68 770.87 388.61 765.15 391.5 763.5C395.11 761.43 396.75 756.76 396.76 748.5C396.77 741.9 394.58 730.09 391.89 722.25C389.2 714.41 383.61 700.91 379.46 692.25C375.31 683.59 370.99 662.49 369.75 661.86C368.51 661.23 366.23 654.14 364.68 646.11C363.13 638.07 361.52 629.47 361.1 627C360.68 624.52 358.1 611.7 355.37 598.5C351.43 579.42 350.03 548.06 348.51 445.5C347.47 374.55 346.64 281.4 346.68 238.5C346.72 195.6 347.85 139.57 349.19 114C350.53 88.42 353.6 56.81 356.01 43.75C360.09 21.63 360.03 19.47 355.02 12.25C352.06 7.99 348.26 3.51 346.57 2.3C344.88 1.08 342.15 0.15 340.5 0.22C338.85 0.29 332.77 3.57 327 7.5Z" />
</svg>