<svg xmlns="http://www.w3.org/2000/svg" viewBox="0 0 429 903" width="429" height="903">
	<style>
		tspan { white-space:pre }
		.shp0 { fill: #000000 } 
	</style>
	<path id="W" class="shp0" d="M322.65 3.49C317.78 5.14 314.07 7.74 314.4 9.25C314.73 10.76 254.89 56.59 243.75 63.41C232.61 70.24 220.12 78.18 216 81.06C208.92 86.01 208.4 88.28 206.72 121.9C205.75 141.48 205.84 177.75 206.92 202.5C208.28 233.44 207.78 252.19 205.32 262.5C203.35 270.75 200.9 291.34 199.87 308.25C198.84 325.16 196.83 341.36 195.39 344.25C193.96 347.14 188.9 350.68 184.14 352.12C179.39 353.56 153.62 354.91 126.88 355.12C82.02 355.47 77.91 355.96 73.73 361.5C71.23 364.8 69.11 369.52 69.02 372C68.93 374.47 67.14 378.52 65.04 381C62.95 383.47 59.43 390.9 57.22 397.5C55.01 404.1 46.05 424.35 37.3 442.5C28.55 460.65 18.56 478.2 15.1 481.5C11.64 484.8 8.85 489.86 8.9 492.75C8.96 495.64 7.99 497.97 6.75 497.93C5.51 497.89 3.5 502.28 2.28 507.68C0.6 515.11 1.33 518.83 5.28 522.97C9.55 527.44 13.24 528.09 25.5 526.51C33.75 525.45 44.55 523.32 49.5 521.76C54.45 520.21 67.27 518.29 78 517.48C88.72 516.68 117.54 515.68 142.03 515.26C169.3 514.79 187.29 515.66 188.46 517.5C189.51 519.15 190.55 550.2 190.77 586.5C190.98 622.8 192.08 666.67 193.2 684C194.32 701.32 196.63 731.7 198.34 751.5C200.96 781.91 202.54 788.9 208.49 796.5C212.37 801.45 226.1 816.3 239.02 829.51C251.93 842.71 268.89 858.91 276.71 865.51C284.52 872.1 294.37 891.37 298.5 895.5C305.07 902.07 307.21 902.63 315.75 900.04C321.42 898.32 332.12 889.85 341.31 879.79C350.01 870.28 428.54 779.14 428.7 776.25C428.87 773.36 427.31 770.96 425.25 770.91C423.19 770.85 416.44 765.45 410.25 758.91C404.06 752.36 397.99 746.95 396.75 746.9C395.51 746.85 390.11 741.45 384.75 734.9C379.39 728.35 373.31 723.04 371.25 723.09C369.19 723.13 363.73 716.05 359.12 707.34C353.6 696.9 349.77 683.57 347.87 668.25C346.29 655.46 357 34.27 357 28.5C357 20.83 354.57 15.57 348 9C343.05 4.05 337.31 0.11 335.25 0.24C333.19 0.37 327.52 1.83 322.65 3.49Z" />
</svg>