<svg xmlns="http://www.w3.org/2000/svg" viewBox="0 0 696 972" width="696" height="972">
	<style>
		tspan { white-space:pre }
		.shp0 { fill: #000000 } 
	</style>
	<path id="x-" fill-rule="evenodd" class="shp0" d="M303.25 0C306.41 0 314.06 2.98 320.25 6.62C326.44 10.25 332.17 13.99 333 14.93C333.82 15.86 338.21 18.28 342.75 20.31C347.29 22.34 460.41 129.19 465.23 131.25C470.05 133.31 475.87 138.04 478.16 141.75C480.45 145.46 484.02 157.27 486.08 168C488.95 182.89 489.09 195.3 486.65 220.5C484.8 239.57 483.92 297.2 484.56 357C485.16 413.92 486.49 475.35 487.5 493.5C488.54 512 486.51 646.82 486.86 647.22C487.21 647.62 503.02 645.82 522 643.22C540.97 640.62 567.97 637.26 582 635.74C596.02 634.22 622.35 631.76 640.5 630.28C666.83 628.12 675.47 628.43 683.25 631.79C690.85 635.07 693.01 637.82 693.03 644.25C693.05 648.79 691.36 656.2 689.28 660.73C687.2 665.25 684.15 668.94 682.5 668.92C680.85 668.91 674.1 673.7 667.5 679.57C660.9 685.44 654.82 690.16 654 690.07C653.17 689.98 644.74 696.68 635.25 704.95C624.42 714.4 614.37 720.51 608.25 721.37C602.89 722.13 582.3 724.26 562.5 726.11C542.7 727.97 520.42 729.87 513 730.35C505.57 730.83 495.45 731.37 490.5 731.54C483.18 731.8 480.14 734.26 474.22 744.68C468.1 755.45 466.84 762.05 466.33 786C465.99 801.67 464.86 823.95 463.82 835.5C462.65 848.43 459.84 859.38 456.49 864C453.51 868.12 443.34 876.22 433.89 882C424.45 887.77 410.92 895.87 403.82 900C396.73 904.12 385.89 911.55 379.74 916.5C373.6 921.45 364.62 928.54 359.79 932.25C354.95 935.96 302.44 963.09 296.25 966.25C290.06 969.41 282.3 971.32 279 970.5C275.7 969.67 272.86 966.64 272.69 963.75C272.52 960.86 272.09 942.3 271.73 922.5C271.37 902.7 272.76 877.72 274.83 867C276.89 856.27 280.72 837.37 283.33 825C285.94 812.62 288.06 799.46 288.04 795.75C288.02 792.04 289.17 786.64 290.61 783.75C292.04 780.86 294.06 773.44 297 756L242.25 755.65C212.14 755.46 178.72 755.34 168 755.37C157.27 755.41 130.95 755.99 109.5 756.67C88.05 757.34 61.72 759.58 51 761.65C40.27 763.72 28.46 764.64 24.75 763.7C21.04 762.77 16.5 758.96 14.66 755.25C12.83 751.54 75.9 684.38 82.5 676.51C89.1 668.65 98.89 660.37 104.25 658.11C111.79 654.93 134.55 654.02 204.75 654.07C254.66 654.11 295.82 653.77 296.21 653.32C296.6 652.87 299 645.07 301.55 636C304.73 624.66 306.62 600.52 307.59 558.75C308.69 511.4 308.17 498 305.25 498C303.19 498 294.07 505.42 285 514.48C275.92 523.54 261.41 534.34 252.75 538.48C244.09 542.62 235.99 546.04 234.75 546.08C233.51 546.13 224.4 550.34 214.5 555.43C203.31 561.19 187.42 566.13 172.5 568.47C159.3 570.54 145.8 571.59 142.5 570.81C139.2 570.03 129.21 565.81 120.29 561.44C111.38 557.08 97.88 548.1 90.29 541.5C82.71 534.9 75.95 528.15 75.29 526.5C74.62 524.85 64.32 513.37 52.4 501C40.47 488.62 29.72 475.12 28.5 471C27.29 466.87 24.62 461.47 22.58 459C20.54 456.52 15.94 448.42 12.36 441C8.37 432.73 4.91 417.62 3.41 402C1.41 381.06 1.97 372.74 6.57 355.5C9.64 343.95 13.61 329.1 15.39 322.5C17.16 315.9 20.69 306.45 23.23 301.5C25.76 296.55 30.39 289.8 33.5 286.5C36.62 283.2 42.17 276.2 45.83 270.95C49.5 265.7 58.24 253.89 65.25 244.7C72.26 235.52 78 227.32 78 226.5C78 225.67 83.06 219.49 89.25 212.75C95.44 206.01 140.1 153.07 148.39 144C156.67 134.92 172.3 118.72 183.12 108C193.93 97.27 211.71 78.37 222.61 66C233.52 53.62 248.12 39.45 255.05 34.5C261.98 29.55 269.9 23.47 272.65 21C275.41 18.52 282.12 12.79 287.58 8.25C293.04 3.71 300.09 0 303.25 0ZM186 179.23C172.22 185.71 161.3 193.99 148.78 207.45C139.03 217.93 129.2 229.2 126.94 232.5C124.17 236.53 122.31 251.81 121.27 279C120.09 309.91 120.88 324.83 124.61 342C127.29 354.37 132.42 372.47 136 382.2C139.57 391.94 146.55 403.79 151.5 408.54C156.45 413.29 165.22 421.2 171 426.12C177.35 431.53 190.99 437.91 205.5 442.26C218.7 446.23 234.56 450.26 240.75 451.23C246.94 452.2 257.74 451.39 264.75 449.42C271.76 447.44 282.22 442.92 288 439.36C293.77 435.8 300.52 430.44 303 427.45C306.06 423.75 307.75 413.75 308.29 396.25C308.73 382.09 309.64 357.67 310.32 342C310.99 326.32 319.14 209.12 316.33 204.75C313.95 201.04 311.95 196.31 311.89 194.25C311.83 192.19 308.8 186.96 305.14 182.64C301.49 178.31 295.12 173.02 291 170.89C286.87 168.75 274.05 165.2 262.5 163.01C250.95 160.81 240.15 159.1 238.5 159.22C236.85 159.34 228.75 161.83 220.5 164.75C212.25 167.67 196.72 174.18 186 179.23Z" />
</svg>