<svg xmlns="http://www.w3.org/2000/svg" viewBox="0 0 558 948" width="558" height="948">
	<style>
		tspan { white-space:pre }
		.shp0 { fill: #000000 } 
	</style>
	<path id="X" fill-rule="evenodd" class="shp0" d="M342.75 0.3C345.64 0.13 360.49 4.16 375.75 9.24C391.01 14.32 406.2 19.96 409.5 21.77C412.8 23.58 422.59 32.25 431.25 41.03C439.91 49.81 448.01 56.99 449.25 56.98C450.49 56.97 455.94 63.39 461.37 71.23C466.81 79.08 547.14 202.57 549.84 210C552.54 217.42 554.94 230.25 555.16 238.5C555.39 246.75 554.78 262.95 553.8 274.5C552.58 288.94 549.26 301.12 543.19 313.5C537.28 325.53 525.08 340.96 506.42 360.03C491.07 375.72 470.06 396.31 459.75 405.78C449.44 415.25 440.32 423 439.5 423C438.67 423 425 434.14 409.1 447.75C393.21 461.36 377.39 473.85 373.95 475.5C369.67 477.56 366.97 482.75 365.37 492C364.09 499.42 364.31 519 365.86 535.5C367.61 554.08 367.63 586.62 365.91 621C364.15 656.35 364.21 689.03 366.09 711C367.71 729.97 370.71 752.68 372.77 761.46C375.24 772.06 378.77 778.87 383.25 781.71C386.96 784.07 396.41 787.53 404.25 789.4C412.09 791.26 425.78 794.98 434.68 797.65C446.09 801.07 457.35 816 459 816C460.65 816 464.92 821.06 468.48 827.25C472.05 833.44 474.97 842.55 474.97 847.5C474.98 853.85 471.52 860.17 463.24 868.97C455.04 877.67 446.52 883.01 435 886.64C425.92 889.51 412.42 894.43 405 897.57C397.57 900.71 383.4 905.11 373.5 907.35C363.6 909.58 344.7 915.04 331.5 919.49C318.3 923.93 300.07 931.33 291 935.93C279.44 941.78 268.21 944.75 253.5 945.85C239.66 946.87 229.94 946.12 225 943.63C220.81 941.52 215.02 934.02 211.89 926.67C208.8 919.43 204.72 906.75 202.82 898.5C200.92 890.25 200.15 876.07 201.1 867C202.06 857.92 202.59 829.57 202.28 804C201.97 778.42 201.56 717.67 201.36 669C201.04 588.82 200.51 580.04 195.75 575.62C192.86 572.94 183.75 567.79 175.5 564.19C167.25 560.58 158.47 555.78 156 553.51C153.52 551.24 143.4 545.09 133.5 539.83C123.6 534.58 107.4 522.64 97.5 513.29C87.6 503.95 72.33 490.27 63.56 482.9C54.63 475.39 42.55 460.93 36.08 450C29.74 439.27 20.6 423.07 15.78 414C10.95 404.92 5.19 387.37 2.97 375C-0.35 356.47 -0.38 349.32 2.8 334.5C4.93 324.6 11.58 307.04 17.58 295.48C23.59 283.92 31.54 270.09 35.25 264.73C38.96 259.38 42 254.32 42 253.5C42 252.67 98.36 169.42 105.15 162C111.94 154.57 121.23 144.45 125.79 139.5C130.34 134.55 136.11 126.45 138.61 121.5C141.11 116.55 187.2 81.46 190.5 78.03C193.8 74.61 197.85 71.91 199.5 72.04C201.15 72.16 204.52 70.03 207 67.3C209.47 64.57 223.65 55.33 238.5 46.77C253.35 38.22 271.57 28.21 279 24.54C286.42 20.87 302.62 13.98 315 9.23C327.37 4.48 339.86 0.46 342.75 0.3ZM222 116.27C217.87 118.85 209.1 124.46 202.5 128.73C195.9 133 189.15 138.07 187.5 140C185.85 141.92 181.95 143.95 178.84 144.5C175.72 145.05 167.54 153.6 160.65 163.5C148.37 181.14 148.08 182.16 145.85 214.5C144.31 236.87 144.76 254.26 147.26 268.5C149.28 280.05 154.19 295.57 158.17 303C162.16 310.42 168.36 321.43 171.96 327.46C175.56 333.49 218.08 388.73 222.47 392.91C226.85 397.08 234.27 403.38 238.97 406.91C243.66 410.43 261.67 419.58 279 427.23C304.41 438.46 312.53 440.78 321 439.27C327.23 438.15 375.56 396.08 381.74 383.81C387.93 371.54 392.99 358.46 392.99 354.75C393 351.04 395.16 339.56 397.8 329.25C401.24 315.85 371.95 199.8 371 196.5C370.04 193.2 366.45 187.8 363.03 184.5C359.61 181.2 339.55 149.77 334.72 144C329.9 138.22 321.8 130.96 316.72 127.85C311.65 124.74 302.1 120.27 295.5 117.91C288.9 115.56 278.1 112.7 271.5 111.57C264.9 110.43 252.75 109.97 244.5 110.54C236.25 111.11 226.12 113.69 222 116.27Z" />
</svg>