<svg xmlns="http://www.w3.org/2000/svg" viewBox="0 0 720 1038" width="720" height="1038">
	<style>
		tspan { white-space:pre }
		.shp0 { fill: #000000 } 
	</style>
	<path id="Y" class="shp0" d="M400.97 1.93C400.05 2.86 219.9 22.31 193.5 27.55C167.1 32.8 135.37 37.19 123 37.32C110.62 37.44 18.03 135.07 13.93 159C9.83 182.92 4.83 216.67 2.82 234C-0.41 261.95 1.01 326.32 1.76 342C2.5 357.67 4.55 375.22 6.32 381C8.54 388.27 14.28 394.97 25.01 402.79C33.53 409 113.89 470.98 119.25 470.93C123.79 470.9 130.31 468.53 133.75 465.68C137.19 462.83 143.83 452.4 148.51 442.5C153.19 432.6 157.97 423.82 159.13 423C160.29 422.17 163.78 417.42 166.87 412.44C169.97 407.45 176.93 397.33 182.34 389.94C187.75 382.55 197.12 369.07 203.16 360C212.64 345.74 214.16 341.05 214.32 325.5C214.48 308.99 213.94 307.44 207.75 306.75C204.04 306.34 166.33 272.77 160.5 267C154.01 260.58 149.18 252.42 148.09 246C147.1 240.22 144.26 228.07 141.77 219C139.29 209.92 136.65 198.45 135.91 193.5C134.88 186.64 136.57 182.32 143.03 175.31C147.69 170.26 155.55 163.37 160.5 160.01C166.26 156.09 181.36 151.99 202.5 148.6C221.33 145.57 243.87 143.88 255 144.65C265.72 145.4 279.22 144.98 285 143.72C292 142.19 304.51 143.36 322.5 147.24C337.35 150.43 439.95 195.27 451.5 202.67C463.05 210.07 477.44 220.49 483.48 225.81C492.24 233.53 495.78 240.07 500.9 258C505.45 273.91 507.28 288.4 507.14 307.5C507.03 322.35 496.85 435.22 495.13 441C493.41 446.77 491.97 454.87 491.94 459C491.9 463.12 486.84 476.43 480.69 488.56C472.62 504.47 463.22 516.69 447 532.37C434.62 544.33 419.77 558.35 414 563.53C408.22 568.7 392.7 580.59 379.5 589.95C366.3 599.31 352.12 609.94 348 613.58C343.87 617.23 333.75 626.17 325.5 633.47C317.25 640.76 305.44 650.39 299.25 654.86C293.06 659.34 226.05 705.93 214.5 715.14C202.95 724.35 189.45 733.74 184.5 736.02C179.55 738.3 163.35 752.17 148.5 766.83C133.65 781.5 118.5 797.55 114.84 802.5C111.18 807.45 105.67 814.87 102.61 819C99.55 823.12 94.23 832.57 90.81 840C87.38 847.42 83.22 858.22 81.55 864C79.89 869.77 76.38 881.25 73.75 889.5C69.38 903.23 84.54 991.87 86.81 996C89.07 1000.12 97.13 1010.65 104.72 1019.38C112.3 1028.12 120.19 1035.21 122.25 1035.13C124.31 1035.06 133.76 1030.75 143.25 1025.56C152.74 1020.36 162.57 1013.95 165.11 1011.31C167.64 1008.66 276.07 928.8 276.04 925.5C276 922.2 274.62 914.44 272.98 908.25C271.34 902.06 245.19 846.75 244.16 838.5C242.88 828.35 243.82 818.65 247.06 808.5C249.7 800.25 254.92 787.98 258.68 781.23C262.43 774.48 268.2 765.04 271.5 760.26C274.8 755.48 284.86 744.8 293.86 736.53C302.86 728.26 325.81 706.31 344.86 687.75C363.91 669.19 383.01 651.64 387.3 648.75C391.58 645.86 397.42 641.14 400.26 638.25C403.1 635.36 407.02 632.99 408.96 632.99C410.91 632.98 414.13 636.02 416.12 639.74C418.11 643.46 420.47 648.86 421.37 651.75C422.27 654.64 424.35 657 426 657C427.65 657 429 659.7 429 663C429 666.3 430.01 668.95 431.25 668.89C432.49 668.82 438.25 675.91 444.05 684.64C449.85 693.36 456.53 704.55 458.9 709.5C461.26 714.45 466.09 722.55 469.63 727.5C473.17 732.45 481.1 748.65 487.26 763.5C493.42 778.35 502.91 799.27 508.34 810C513.76 820.72 528.17 848.29 540.35 871.25C552.53 894.21 582.98 972.49 588.75 975.39C594.19 978.13 597.41 977.69 605.34 973.14C610.76 970.04 717.1 883.39 717.42 878.25C717.65 874.54 717.52 866.1 717.13 859.5C716.74 852.9 664.48 742.05 658.67 730.5C652.87 718.95 643.47 700.72 637.79 690C632.1 679.27 624.75 664.42 621.47 657C618.18 649.57 611.84 632.7 607.38 619.5C602.92 606.3 574.77 533.89 569.61 522.75C564.44 511.61 559.9 500.47 559.5 498C559.11 495.52 560.48 490.12 562.54 486C564.6 481.87 570.26 472.42 575.11 465C579.96 457.57 588.22 441.71 593.46 429.75C598.71 417.79 602.97 406.31 602.93 404.25C602.89 402.19 606.27 394.09 610.43 386.25C614.59 378.41 618 369.3 618 366C618 362.7 653.27 221.34 654.72 192.57C655.94 168.33 656.06 142.42 654.98 135C653.9 127.57 630.99 69.8 622.55 61.5C614.9 53.97 603.12 46.78 590.93 42.21C580.24 38.2 466.12 10.95 462 10.56C457.87 10.17 449.1 8.45 442.5 6.73C435.9 5.01 424.23 2.85 416.57 1.91C408.9 0.98 401.88 0.99 400.97 1.93Z" />
</svg>