<svg xmlns="http://www.w3.org/2000/svg" viewBox="0 0 699 900" width="699" height="900">
	<style>
		tspan { white-space:pre }
		.shp0 { fill: #000000 } 
	</style>
	<path id="Z" class="shp0" d="M176.4 2.75C171.94 3.97 123.45 29.83 118.5 32.4C113.55 34.97 103.42 43.82 96 52.07C88.57 60.32 78.45 70.87 73.5 75.53C68.55 80.18 63.54 85 62.36 86.24C61.19 87.48 51.92 97.95 41.78 109.5C31.63 121.05 18.21 139.27 11.95 150C5.69 160.72 1.12 171.86 1.78 174.75C2.54 178.03 5.82 180 10.5 180C16.58 180 19.73 176.72 27.1 162.75C32.1 153.26 41.55 139.76 48.1 132.75C59.45 120.59 60.79 120 77.25 120.06C86.74 120.09 104.62 122.03 117 124.36C129.37 126.69 145.57 130.81 153 133.52C160.42 136.23 169.2 140.93 172.5 143.98C175.8 147.02 301.24 236.73 308.25 240.02C315.26 243.31 322.69 245.98 324.75 245.95C326.81 245.92 329.85 247.22 331.5 248.83C333.15 250.44 340.57 252.41 348 253.2C355.42 253.99 403.65 252.08 418.5 251.63C442.19 250.9 446.23 249.97 451.5 244.02C454.8 240.29 458.51 237.18 459.75 237.12C460.99 237.05 462 238.35 462 240C462 241.65 455.54 249.41 447.65 257.25C439.76 265.09 421.19 282.3 406.4 295.5C391.6 308.7 356.72 342.45 328.87 370.5C301.03 398.55 272.68 428.79 265.87 437.71C259.07 446.63 248.89 460.13 243.25 467.71C237.62 475.29 231.88 481.84 230.5 482.25C229.13 482.66 228 484.35 228 486C228 487.65 218.6 501.49 207.12 516.75C195.63 532.01 182.47 549.65 177.87 555.94C173.26 562.24 163.42 574.57 156 583.35C148.57 592.12 139.12 605.07 135 612.12C130.87 619.17 124.46 629.45 120.75 634.97C115.61 642.61 114.05 649.11 114.19 662.25C114.3 671.74 116.12 687.6 118.24 697.5C121.4 712.25 124.74 718.35 136.8 731.29C146.2 741.39 153.93 747.07 158.25 747.04C162.58 747.01 171.73 740.07 183.75 727.68C194.06 717.06 206.23 703.89 210.78 698.43C215.34 692.97 277.27 644.72 288 639.89C305.4 632.06 307.89 629.85 311.14 619.31C313.14 612.81 315.21 589.27 315.73 567C316.47 535.07 317.76 524.75 321.84 518.25C324.68 513.71 328.35 510.67 330 511.5C331.65 512.32 333.67 511.65 334.5 510C335.38 508.25 343.8 507.58 354.75 508.39C365.06 509.15 378.22 508.78 384 507.55C389.77 506.32 403.27 506.79 414 508.59C424.72 510.4 437.21 513.48 441.75 515.44C446.29 517.4 451.35 518.32 453 517.5C454.65 516.67 542.73 587.35 546.73 603.87C549.61 615.77 551.95 629.55 551.93 634.5C551.92 639.45 550.24 651.1 548.2 660.38C545.52 672.62 522.6 701.7 516 705C509.4 708.3 431.32 727.07 414 727.48C393.86 727.95 377.63 730 369 733.17C361.57 735.89 321 745.54 313.55 749.25C306.1 752.96 274.12 768.78 270 769.71C265.87 770.64 259.46 773.34 255.75 775.7C252.04 778.07 246.3 786.07 243 793.5C239.7 800.92 237.02 812.06 237.05 818.25C237.07 824.44 239.72 838.27 242.93 849C247.24 863.37 251.76 871.32 260.14 879.22C267.9 886.53 276.73 891.21 288 893.96C297.07 896.18 313.95 898.04 325.5 898.1C337.05 898.16 419.55 863.85 424.5 862.64C429.45 861.44 481.16 827.13 497.25 811.39C513.34 795.66 527.56 781.82 528.86 780.64C530.16 779.46 538.93 769.45 548.36 758.39C557.79 747.33 572.63 724.38 581.34 707.39C590.05 690.4 599.36 668.4 602.01 658.5C604.67 648.6 608.07 633.07 609.57 624C611.07 614.92 613.02 591.3 613.92 571.5C614.81 551.7 614.07 523.01 612.27 507.75C610.47 492.49 607.76 477.64 606.25 474.75C604.74 471.86 601.37 464.44 598.75 458.25C596.14 452.06 593.95 445.99 593.88 444.75C593.82 443.51 589.09 437.44 583.38 431.25C577.67 425.06 515.77 383.77 510 382.54C504.22 381.31 498.15 379.28 496.5 378.03C494.85 376.78 488.77 374.95 483 373.97C477.22 372.99 465.75 371.4 457.5 370.45C449.25 369.49 431.02 368.37 417 367.95C402.97 367.53 389.47 366.03 387 364.63C383.49 362.64 426 318 462 282C493.35 250.65 532.78 216.94 536.79 210.75C540.8 204.56 551.7 192.07 561.01 183C570.31 173.92 617.22 120.43 622.29 115.47C627.35 110.5 634.4 103.07 637.94 98.97C641.48 94.86 653.4 82.72 664.44 72C675.47 61.27 686.92 47.77 689.88 42C692.84 36.22 696.11 27.11 697.13 21.75C698.28 15.77 697.55 10.21 695.25 7.37C693.19 4.82 688.46 2.79 684.75 2.87C681.04 2.94 674.96 4.55 671.25 6.44C667.54 8.33 660.11 13.73 654.75 18.44C649.39 23.15 620.69 36.1 594.75 61.47C575.36 80.42 552.75 99.53 544.5 103.92C536.25 108.32 520.05 115.21 508.5 119.23C490.74 125.42 484.49 126.22 468 124.42C456.3 123.14 447.3 120.54 445.5 117.91C443.85 115.5 360.34 76.72 344.25 68.65C328.16 60.59 265.05 20.61 260.95 18.31C256.85 16 242.02 10.95 228 7.09C213.97 3.23 198.45 0.17 193.5 0.3C188.55 0.42 180.85 1.52 176.4 2.75Z" />
</svg>