<svg xmlns="http://www.w3.org/2000/svg" viewBox="0 0 554 660" width="554" height="660">
	<style>
		tspan { white-space:pre }
		.shp0 { fill: #000000 } 
	</style>
	<path id="a-" class="shp0" d="M117 7.23C108.2 11.2 98.75 15.75 96 17.34C93.25 18.94 87.4 21.9 83 23.94C78.6 25.97 71.85 29.05 68 30.78C64.15 32.51 56.5 37.12 51 41.02C45.5 44.92 39.65 49.01 38 50.11C36.35 51.2 31.9 54.1 28.12 56.55C24.33 59 18.03 62.8 14.12 65C8.1 68.39 0.08 97.02 0.76 99.5C1.44 101.97 4.25 106.25 7 109C9.75 111.75 12 115.35 12 117C12 118.65 13.71 123.37 15.81 127.5C17.9 131.62 21.05 138.37 22.81 142.5C24.56 146.62 26 151.8 26 154C26 156.2 27.03 160.02 28.29 162.5C29.55 164.97 31.36 173.3 32.32 181C33.27 188.7 34.14 206.25 34.23 220C34.32 233.75 35.21 247.02 36.2 249.5C37.19 251.97 38.06 274.47 38.13 299.5C38.21 324.52 37.75 370.65 37.13 402C36.51 433.35 35.12 465.3 34.06 473C32.99 480.7 31.19 494.2 30.06 503C28.92 511.8 27.36 532.05 26.58 548C25.81 563.95 25.27 581.05 25.39 586C25.51 590.95 26.87 601.3 28.43 609C29.98 616.7 32.32 625.47 33.62 628.5C34.93 631.52 35.98 634.67 35.95 635.5C35.92 636.32 38.19 639.25 41 642C43.81 644.75 46.08 647.67 46.05 648.5C46.02 649.32 48.02 652.27 50.5 655.04C53.7 658.61 56.16 659.69 59 658.74C61.2 658.01 66.15 654.45 70 650.82C73.85 647.19 84.65 637.4 94 629.06C103.35 620.72 115.05 611.77 120 609.18C124.95 606.58 133.95 601.2 140 597.22C146.05 593.23 151.9 590.02 153 590.08C154.1 590.13 156.35 588.67 158 586.82C159.65 584.98 165.5 581.5 171 579.1C179.97 575.18 181.15 573.92 182.45 566.87C183.72 559.92 183.15 558.06 177.56 551C174.07 546.6 170.46 539.4 169.54 535C168.61 530.6 166.54 524.07 164.93 520.5C162.68 515.51 162 504.96 162 475C162 452.35 163.29 425.31 165.07 410.5C166.76 396.47 168.63 381.85 169.22 378L170.3 371C184.79 373.75 229.27 365.72 234.5 365.82C242.12 365.96 245.88 364.71 253.47 359.5C258.68 355.92 309.87 316.52 312.76 313.5C315.64 310.47 318.9 306.2 320 304C321.1 301.8 322 297.75 322 295C322 292.25 320.2 288.2 318 286C315.54 283.54 312.66 282.48 310.5 283.26C308.57 283.95 302.95 284.79 298 285.11C293.05 285.44 280.9 286.31 271 287.05C261.1 287.79 247.15 289.73 240 291.35C232.85 292.98 215.75 295.05 202 295.96C186.45 297 176.24 296.9 175 295.71C173.73 294.5 173.26 274.02 173.72 239.4C174.11 209.48 174.57 179.6 174.73 173C174.9 166.4 174.48 156.5 173.8 151C173.12 145.5 173.38 139.2 174.37 137C175.37 134.8 182.63 128.95 190.52 124C198.4 119.05 208.04 114.01 211.93 112.8C215.82 111.59 223.05 108.06 228 104.96C232.95 101.85 241.05 98.12 246 96.66C253.17 94.54 279.69 91 306 91.12C331 91.22 333.85 91.63 344.5 96.62C350.82 99.58 357.04 104.02 358.31 106.5C359.58 108.97 363.57 114.6 367.17 119C370.77 123.4 376.17 132.4 379.16 139C382.15 145.6 384.79 153.25 385.03 156C385.28 158.75 386.05 164.6 386.75 169C387.45 173.4 388.57 207.6 389.25 245C389.93 282.4 390.8 335.5 391.18 363C391.57 390.5 392.03 415.7 392.21 419C392.39 422.3 391.94 439.85 391.2 458C390.47 476.15 383.74 535.8 382.94 549C381.68 569.59 404.6 625.47 409 630.81C413.4 636.15 421.5 643.56 427 647.27C432.5 650.98 440.6 654.5 445 655.08C451.39 655.93 455.42 654.88 465 649.88C472.48 645.98 482.66 637.8 492 628.18C500.25 619.69 533.25 589.15 536 587.98C538.75 586.81 543.38 582.51 546.29 578.43C549.19 574.34 551.78 569.65 552.02 568C552.27 566.35 552.37 563.42 552.24 561.5C552.1 559.53 549.59 557.27 546.5 556.33C543.19 555.32 528.86 538.62 525.02 534.5C521.18 530.37 518.01 526.1 517.97 525C517.94 523.9 515.98 518.95 513.61 514C511.24 509.05 506.86 493.73 505.49 492.18C503.72 490.17 503.05 480.6 503.17 459.18C503.26 442.58 503.38 424.95 503.43 420C503.48 415.05 503.68 408.75 503.87 406C504.06 403.25 504.54 395.6 504.94 389C505.34 382.4 506.37 362.6 507.22 345C508.07 327.4 508.59 306.7 508.38 299C508.17 291.3 508.94 280.05 510.09 274C511.25 267.95 512.64 253.1 513.2 241C513.76 228.9 514.35 215.4 514.52 211C514.69 206.6 514.12 190.4 513.25 175C512.39 159.6 511.31 142.95 510.86 138C510.41 133.05 509.18 124.5 508.13 119C507.07 113.5 505.19 103.6 503.94 97C502.69 90.4 499.05 79.6 495.84 73C492.64 66.4 489.98 60.1 489.93 59C489.88 57.9 486.57 53.4 482.57 49C478.56 44.6 471.17 37.79 466.14 33.87C461.11 29.95 453.85 26.03 450 25.15C446.15 24.28 439.85 21.95 436 19.98C432.15 18.02 422.92 14.51 415.5 12.2C408.07 9.89 343.85 4.92 340 5.92C336.15 6.92 328.05 9.06 322 10.67C315.95 12.27 308.3 14.54 305 15.69C301.7 16.85 292.92 19.64 285.5 21.9C278.07 24.15 265.02 29.64 256.5 34.09C247.97 38.54 234.7 46.2 227 51.11C219.3 56.02 207.73 64.75 201.29 70.52C194.85 76.28 188.55 81.93 187.29 83.07C186.03 84.2 182.07 87.13 178.5 89.57C174.92 92 171.77 94.01 171.5 94.03C171.22 94.05 170.26 90.22 169.35 85.53C168.44 80.84 167 72.95 166.13 68C165.27 63.05 164.04 57.65 163.39 56C162.75 54.35 160.42 46.7 158.23 39C155.11 28.09 144.81 3.8 140.74 2.05C138.13 0.92 135.32 0 134.5 0C133.67 0 125.8 3.26 117 7.23Z" />
</svg>