<svg xmlns="http://www.w3.org/2000/svg" viewBox="0 0 524 588" width="524" height="588">
	<style>
		tspan { white-space:pre }
		.shp0 { fill: #000000 } 
	</style>
	<path id="A" fill-rule="evenodd" class="shp0" d="M359 0.12C359 0 362.15 1.2 366 2.78C369.85 4.36 375.25 8 378 10.88C380.75 13.75 384.12 16.08 385.5 16.05C386.87 16.02 392.91 20.72 398.92 26.5C404.93 32.27 412.69 39.25 416.17 42C419.65 44.75 428.55 52.85 435.94 60C444.26 68.04 451.4 77.2 454.65 84C457.63 90.25 460.73 101.48 461.81 110C462.86 118.25 463.37 149.75 462.93 180C462.5 210.25 461.62 240.4 460.99 247C460.36 253.6 460.83 269.35 462.03 282C463.23 294.65 464.15 319.85 464.07 338C464 356.15 463.95 375.95 463.97 382C464 388.05 465.4 398.4 467.09 405C468.78 411.6 470.03 420.6 469.87 425C469.7 429.4 471.24 438.32 473.28 444.83C475.89 453.12 478.58 457.6 482.28 459.83C485.18 461.57 493.83 467.95 501.5 474C509.17 480.05 517.07 487.25 519.07 490C521.07 492.75 522.64 498.15 522.58 502C522.49 506.9 519.69 513.04 513.23 522.5C508.15 529.92 467.85 556.92 464 557.89C460.15 558.86 451.6 560.63 445 561.84C438.4 563.04 429.85 563.45 426 562.74C420.92 561.81 415.41 557.83 405.93 548.23C395.48 537.66 392.34 532.99 390.3 525C388.9 519.5 386.97 511.85 386.02 508C385.07 504.15 382.36 489.3 380.01 475C377.66 460.7 374.89 444.95 373.87 440C372.84 435.05 371.18 423.35 370.19 414C369.19 404.65 368.73 384.85 369.17 370C369.74 350.53 369.28 342.07 367.48 339.67C366.12 337.84 360.5 334.85 355 333.04C349.5 331.22 338.25 328.89 330 327.85C320.22 326.62 311.35 326.66 304.5 327.98C297.68 329.29 292.07 329.32 288.5 328.07C285.19 326.91 281.88 323.53 280.18 319.57C277.76 313.93 277.76 311.44 280.16 302C281.7 295.95 284.77 288.74 286.98 285.98C289.19 283.23 292 279.18 293.22 276.98C294.45 274.79 299.4 270.09 304.22 266.52C309.05 262.96 316.37 258.69 320.5 257.02C324.62 255.36 327.98 253.32 327.96 252.5C327.93 251.67 333.11 249.91 339.46 248.59C345.81 247.26 356.4 245.64 363 244.99C369.6 244.33 375.66 242.72 376.47 241.4C377.28 240.08 377.85 221.45 377.75 200C377.64 178.55 376.98 152.61 375 123.72L361 117.73C353.3 114.44 341.6 109.41 335 106.55C328.4 103.7 317.12 97.23 309.93 92.18C302.74 87.13 293.29 81.76 288.93 80.25C284.57 78.74 278.52 78.06 275.5 78.75C272.47 79.44 257.95 90.61 251.77 96.43C243.78 103.95 240.15 109.02 239.21 114C238.13 119.67 238.91 122.52 248.76 137L248.42 276C248.22 358.33 248.86 418.67 250 424C251.05 428.95 253.28 440.42 254.96 449.5C256.63 458.57 258 470.27 258 475.5C258 480.72 258.86 488.15 259.91 492C260.96 495.85 261.19 505.07 260.41 512.49C259.51 521.08 259.73 525.99 261 526.03C262.1 526.06 262.67 528.09 262.27 530.54C261.87 532.99 262.64 539.5 263.97 545C265.77 552.45 265.83 556.91 264.2 562.5C262.18 569.38 261.09 570.25 251 573C244.95 574.65 211.47 586.42 201.5 587.34C190.53 588.35 185.97 587.98 182.77 585.84C180.44 584.28 175.26 578.72 171.27 573.5C166.13 566.78 163.41 560.63 161.99 552.5C160.88 546.17 159.98 533.12 159.99 523.5C159.99 513.82 159.11 505.55 158 505C156.9 504.45 120.97 529.65 118.5 531.91C115.92 534.26 108.68 536.96 101.5 538.26C90.7 540.21 87.29 540.01 76.46 536.76C69.57 534.69 63.53 531.65 63.04 530C62.56 528.35 59.66 525.65 56.62 524C53.57 522.35 49.06 518.75 46.59 516C44.12 513.25 39.45 505.6 36.21 499C32.97 492.4 27.5 479.8 24.05 471C20.6 462.2 16.12 451.4 14.09 447C12.07 442.6 9.48 436.3 8.35 433C7.21 429.7 4.89 418.9 3.19 409C1.24 397.63 0.1 378.49 0.08 357C0.07 338.3 1.4 309.72 3.03 293.5C4.66 277.27 5.55 263.1 5 262C4.45 260.9 5.28 255.27 6.85 249.5C8.43 243.72 11.13 232.25 12.85 224C14.81 214.67 19.97 201.18 26.5 188.31C32.27 176.94 37.9 165.96 39 163.92C40.1 161.88 78.29 131.02 86.9 122.5C95.52 113.97 106.67 104.3 111.67 101C116.67 97.7 123.52 93.34 126.88 91.32C130.25 89.29 135.25 85.59 138 83.1C140.75 80.61 146.15 76.86 150 74.78C153.85 72.7 157.45 70.55 158 70C158.55 69.45 161.61 67.65 164.81 66C168.47 64.1 175.84 63.06 184.81 63.15C196.29 63.27 200.42 64.23 206.42 68.15C210.49 70.82 213.85 73.9 213.86 75C213.88 76.1 215.95 79.04 218.45 81.53C221.82 84.88 224.14 85.66 227.39 84.53C229.8 83.69 234.3 80.92 237.39 78.38C240.47 75.84 247.95 70.66 254 66.86C260.05 63.07 265.67 59.97 266.5 59.98C267.32 59.99 269.82 58.42 272.05 56.5C274.28 54.57 280.94 50.3 286.86 47C292.78 43.7 303.79 37.3 311.31 32.78C318.84 28.26 328.15 20.97 332 16.58C335.85 12.19 341.25 7.42 344 5.98C346.75 4.54 351.25 2.68 354 1.85C356.75 1.02 359 0.24 359 0.12ZM108.43 170.5C101.61 177.37 96.03 184.57 96.02 186.5C96.01 188.42 94.96 192.02 93.69 194.5C92.43 196.97 90.26 204.4 88.88 211C87.5 217.6 86.12 231.1 85.8 241C85.49 250.9 85.28 263.05 85.34 268C85.4 272.95 85.54 286.9 85.67 299C85.79 311.1 86.35 335.4 86.91 353C87.48 370.6 88.25 386.8 88.61 389C88.98 391.2 89.8 394.35 90.43 396C91.05 397.65 92.57 408.22 93.78 419.5C95 430.77 97.35 442.7 99 446C100.65 449.3 101.98 453.57 101.95 455.5C101.92 457.42 103.95 460.91 106.45 463.25C108.95 465.58 113.7 468.36 117 469.43C120.3 470.5 125.7 470.67 129 469.81C132.3 468.96 138.6 467.32 143 466.18L151 464.11C150.29 360.95 149.61 316.15 149.04 298C148.47 279.85 147.04 259.15 145.85 252C144.67 244.85 142.92 219.2 141.97 195C141.01 170.8 139.43 150.55 138.44 150C137.46 149.45 115.24 163.62 108.43 170.5Z" />
</svg>