<svg xmlns="http://www.w3.org/2000/svg" viewBox="0 0 572 570" width="572" height="570">
	<style>
		tspan { white-space:pre }
		.shp0 { fill: #000000 } 
	</style>
	<path id="B" fill-rule="evenodd" class="shp0" d="M325 0.12C327.2 0.09 330.06 0.72 331.35 1.53C332.64 2.34 334.6 5.25 335.71 8C337.22 11.75 336.94 14.5 334.61 19C332.17 23.72 331.3 34.61 330.56 70C330.05 94.75 329.59 116.35 329.56 118C329.53 119.65 330.57 127.75 331.87 136C333.17 144.25 334.63 151.67 335.12 152.5C335.6 153.32 340.95 154 347 154C353.05 154 488.02 134 496 134C503.7 134 512.02 135.01 514.5 136.25C516.97 137.49 521.05 140.41 523.55 142.75C526.59 145.59 528.12 149.33 528.14 154C528.16 157.85 499.76 211.47 497.01 214.5C493.53 218.32 488.8 220.6 481.5 221.95C475.72 223.03 458.85 223.62 444 223.26C429.15 222.9 413.4 223.43 409 224.44C404.6 225.45 398.75 226.62 396 227.03C393.25 227.43 382 229.08 371 230.69C360 232.29 348.75 233.16 346 232.61C343.18 232.06 339.92 232.8 338.52 234.31C336.79 236.19 336.18 243.67 337 281L358 281.46C369.55 281.72 395.65 280.95 416 279.77C436.35 278.58 457.5 277.65 463 277.69C468.5 277.74 477.95 279.24 484 281.03C490.05 282.82 501.3 286.18 509 288.5C522.11 292.45 524.24 293.96 542.5 312.36C553.22 323.16 561.99 333.12 561.98 334.5C561.97 335.87 563.92 340.6 566.31 345C569.52 350.91 570.7 356.66 570.83 367C570.95 376.62 569.9 383.19 567.5 388C565.58 391.85 561.32 398.6 558.04 403C554.75 407.4 550.93 413.25 549.55 416C548.16 418.75 545.43 422.8 543.47 425C541.52 427.2 530.05 442.4 524 449C517.95 455.6 509.62 463.47 505.5 466.5C501.37 469.52 489.2 481.88 487 484C484.8 486.11 478.5 492.02 473 497.13C467.5 502.23 428.42 526 426.5 526.01C424.57 526.01 357.89 555.67 353 560.39C348.6 564.64 343.87 568.09 342.5 568.06C341.12 568.03 338.87 565.73 337.5 562.96C336.12 560.19 332.75 557.05 330 555.97C327.25 554.9 320.95 549.95 316 544.98C311.05 540.01 282.79 509.85 280.47 506C278.15 502.15 274.38 497.65 272.1 496C269.82 494.35 268.01 492.1 268.07 491C268.13 489.9 266.67 487.65 264.84 486C263 484.35 259.74 478.95 257.58 474C255.43 469.05 252.68 463.2 251.47 461C250.14 458.6 249.02 441.82 248.66 419C248.33 398.1 247.64 370.2 247.11 357C246.59 343.8 246.07 331.2 245.96 329C245.85 326.8 246.27 309.47 246.88 290.5C247.5 271.52 248.67 255 249.5 253.78C250.32 252.55 249.65 250.77 248 249.81C246.35 248.85 240.95 248.05 236 248.04C231.05 248.03 219.8 249.09 211 250.41C197.66 252.41 193.55 252.32 186.26 249.9C180.15 247.88 176.58 245.19 174.43 241C172.59 237.42 171.55 230.97 171.83 225C172.09 219.5 173.29 213.2 174.48 211C175.68 208.8 179.43 203.9 182.83 200.1C186.22 196.31 192.6 189.79 197 185.61C201.4 181.43 209.95 175.39 216 172.18C222.05 168.98 231.05 165.78 236 165.08C243.73 163.98 245.16 163.04 246.11 158.4C246.73 155.43 247.18 137.16 247.11 117.81C247.02 89.56 241.31 72.77 242.27 64.25C243.36 54.63 244.52 52.22 250.27 47.59C253.97 44.61 308.6 6.57 313 4.3C317.4 2.03 322.8 0.15 325 0.12ZM353.5 347.97C350.47 347.99 347.55 348.9 347 350C346.45 351.1 345.61 362.57 345.14 375.5C344.67 388.42 345.12 403.95 346.15 410C347.17 416.05 350.74 426.85 354.07 434C357.39 441.15 360.09 448.57 360.06 450.5C360.03 452.42 365.02 458.27 371.15 463.5C377.28 468.72 385.6 475.95 389.65 479.56C393.69 483.17 421.35 500 423 500C424.65 500 430.27 497.33 435.5 494.06C440.72 490.79 445.67 488.09 446.5 488.06C447.32 488.03 451.37 484.95 455.5 481.22C459.62 477.49 465.7 472.06 469 469.15C472.3 466.24 475.45 463.93 476 464.01C476.55 464.09 479.43 460.75 482.4 456.58C485.37 452.41 488.71 445.4 489.82 441C490.94 436.6 493.1 428.5 494.63 423C497.01 414.43 496.99 411.43 494.55 402C492.98 395.95 490.2 388.75 488.37 386C486.54 383.25 483.95 379.2 482.61 377C481.27 374.8 479.29 371.2 478.2 369C477.12 366.8 473.71 362.94 470.62 360.42C467.53 357.9 462.3 353.67 459 351.04C455.7 348.4 448.05 345.28 442 344.12C435.95 342.95 417.95 342.2 402 342.46C385.06 342.74 370.09 343.97 366 345.44C362.15 346.81 356.52 347.95 353.5 347.97ZM45.74 160.04C47.53 160.07 51.25 161.85 54 164C56.75 166.15 60.16 167.93 61.57 167.96C62.98 167.98 66.13 170.42 68.57 173.37C71.01 176.32 80.42 184.87 89.5 192.37C98.57 199.87 114 215.35 114 217C114 218.65 111.52 224.63 108.5 230.28C105.47 235.93 102.1 242.05 101 243.88C99.9 245.7 73.2 272.83 68.5 274.21C62.13 276.1 59.94 275.85 54 272.57C50.15 270.45 44.08 266.98 40.51 264.86C36.94 262.74 34.02 260.32 34.01 259.5C34.01 258.67 31.44 255.07 28.31 251.5C25.18 247.92 19.56 243.73 15.81 242.17C12.07 240.61 7.4 237.91 5.43 236.17C3.44 234.4 1.92 230.35 1.98 227C2.03 223.7 4.76 215.37 8.04 208.5C11.32 201.62 21.83 183.85 23.47 180C25.11 176.15 30.06 170.07 34.47 166.5C38.87 162.92 43.94 160.02 45.74 160.04ZM70 354.18C70.55 354.03 74.6 355.37 79 357.18C83.4 358.98 87.45 361.13 88 361.96C88.55 362.78 94.17 365.83 100.5 368.73C107.74 372.05 114.58 377.15 118.96 382.5C122.79 387.17 126.45 394.15 127.08 398C127.89 402.94 127.02 407.36 124.1 413C121.83 417.4 120 421.9 120.05 423C120.1 424.1 117.85 427.47 115.07 430.5C112.28 433.52 110 436.45 110 437C110 437.55 93.31 461.7 91.72 465C89.02 470.61 88.19 470.96 78.92 470.44C73.46 470.13 66.97 468.56 64.5 466.94C62.02 465.32 57.71 461.97 54.91 459.5C52.11 457.02 46.26 451.62 41.91 447.5C37.56 443.37 32.32 436.62 30.26 432.5C26.58 425.11 26.59 424.82 30.76 413C33.09 406.4 35.45 400.55 36 400C36.55 399.45 38.88 396.3 41.18 393C43.48 389.7 49.22 380.08 53.93 371.63C58.64 363.17 63.96 355.85 65.75 355.36C67.54 354.87 69.45 354.34 70 354.18Z" />
</svg>