<svg xmlns="http://www.w3.org/2000/svg" viewBox="0 0 450 556" width="450" height="556">
	<style>
		tspan { white-space:pre }
		.shp0 { fill: #000000 } 
	</style>
	<path id="C" class="shp0" d="M65 4.31C62.8 6.55 6.52 56.15 4.21 60C0.32 66.47 0.14 68.51 1.73 87C2.68 98 11.57 146.41 13.5 149.35C15.42 152.29 21.5 156.73 27 159.23C35.25 162.97 39.27 163.57 50 162.7C57.15 162.12 130.8 158.64 155 157.71C179.2 156.79 242.2 152.52 251 152.31C259.8 152.1 271.52 148 272.4 148C273.28 148 274 150.7 274 154C274 157.3 273.1 160 272 160C270.9 160 270.03 161.12 270.08 162.5C270.12 163.87 266.97 169.72 263.08 175.5C259.18 181.27 256 186.45 256 187C256 187.55 253.52 190.83 250.5 194.28C247.47 197.73 244.04 201.56 242.86 202.78C241.69 204 235.09 209.05 228.2 214C221.32 218.95 210.45 227.05 204.04 232C197.64 236.95 189.84 242.55 186.7 244.44C183.57 246.34 179.2 249.03 177 250.44C174.8 251.84 170.3 254.86 167 257.14C163.7 259.43 159.65 261.92 158 262.68C156.35 263.44 150.95 266.74 146 270C141.05 273.27 134.75 277.05 132 278.4C129.25 279.76 123.4 283.84 119 287.48C114.6 291.11 109.87 294.07 108.5 294.04C107.12 294.02 103.52 296.28 100.5 299.07C97.47 301.85 86.07 306.79 82.5 310.06C78.92 313.33 66.28 324.69 60.52 330.48C54.76 336.26 50.06 341.9 50.08 343C50.1 344.1 47.41 347.7 44.11 351C40.81 354.3 38.09 358.12 38.06 359.5C38.02 360.87 36.64 364.02 34.98 366.5C33.33 368.97 31.03 374.6 29.87 379C28.72 383.4 26.85 390.6 25.73 395C24.6 399.4 23.31 414.7 22.85 429C22.39 443.3 22.08 460.85 22.16 468C22.23 475.15 21.3 486.4 20.09 493C18.4 502.25 18.48 506.77 20.45 512.71C22.44 518.73 24.54 520.98 30 522.93C33.85 524.3 38.35 524.77 40 523.97C41.65 523.16 51.55 521.99 62 521.37C72.45 520.75 83.7 519.35 87 518.26C90.3 517.18 201.25 506.61 226 507.18C250.75 507.76 280.22 509.07 291.5 510.11C302.77 511.15 314.02 513.12 316.48 514.5C318.94 515.87 322.32 518.44 323.98 520.19C325.64 521.95 329.1 526.45 331.66 530.19C334.22 533.94 338.72 538.56 341.66 540.47C344.6 542.38 351.27 546.65 356.5 549.97C363.32 554.3 367.27 555.61 370.5 554.61C372.97 553.84 377.25 551.26 380 548.88C382.75 546.5 415.21 527.07 419.12 523.5C423.04 519.92 429.61 513.85 433.73 510C437.85 506.15 442.76 500.75 444.65 498C446.53 495.25 448.22 488.95 448.4 484C448.69 475.91 447.82 474.04 439.86 465.53C434.99 460.32 430.1 456.02 429 455.98C427.9 455.93 422.5 451.35 417 445.79C411.5 440.22 402.95 433.47 398 430.78C393.05 428.08 387.65 425.92 386 425.97C384.35 426.02 382.1 425.28 381 424.33C379.9 423.37 371.35 421.52 362 420.22C352.65 418.91 336.9 417.39 327 416.84C317.1 416.29 302.25 415.91 294 416.01C285.75 416.1 277.2 416.6 275 417.11C272.8 417.63 265.6 418.53 259 419.11C252.4 419.7 233.05 421.26 216 422.59C198.95 423.92 183.65 425.82 182 426.82C180.35 427.82 170 429.07 159 429.6L139 430.57C135.05 417.7 134.87 413.78 136.11 411.5C137.15 409.57 148.16 383.15 152.95 376C157.73 368.85 180.4 338.96 188.42 331.59C196.44 324.21 205.92 315.89 209.5 313.09C213.07 310.29 216.67 307.98 217.5 307.95C218.32 307.92 220.35 306.7 222 305.23C223.65 303.77 230.85 299.52 238 295.8C245.15 292.08 252.47 287.68 254.27 286.02C256.07 284.36 261.02 281.93 265.27 280.63C269.52 279.33 278.76 274.83 285.8 270.63C292.83 266.43 299.58 261.56 300.8 259.8C302.01 258.04 305.7 255.19 309 253.48C312.3 251.77 323.1 242.21 333 232.25C342.9 222.28 351.9 214.03 353 213.92C354.1 213.81 359.42 207.7 364.81 200.36C370.21 193.01 376.88 182.5 379.63 177C382.38 171.5 386.3 162.05 388.35 156C390.39 149.95 392.05 141.17 392.03 136.5C392.01 131.82 392.98 125.52 394.17 122.5C395.36 119.47 396.69 111.6 397.12 105C397.55 98.4 397.89 87.6 397.87 81C397.85 71.09 397.07 68.35 393.42 65.28C389.62 62.08 386.47 61.68 371 62.46C361.1 62.95 297 62.49 275 65.27C242.54 69.38 224.26 70.46 178 70.99C132.37 71.51 119.4 71.07 113 68.78C107.07 66.66 104.36 64.25 102.52 59.46C101.16 55.91 100.04 45.12 100.02 35.5C100.01 22.52 99.04 16.06 96.29 10.5C94.25 6.37 91.1 2.32 89.29 1.5C87.48 0.67 82.17 0.05 77.5 0.12C71.71 0.2 67.72 1.54 65 4.31Z" />
</svg>