<svg xmlns="http://www.w3.org/2000/svg" viewBox="0 0 440 586" width="440" height="586">
	<style>
		tspan { white-space:pre }
		.shp0 { fill: #000000 } 
	</style>
	<path id="D" class="shp0" d="M235 1.39C232.8 1.94 138.89 58.23 137.5 69.66C136.67 76.45 136.57 83.12 137.27 84.5C137.97 85.87 138.45 92.4 138.34 99C138.24 105.6 139.46 123.37 141.07 138.5C142.68 153.62 143.55 166.9 143 168C142.45 169.1 142.9 172.7 144 176C145.64 180.93 145.28 182.98 141.93 187.5C139.69 190.52 137.9 192.1 137.95 191C137.99 189.9 136.67 191.02 135.02 193.5C133.36 195.97 130.65 198 129 198C127.35 198 120.37 203.84 113.5 210.97C105.48 219.3 95.63 226.84 86 232.03C77.75 236.47 54.72 252.06 49.5 255.59C44.27 259.11 14.89 300.47 13.52 303.5C12.16 306.52 10.04 309.9 8.82 311C7.59 312.1 5.2 315.25 3.51 318C0.79 322.41 0.77 323.94 3.31 331C4.89 335.4 12.62 429.24 14 432C15.1 434.2 18.7 437.8 22 440C26.05 442.7 29.79 443.62 33.5 442.83C36.52 442.19 42.84 439.27 47.53 436.33C52.23 433.4 61.23 426.2 67.53 420.32C73.84 414.45 81.7 408.23 85 406.49C88.3 404.75 93.7 402.77 97 402.08L103 400.83C103 377.71 102.29 370.55 101.42 370C100.54 369.45 99.44 364.05 98.96 358C98.49 351.95 97.58 342.05 96.95 336C96.32 329.95 95.49 318.25 95.09 310C94.7 301.75 93.85 287.57 93.19 278.5C92.14 264 92.42 261.82 95.5 260.53C97.42 259.72 122.73 237.85 128.08 234C133.44 230.15 138.64 225.2 139.64 223C140.64 220.8 142.93 219 144.73 219C146.84 219 148.33 221.15 148.91 225C149.41 228.3 150.39 237.75 151.09 246C151.79 254.25 152.68 287.1 153.08 319C153.47 350.9 154.8 385.1 156.03 395C157.25 404.9 158.2 432.57 158.13 456.5C158.06 480.42 157.84 500.67 157.65 501.5C157.46 502.32 158.28 505.25 159.48 508C160.67 510.75 163.47 517.95 165.7 524C167.92 530.05 170.25 537.92 170.87 541.5C171.49 545.07 174.05 549.57 176.56 551.5C179.07 553.42 183.12 558.15 185.56 562C188 565.85 191.57 571.45 193.5 574.44C195.88 578.15 199.87 580.6 206 582.11C210.95 583.33 217.7 584.84 221 585.45C225.21 586.24 229.68 585.1 236 581.62C240.95 578.9 247.92 576.07 251.5 575.34C255.24 574.57 258.39 572.51 258.91 570.5C259.47 568.36 263.36 566.03 268.91 564.5C273.91 563.12 280.7 559.75 284 557C287.73 553.89 290 550.11 290 547C290 544.25 290.9 541.55 292 541C293.1 540.45 294 538.65 294 537C294 535.35 292.58 530.62 290.83 526.5C289.09 522.37 286.87 517.65 285.89 516C284.92 514.35 282.26 508.95 279.98 504C277.04 497.63 275.24 487.68 273.82 470C272.71 456.25 271.4 439.37 270.9 432.5C270.41 425.62 269.17 418.42 268.16 416.5C267.15 414.57 265.77 390.5 265.1 363C264.43 335.5 264.1 299.5 264.37 283C264.63 266.5 264.66 246.47 264.42 238.5C264.17 229.88 264.81 226 266 226C267.1 226 268.9 228 270 228C271.1 228 275.37 229.53 279.5 231.4C283.62 233.27 289.15 235.29 291.78 235.9C295.34 236.72 297.29 239.31 299.37 246C300.91 250.95 302.72 267.6 303.38 283C304.36 305.73 297.84 347.45 298.56 357C299.14 364.7 301.53 376.4 303.86 383C306.2 389.6 309.65 397.25 311.54 400C313.42 402.75 315.87 407.63 316.98 410.84C318.11 414.1 322.12 418.52 326.06 420.84C329.94 423.13 336.83 427.7 341.37 431C345.91 434.3 350.98 439.25 352.65 442C354.41 444.92 359.06 448.04 363.83 449.5C370.55 451.56 372.97 451.51 377.5 449.23C380.52 447.7 387.05 442.3 392 437.23C396.95 432.15 404.15 426.74 408 425.21C411.85 423.67 417.47 420.07 420.5 417.21C423.52 414.34 428.46 411.77 431.46 411.5C435.22 411.16 437.49 409.44 438.74 406C439.74 403.25 439.99 398.75 439.29 396C438.6 393.25 434.84 387.4 430.94 383C427.05 378.6 421.19 370.95 417.93 366C414.67 361.05 405.43 331.1 404.22 319C403 306.9 401.99 293.85 401.97 290C401.95 286.15 402.08 280.75 402.27 278C402.46 275.25 402.58 268.5 402.54 263C402.5 257.5 401.79 245.35 400.96 236C399.68 221.59 398.65 218.15 394.23 213.44C391.35 210.38 388.32 207.91 387.5 207.94C386.67 207.97 380.82 204.4 374.5 200C368.17 195.6 362.1 192.02 361 192.03C359.9 192.04 352.7 188.96 345 185.19C337.3 181.41 286.07 156.91 282.5 154.46C278.92 152.01 274.65 150 273 150C271.35 150 269.96 149.32 269.91 148.5C269.86 147.67 269.75 136.2 269.66 123C269.58 109.8 265.58 19.42 265.02 17.5C264.46 15.57 264.87 9.52 263.49 6.5C261.63 2.43 249.41 0.92 244.99 0.69C241.69 0.52 237.2 0.83 235 1.39Z" />
</svg>