<svg xmlns="http://www.w3.org/2000/svg" viewBox="0 0 440 540" width="440" height="540">
	<style>
		tspan { white-space:pre }
		.shp0 { fill: #000000 } 
	</style>
	<path id="e-" class="shp0" d="M96.89 1.7C93.53 2.42 89.48 4.07 87.89 5.38C86.3 6.69 16.47 54.74 15.24 56.87C14.01 59 10.75 62.86 8 65.44C5.25 68.02 2.32 70.1 1.5 70.07C0.67 70.03 0.03 72.02 0.06 74.5C0.09 76.97 1.88 81.7 4.03 85C6.18 88.3 10.88 93.14 14.47 95.75C18.06 98.36 24.37 105.78 28.5 112.25C32.62 118.71 36.02 125.12 36.05 126.5C36.08 127.87 37.65 130.69 39.55 132.76C41.45 134.82 43.61 140.22 44.35 144.76C45.09 149.29 46.64 156.6 47.8 161C48.96 165.4 50.83 207.92 51.95 255.5C53.44 318.29 53.39 345.97 51.78 356.5C50.5 364.81 50.09 379.11 50.81 390C51.5 400.45 52.8 422.95 53.71 440C54.62 457.05 54.79 471.9 54.09 473C53.4 474.1 52.87 486.74 52.91 501.09C52.98 522.44 53.64 528.16 56.5 532.59C58.42 535.56 61.57 538.03 63.5 538.06C65.42 538.1 142.15 488.47 146 485.21C149.85 481.95 154.04 476.97 155.3 474.14C156.79 470.82 157.08 465.1 156.13 458C155.31 451.95 153.11 443.4 151.23 439C149.35 434.6 146.91 423.35 145.8 414C144.69 404.65 143.25 392.05 142.6 386C141.71 377.74 142.11 374.57 144.21 373.29C145.88 372.26 161.82 378.47 166.5 381.48C171.17 384.5 175.45 387.54 176 388.24C176.55 388.94 181.05 392.64 186 396.45C190.95 400.26 199.27 407.57 204.5 412.69C209.72 417.81 214.67 421.99 215.5 421.98C216.32 421.96 235.25 441.74 238 443.18C240.75 444.61 248.46 451.01 255.14 457.39C265.68 467.47 268.65 469.2 277.64 470.5C285.33 471.61 289.93 471.18 295.5 468.83C299.62 467.09 306.6 461.56 311 456.55C315.4 451.53 320.22 445.08 321.72 442.21C323.22 439.35 329.22 432.5 335.07 427C341.28 421.15 346.27 414.51 347.08 411C347.84 407.7 347.91 402.3 347.23 399C346.55 395.7 343.72 390.3 340.94 387C338.15 383.7 335.68 380.43 335.44 379.74C335.2 379.04 329.07 375.44 321.82 371.74C314.58 368.03 305.13 362.06 300.82 358.46C296.52 354.86 289.4 349.56 285 346.68C280.6 343.8 274.3 340.52 271 339.39C267.7 338.27 264.55 336.75 264 336.02C263.45 335.29 254.9 330.58 245 325.56C235.1 320.54 223.4 314.61 219 312.38C214.6 310.16 208.75 307.38 206 306.22C203.25 305.06 196.95 302.66 192 300.88C187.05 299.11 174.9 295.42 165 292.7C155.1 289.97 145.42 286.9 143.5 285.87C140.31 284.17 140.08 280.83 140.93 248.5L141.86 213C164.44 214.09 173.47 215.66 176.5 217.2C179.52 218.74 184.47 219.99 187.5 219.98C190.52 219.98 195.25 221.53 198 223.44C200.75 225.35 204.35 228.03 206 229.39C207.65 230.75 212.15 234.1 216 236.84C219.85 239.57 234.25 249.43 248 258.75C261.75 268.07 274.97 277.79 277.38 280.35C279.78 282.91 283.83 286.58 286.38 288.52C288.92 290.45 312.31 307.8 323.5 306.83C330.92 306.19 379.05 289.58 384 287.32C388.95 285.07 425.04 262.95 430.28 258C438.03 250.69 439.84 247.68 439.94 242C440.02 237.76 438.28 232.51 435.53 228.69C433.04 225.21 426.95 219.61 422 216.22C417.05 212.84 412.1 210.09 411 210.11C409.9 210.13 406.75 207.9 404 205.16C401.25 202.41 396.3 199.29 393 198.22C389.7 197.15 382.05 194.18 376 191.62C369.95 189.05 360.72 184.04 355.5 180.48C350.27 176.92 344.65 174 343 174C341.35 174 333.92 170.88 326.5 167.06C319.07 163.24 309.85 159.51 306 158.78C302.15 158.04 298.1 156.76 297 155.94C295.9 155.12 289.6 153.39 283 152.11C276.4 150.82 268.3 148.96 265 147.97C261.7 146.99 253.15 145.04 246 143.65C238.85 142.26 221.3 141.01 207 140.87C192.7 140.72 158.05 148.56 152 149.26L141 150.53C138.27 135.39 137.26 128.3 136.98 125C136.71 121.7 135.81 110 134.99 99C134.16 88 133.61 69.77 133.75 58.5C133.93 43.7 133.17 36.47 131.01 32.5C129.37 29.47 127.99 25.2 127.94 23C127.89 20.8 124.96 14.7 121.43 9.44C116.01 1.39 114.06 -0.07 109 0.15C105.7 0.29 100.25 0.99 96.89 1.7Z" />
</svg>