<svg xmlns="http://www.w3.org/2000/svg" viewBox="0 0 282 592" width="282" height="592">
	<style>
		tspan { white-space:pre }
		.shp0 { fill: #000000 } 
	</style>
	<path id="E" class="shp0" d="M55 23.55C51.7 26.27 45.85 30.09 42 32.04C38.15 33.99 29.6 41.16 23 47.99C16.4 54.81 10.03 61.43 8.85 62.7C7.66 63.96 5.53 67.25 4.11 70C2.15 73.82 1.6 90.87 1.78 142C1.92 178.85 2.92 215.3 4 223C5.09 230.7 7.27 246.45 8.84 258C10.41 269.55 11.71 282.15 11.73 286C11.75 289.85 13.19 302 14.94 313C16.92 325.47 18.5 352.2 19.15 384C19.72 412.05 21.05 446.7 22.1 461C23.15 475.3 23.97 492.85 23.91 500C23.85 509.43 24.7 513.82 27.02 516C28.78 517.65 30.78 520.8 31.47 523C32.15 525.2 37.04 532.85 42.34 540C47.63 547.15 57.14 558.73 63.48 565.74C69.82 572.74 77.92 581.52 81.5 585.24C86.46 590.39 89.66 592 95 592C98.85 592 104.02 591.22 106.5 590.26C108.97 589.31 115.06 584.59 120.01 579.76C124.97 574.94 135.32 561.66 143.01 550.24C150.71 538.83 158.99 526.23 161.42 522.24C163.84 518.26 166.39 511.4 167.07 507C168 500.99 167.15 496.39 163.65 488.52C161.09 482.75 130.54 435.2 128.9 433C127.27 430.8 109.62 356.75 108.97 354C108.32 351.25 107.84 341.12 107.9 331.5C107.97 319.86 109.05 311.82 111.15 307.5C113.02 303.62 118.87 298.09 125.65 293.78C131.89 289.81 141.5 284.34 147 281.61C152.5 278.89 159.25 275.47 162 274.02C164.75 272.57 167.99 270.84 169.2 270.19C170.41 269.54 215.93 249.12 219.5 247.66C223.08 246.2 258.4 232 265 226.9C271.6 221.79 278.17 215.23 279.61 212.31C281.75 207.95 281.75 206.16 279.61 202.28C278.17 199.68 275.65 196.86 274 196C272.35 195.15 266.05 195.35 260 196.45C253.95 197.56 245.4 199.9 241 201.65C236.6 203.4 229.85 206.77 226 209.13C222.15 211.49 216.75 214.1 214 214.94C211.25 215.78 206.3 218.5 203 220.99C199.7 223.47 190.7 228.56 183 232.29C175.3 236.02 166.3 241.15 163 243.69C159.7 246.22 153.17 250.03 148.5 252.15C143.82 254.27 138.87 256.92 137.5 258.04C136.13 259.16 132.3 262.31 129 265.04C125.7 267.76 122.32 270 121.5 270C120.67 270 117.26 272.47 113.92 275.5C110.57 278.52 107.2 280.28 106.42 279.4C105.64 278.52 105.98 275.37 107.17 272.4C108.36 269.43 108.7 265.2 107.92 263C107.14 260.8 107.29 257.42 108.25 255.5C109.21 253.57 109.79 245.47 109.53 237.5C109.19 227.11 110.07 220.73 112.62 215C114.65 210.43 119.35 204.89 123.59 202.08C127.66 199.37 135.05 195.64 140 193.79C144.95 191.93 152.82 188.97 157.5 187.21C162.17 185.44 172.52 183.06 180.5 181.91C188.47 180.76 195.45 179.18 196 178.41C196.55 177.63 201.05 175.02 206 172.61C210.95 170.2 216.84 166.6 219.09 164.61C221.35 162.63 228.1 158.37 234.09 155.15C240.09 151.93 250.85 144.13 258 137.82C267.7 129.26 271.89 123.9 274.51 116.68C276.44 111.35 278.02 104.52 278.01 101.5C278 98.47 276.77 93.52 275.26 90.5C273.76 87.47 270.16 83.42 267.26 81.5C263.28 78.85 259.94 78.33 253.5 79.35C247.04 80.38 147.37 163.52 140.5 167.95C133.62 172.38 127.55 176 127 176C126.45 176 123.31 178.02 120.03 180.5C116.74 182.97 113.55 184.55 112.92 184C112.3 183.45 112.89 177.6 114.23 171C115.57 164.4 116.5 150.45 116.3 140C116.09 129.55 117.17 111.55 118.69 100C120.37 87.23 120.89 74.29 120.02 67C119.24 60.4 118.98 51.85 119.45 48C119.91 44.15 118.88 32.9 117.15 23C114.66 8.68 112.99 4.08 109.01 0.5C106.25 -1.98 58.3 20.83 55 23.55Z" />
</svg>