<svg xmlns="http://www.w3.org/2000/svg" viewBox="0 0 726 532" width="726" height="532">
	<style>
		tspan { white-space:pre }
		.shp0 { fill: #000000 } 
	</style>
	<path id="F" class="shp0" d="M203.45 1.97C195.18 1.99 183.42 11.4 181.85 14.34C180.28 17.28 150.03 49.9 150.08 51C150.13 52.1 146.11 57.95 141.15 64C136.18 70.05 128.02 115.07 128.32 134.5C128.49 145.77 128.54 156.35 128.44 158C128.33 159.65 129.17 165.05 130.3 170C131.43 174.95 132.25 192.05 132.11 208C131.97 223.95 132.78 247.35 133.9 260C135.03 272.65 136.58 292.45 137.36 304C138.13 315.55 138.82 338.5 138.88 355C138.99 383.16 138.66 385.86 133.49 399C130.46 406.7 125.83 415.25 123.19 418L118.4 423C113.26 414.84 111.4 404.53 110.19 390C109.14 377.35 107.32 364.52 106.14 361.5C104.96 358.47 103.91 343.17 103.8 327.5C103.69 311.82 103.69 296.97 103.8 294.5C103.91 292.02 105.35 288.65 107 287C108.84 285.16 109.62 281.86 109.02 278.5C108.48 275.47 106.01 271.1 103.52 268.78C101.03 266.45 97.2 264.09 95 263.53C92.8 262.97 89.59 263.52 87.87 264.75C86.16 265.99 83.01 269.94 80.87 273.52C78.74 277.11 76.1 280.02 75 279.98C73.9 279.94 67.6 284.84 61 290.85C54.4 296.86 45.19 303.41 40.52 305.39C35.86 307.38 31.09 310.8 29.92 313C28.74 315.2 23.11 319.25 17.39 322C10.6 325.27 5.99 329.08 4.07 333C1.68 337.89 1.2 349.53 1.46 396C1.7 439.53 2.51 456.19 4.89 466.5C6.6 473.92 10.7 484.05 14 489C17.3 493.95 20.9 498 22 498C23.1 498 29.62 501.86 36.5 506.58C43.37 511.3 56.65 518.27 66 522.08C79.93 527.75 85.59 529 97.33 529C105.22 529 112.42 529.66 113.33 530.46C114.25 531.26 117.7 531.41 121 530.8C124.3 530.18 133.75 528.25 142 526.51C151.82 524.44 160.8 520.91 168 516.28C174.05 512.4 184.66 503.32 191.59 496.11C198.51 488.9 205.06 482.1 206.14 481C207.22 479.9 211.29 475.85 215.2 472C219.1 468.15 224.77 460.5 227.79 455C230.81 449.5 235.25 441.62 237.64 437.5C240.04 433.37 242 428.2 242 426C242 423.8 244.33 413.22 247.17 402.5C251.96 384.46 252.26 380.9 251.15 355C250.5 339.6 249.49 313.5 248.92 297C248.34 280.5 247.03 261.15 246.01 254C244.98 246.85 243.55 221.65 242.81 198C242.08 174.35 241.37 145.33 241.24 133.5C241.04 115.61 250.6 112.99 255 114.17C260.66 115.68 399.67 108.71 400.5 109.17C401.32 109.62 401.92 115.62 401.82 122.5C401.72 129.37 402.73 137.7 404.06 141C405.39 144.3 407.04 161.4 407.73 179C408.41 196.6 408.71 261.85 408.38 324C407.89 418.49 408.32 440.93 410.98 461C412.86 475.13 415.35 486.23 417.03 488C418.61 489.65 419.92 492.12 419.95 493.5C419.98 494.87 422.02 497.36 424.5 499.02C426.98 500.67 433.5 502.06 439 502.08C445.74 502.12 450.63 500.91 454 498.39C456.75 496.32 549.7 454.38 553 450.96C556.3 447.54 569.75 423.39 567.86 416C566.6 411.05 563.42 402.72 560.78 397.5C558.15 392.27 555.1 387.55 554 387C552.9 386.45 550.11 381.72 547.79 376.5C545.47 371.27 541.56 364.75 539.08 362C536.61 359.25 531.27 348.9 527.22 339C521.41 324.79 519.64 317.42 518.81 304C518.24 294.65 516.5 281.15 514.95 274C513.4 266.85 511.12 243 509.89 221C508.66 199 508.22 171.55 508.91 160C509.6 148.45 510.58 136.07 511.09 132.5C511.88 126.85 513.18 125.61 521 123C529.28 120.24 530.68 120.29 538.5 123.69C543.17 125.72 550.82 127.97 555.5 128.69C560.17 129.41 569.4 132.7 576 136C582.6 139.3 590.22 144.92 592.94 148.5C595.66 152.07 597.91 157.02 597.94 159.5C597.97 161.97 598.9 166.25 600 169C601.1 171.75 602.33 195.82 602.74 222.5C603.33 260.72 604.13 272.27 606.51 277C608.18 280.3 611.67 284.07 614.27 285.37C616.87 286.68 620.8 288.29 623 288.95C625.4 289.68 628.2 288.89 630 286.99C631.65 285.25 684.8 257.96 687 256.05C689.2 254.14 716.68 222.37 719.96 215.5C723.24 208.62 725.94 200.52 725.96 197.5C725.98 194.47 724.87 189.72 723.5 186.94C722.12 184.16 720.1 181.87 719 181.85C717.9 181.83 714.56 178.93 711.57 175.41C708.58 171.88 703.54 162.25 700.36 154C697.19 145.75 693.47 134.05 692.09 128C690.71 121.95 688.38 112.95 686.91 108C685.44 103.05 681.77 90.9 678.76 81C675.75 71.1 671.64 60.52 669.64 57.5C667.64 54.47 666 51.1 666 50C666 48.9 662.17 45 657.5 41.33C652.82 37.67 623.15 19.91 614.58 18.57C606.01 17.24 594.5 15.77 589 15.31C583.5 14.86 443.15 9.14 436 7.96C428.85 6.79 421.42 5.87 419.5 5.91C417.57 5.96 209.8 1.95 203.45 1.97Z" />
</svg>