<svg xmlns="http://www.w3.org/2000/svg" viewBox="0 0 584 636" width="584" height="636">
	<style>
		tspan { white-space:pre }
		.shp0 { fill: #000000 } 
	</style>
	<path id="G" class="shp0" d="M434 1.94C432.35 2.94 421.55 3.88 410 4.03C398.45 4.18 385.85 4.1 382 3.84C378.15 3.58 362.85 4.59 348 6.09C333.15 7.58 307.95 9.04 292 9.33C276.05 9.62 253.1 9.81 241 9.76C228.9 9.7 209.55 9.61 198 9.56C184.35 9.51 174.78 10.44 170.66 12.24C167.17 13.76 161.52 19.05 158.09 24C154.67 28.95 148.61 37.95 144.63 44C140.65 50.05 135.34 58.15 132.84 62C130.34 65.85 125.93 74.4 123.05 81C120.17 87.6 115.04 98.4 111.65 105C108.26 111.6 100.81 126 95.1 137C89.38 148 81.26 163.3 77.05 171C72.83 178.7 67.84 187.25 65.95 190C64.07 192.75 61.79 197.25 60.88 200C59.98 202.75 56.43 208.6 52.99 213C49.56 217.4 45.27 225.05 43.47 230C41.66 234.95 39.7 244.85 39.1 252C38.48 259.46 37.3 304.3 38.24 333C39.06 358.3 40.69 404.65 41.85 436C43.23 473.16 43.29 498.22 42.04 508C40.98 516.25 39.19 526.15 38.06 530C36.92 533.85 35.99 539.7 35.98 543C35.97 546.3 32.7 559.35 28.73 572C24.75 584.65 20.07 597.25 18.31 600C16.56 602.75 13.3 607.01 11.06 609.47C8.83 611.92 5.42 613.95 3.5 613.97C0.63 613.99 0.23 615.16 1.27 620.5C1.98 624.07 4 629.04 5.77 631.53C8.43 635.25 10.24 635.85 16 634.89C19.85 634.25 26.15 631.75 30 629.32C33.85 626.9 42.85 622.05 50 618.55C57.15 615.05 65.02 609.9 67.5 607.1C69.97 604.29 106.35 563.4 108.91 559C111.47 554.6 115.78 546.5 118.49 541C121.2 535.5 124.54 527.85 125.92 524C127.3 520.15 129.77 513.4 131.41 509C133.05 504.6 134.4 497.85 134.4 494C134.41 490.15 133.83 475.75 133.13 462C132.42 448.25 130.95 432.5 129.87 427C128.78 421.5 127.97 396.3 128.06 371C128.15 345.7 127.99 316 127.7 305C127.41 294 127.24 278.25 127.33 270C127.41 261.75 127.61 250.5 127.77 245C127.93 239.5 128.4 221.95 128.81 206C129.42 182.39 130.37 174.77 133.95 165C136.37 158.4 140.43 150.3 142.97 147C145.52 143.7 148.61 138.75 149.85 136C151.09 133.25 154.35 127.85 157.11 124C159.86 120.15 170.67 105.95 172.71 104.2C175.37 101.91 180.19 101.06 189.71 101.21C197.02 101.32 211.1 102.94 221 104.8C230.9 106.67 240.35 109.02 242 110.02C244.42 111.49 244.89 115.83 244.42 132.42C244.1 143.74 242.96 160.65 241.89 170C240.81 179.35 239.17 196.45 238.24 208C237.31 219.55 236.83 252.4 237.16 281C237.5 309.6 238.67 337.05 239.76 342C240.85 346.95 242.19 369 242.73 391C243.28 413 244.46 432.7 245.36 434.78C246.26 436.86 249.47 439.79 252.5 441.28C255.52 442.78 261.6 444 266 444C271.83 444 276.84 442.09 284.5 436.95C290.27 433.07 297.2 428.35 299.9 426.45C302.59 424.55 308.44 420.3 312.9 417C317.35 413.7 325.05 408.39 330 405.2C334.95 402.01 344.61 393.91 351.47 387.2C361.34 377.55 364.66 372.7 367.33 364C369.19 357.95 371.04 348.05 371.45 342C371.98 334.15 371.06 328.43 368.25 322C366.08 317.05 346.95 278.5 345.19 273C343.26 266.95 341.11 248.38 339.76 226C338.54 205.65 337.26 180 336.92 169C336.59 158 336.12 145.85 335.88 142C335.64 138.15 335.57 131.17 335.72 126.5C335.97 118.84 336.49 118 341 118C343.75 118 348.02 119.07 350.5 120.37C352.97 121.67 358.6 123.43 363 124.29C367.4 125.14 376.4 127.16 383 128.77C389.6 130.38 398.15 132.68 402 133.87C406.19 135.17 414.89 141.85 423.67 150.52C433.32 160.03 440.06 168.77 443.34 176C446.79 183.59 448.88 192.9 450.06 206C451.01 216.45 451.79 251.1 451.8 283C451.81 314.9 452.72 364.85 453.84 394C454.95 423.15 456.27 450.15 456.77 454C457.28 457.85 458.66 467.52 459.84 475.5C461.03 483.47 463.64 497.42 465.65 506.5C467.66 515.57 470.13 524.44 471.15 526.21C472.17 527.97 475.25 532.04 478 535.26C480.75 538.47 485.7 542.27 489 543.69C492.61 545.25 498.98 545.87 505 545.25C510.5 544.68 524 542.75 535 540.96C548.58 538.75 557.41 536.14 562.5 532.85C566.62 530.18 570.45 528 571 528C571.55 528 574.81 525.07 578.24 521.5C584.35 515.13 584.45 514.7 583.39 500C582.5 487.69 581.12 483.03 575.67 474C572.02 467.95 567.01 461.2 564.54 459C562.07 456.8 560.03 453.42 560.02 451.5C560.01 449.57 558.57 443.27 556.82 437.5C555.07 431.72 552.87 425.2 551.93 423C550.98 420.8 548.83 401.45 547.13 380C545.44 358.55 556.85 222.7 557.29 215C557.73 207.3 557.18 192.9 556.07 183C554.96 173.1 553.69 155.55 553.23 144C552.77 132.45 551.4 120.3 550.17 117C548.95 113.7 546.68 103.8 545.14 95C543.59 86.2 541.35 75.17 540.16 70.5C538.97 65.82 534.68 55.47 530.63 47.5C526.58 39.52 522.5 31.65 521.57 30C520.65 28.35 518.34 24.53 516.44 21.51C514.55 18.49 435.65 0.94 434 1.94Z" />
</svg>