<svg xmlns="http://www.w3.org/2000/svg" viewBox="0 0 520 604" width="520" height="604">
	<style>
		tspan { white-space:pre }
		.shp0 { fill: #000000 } 
	</style>
	<path id="H" class="shp0" d="M425 2.45C421.7 3.62 417.2 5.81 415 7.31C412.8 8.81 409.52 10.02 407.72 10.02C405.91 10.01 397.59 16.3 389.22 24C380.85 31.7 371.52 39.23 368.5 40.73C365.47 42.24 359.18 47.86 354.52 53.23C346.37 62.62 345.98 63.66 344.69 80C343.95 89.35 343.24 110.95 343.11 128C342.98 145.05 341.75 166.65 340.38 176C338.89 186.18 335.59 197.82 332.15 205C329 211.6 323.85 219.29 320.71 222.1C316.61 225.76 311.62 227.61 303 228.68C296.4 229.5 289.42 229.68 287.5 229.08C285.57 228.49 285.52 192.5 285.72 165C285.92 137.5 286.49 109.15 286.98 102C287.47 94.85 289.33 77.75 291.1 64C292.87 50.25 294.77 33.15 295.32 26C295.98 17.4 295.42 11.11 293.66 7.42C292.02 3.97 289.47 1.88 287 1.95C284.8 2.01 281.65 2.9 280 3.93C278.35 4.96 274.92 7.42 272.37 9.4C269.83 11.38 266 14.57 263.87 16.5C261.74 18.42 256.62 21.81 252.5 24.03C248.37 26.25 240.72 32.1 235.5 37.03C230.27 41.96 223.07 47.51 219.5 49.36C215.92 51.2 210.02 55.93 206.38 59.86C202.74 63.78 198.09 70.15 196.05 74C193.9 78.04 192.2 85.65 192.03 92C191.87 98.05 192.71 113.35 193.91 126C195.1 138.65 196.78 166.55 197.63 188C198.49 209.45 198.55 227.9 197.77 229C197 230.1 190.65 231.27 183.68 231.6C176.71 231.92 162.9 233.03 153 234.06C143.1 235.09 131.17 235.95 126.5 235.97C118.94 236 118.03 235.5 118.24 231.5C118.37 229.02 117.93 205.85 117.26 180C116.59 154.15 115.01 124.45 113.75 114C112.48 103.55 111.88 83.3 112.42 69C113.09 51.07 114.43 40.52 116.75 35C118.59 30.6 120.08 23.62 120.05 19.5C120.01 13.36 119.18 11.82 115.5 11.03C113.02 10.49 105.82 10.04 99.5 10.03C91.63 10.01 87.99 10.79 87.98 12.5C87.97 13.87 82.8 19.97 76.48 26.03C70.17 32.1 61.4 41.34 57 46.56C52.6 51.78 44.5 59.15 39 62.94C33.5 66.73 26.15 74.14 22.67 79.42C19.18 84.69 15.22 93.5 13.87 99C11.9 107.02 11.93 111.77 14.02 123C15.46 130.7 16.95 150.5 17.33 167C17.72 183.5 18.2 204.2 18.41 213C18.62 221.8 7.98 448.67 5.1 477L1.84 509C9.64 515.07 13.08 515.81 18 515.07C21.85 514.49 34.22 513.56 45.5 513.01C64.5 512.07 332.42 500.81 351 509.46C369.61 518.12 406.25 576.5 409 582C412 587.99 417.01 594.01 421.5 597.01C425.62 599.77 431.02 602.02 433.5 602.01C435.97 602 442.95 598.85 449 595C455.05 591.15 517.09 531.86 518.27 528C519.45 524.15 519.87 518.97 519.2 516.5C518.32 513.21 489.5 486.48 481.52 478.52C473.53 470.55 465.87 464.02 464.5 464.02C463.12 464.01 462 463.1 462 462C462 460.9 450.52 454.49 436.5 447.75C422.47 441.01 409.2 434.72 407 433.76C404.8 432.79 396.25 430.93 388 429.61C379.75 428.29 367.15 426.83 360 426.37C352.85 425.91 257.12 418.38 225.5 418.24C169.91 418.01 167.4 418.17 150 423C140.1 425.75 130.2 428 128 428C125.8 428 123.1 426.2 122 424C120.77 421.54 120.32 402.92 120.83 375.5C121.29 351.02 122.19 325.82 122.83 319.5C123.68 311.15 124.96 307.62 127.5 306.59C129.42 305.82 147.2 305.06 167 304.91C191.16 304.73 208.26 303.58 219 301.41C227.8 299.64 241.3 297.12 249 295.83C256.79 294.52 267.88 294.06 274 294.81C280.05 295.54 287.7 295.96 291 295.74C294.3 295.51 299.7 295.39 303 295.45C306.3 295.52 322.5 296.15 339 296.85C367.84 298.06 369.66 297.91 386 292.72C395.35 289.76 405.38 285.9 408.29 284.16C411.19 282.42 416.14 277.71 419.29 273.69C422.43 269.67 426.8 263.4 429 259.76C431.2 256.11 434.68 250.4 436.73 247.07C438.78 243.73 441.03 240.55 441.73 240C442.43 239.45 444.53 235.85 446.39 232C448.26 228.15 450.58 221.85 451.56 218C452.53 214.15 452.66 203.35 451.84 194C451.02 184.65 449.65 154.95 448.78 128C447.92 101.05 447.1 75.4 446.97 71C446.84 66.6 446.11 60.75 445.34 58C444.58 55.25 444.75 42.65 445.73 30C447.29 9.91 447.1 6.55 444.26 3.43C442.47 1.47 438.75 -0.03 436 0.09C433.25 0.22 428.3 1.28 425 2.45Z" />
</svg>