<svg xmlns="http://www.w3.org/2000/svg" viewBox="0 0 246 544" width="246" height="544">
	<style>
		tspan { white-space:pre }
		.shp0 { fill: #000000 } 
	</style>
	<path id="I" class="shp0" d="M92.74 2.98C89.02 4.18 72.57 18.34 52.05 38C33.11 56.15 -1.38 96.44 1.16 106.5C2.9 113.37 4.76 123.05 5.3 128C5.83 132.95 6.57 160.4 6.92 189C7.27 217.6 8.11 256.3 8.77 275C9.43 293.7 10.33 336.45 10.77 370C11.22 403.55 12.66 438.65 13.97 448C15.28 457.35 18.08 470.85 20.19 478C22.72 486.59 26.13 493.04 30.22 497C33.63 500.3 79 543.96 79 543.96C99.15 530.39 110.4 520.69 117 513.64C123.6 506.6 131.92 496.59 135.5 491.42C139.07 486.24 142.02 480.42 142.05 478.5C142.08 476.57 119.42 431.59 117.5 429.61C115.57 427.62 105 344.42 105 324.15L105 287.3C114.3 284.63 121.95 278.84 128 272.71C134.13 266.51 143.65 259.46 149.5 256.79C155.27 254.15 160 251.1 160 250C160 248.9 166.97 240.84 175.5 232.09C184.02 223.34 198.65 208.04 208 198.08C217.35 188.12 226.35 179.57 228 179.08C229.65 178.58 231.7 176.56 232.55 174.59C233.4 172.62 235.58 168.3 237.4 165C239.22 161.7 241.86 153.6 243.28 147C244.7 140.4 245.89 132.97 245.93 130.5C245.98 127.18 244.03 125.15 238.5 122.74C234.37 120.95 229.42 118.25 227.5 116.74C224.49 114.39 222.94 114.54 216.5 117.8C212.37 119.89 206.75 124.61 204 128.3C201.25 131.98 196.68 138.6 193.84 143C190.99 147.4 185.21 157.75 180.98 166C176.75 174.25 170.89 184.6 167.97 189C165.04 193.4 160.48 201.45 157.82 206.89C155.17 212.33 147.75 221.78 141.33 227.89C134.92 234 127.27 240.04 124.33 241.31C121.4 242.58 116.95 243.48 114.45 243.31C110.7 243.06 110.07 242.11 110.91 238C111.46 235.25 112.41 219.5 113.01 203C113.62 186.5 114.51 158.15 115 140C115.49 121.85 116.92 94.85 118.18 80C119.43 65.15 119.91 46.47 119.23 38.5C118.55 30.52 117.03 21.97 115.83 19.5C114.27 16.25 110.89 2.41 106 1.81C102.15 1.34 96.18 1.87 92.74 2.98Z" />
</svg>