<svg xmlns="http://www.w3.org/2000/svg" viewBox="0 0 570 576" width="570" height="576">
	<style>
		tspan { white-space:pre }
		.shp0 { fill: #000000 } 
	</style>
	<path id="J" class="shp0" d="M283.42 1.38L183 1.75C161.96 12.07 159.24 14.65 155 23C152.21 28.5 148.82 34.8 147.46 36.99C146.11 39.19 142.52 43.91 139.5 47.49C136.47 51.07 130.31 65.42 125.8 74.5C121.29 83.57 113.64 97.07 108.8 104.5C103.96 111.92 100 119.35 100 121C100 122.65 97.97 126.02 95.5 128.5C91.13 132.87 91 134.18 90.95 174C90.92 196.55 90.25 217.47 89.45 220.5C88.34 224.72 86.72 226.05 82.5 226.23C79.47 226.36 76.1 226.61 75 226.79C73.9 226.97 70.07 227.76 66.5 228.56C61.61 229.64 59.26 231.73 57 237C55.35 240.85 46.57 252.63 37.5 263.17C28.42 273.72 19.42 285.42 17.5 289.17C15.57 292.93 11.52 297.67 8.5 299.71C5.47 301.74 2.32 305.79 1.5 308.71C0.45 312.4 1.21 316.41 4 322C7.78 329.56 8.5 330 17 330C21.95 330 28.02 329.21 30.5 328.24C32.97 327.27 47.15 326.15 62 325.74L89 325C89.17 352.9 90.41 387.55 91.85 420C93.29 452.45 94.14 494.46 93.74 513.35C93.74 513.35 93.17 561.97 93.48 566.32C93.74 569.99 94.4 573.45 94.95 574C95.49 574.55 99.78 572.36 104.47 569.14C109.16 565.91 125.7 556.27 129 552.59C132.3 548.92 135.9 545.9 137 545.88C138.1 545.87 142.82 542.29 147.5 537.93C152.17 533.57 158.47 528.88 161.5 527.52C164.52 526.15 169.73 523.23 173.06 521.02C176.39 518.81 182.3 514.3 186.2 511C190.09 507.7 194.9 501.4 196.88 497C199.54 491.08 200.43 484.31 200.31 471C200.21 459.25 190.97 407.4 189.82 403C188.67 398.6 187.48 391.4 187.16 387C186.85 382.6 186.37 368.2 186.11 355C185.84 341.8 186.38 328.42 187.31 325.26L189 319.52C212.25 321.54 222.6 322.66 227 323.31L235 324.49C232.81 348.14 231.24 365.8 230.09 379C228.95 392.2 228.48 412.45 229.06 424C229.91 441.24 230.8 445.72 234.01 449C236.16 451.2 237.89 453.9 237.87 455C237.84 456.1 241.22 459.7 245.37 463C249.53 466.3 259.25 475.09 266.97 482.54C274.68 489.99 288.47 501.24 297.6 507.54C306.72 513.84 317.21 520.8 320.9 523C324.59 525.2 329.73 528.91 332.31 531.25C334.89 533.59 340.6 537.1 345 539.05C352.06 542.19 353.94 542.29 361 539.92C365.4 538.44 371.7 535.8 375 534.05C378.3 532.29 383.03 529.54 385.51 527.93C387.99 526.32 459.58 451.27 473.57 436.94C487.56 422.6 501.7 406.95 505 402.15C508.3 397.35 531.49 368.52 532.73 365.5C533.98 362.47 537.99 253.93 537.97 244.5C537.95 235.97 536.8 226.75 535.41 224C533.42 220.07 530.74 218.69 522.94 217.55C516.21 216.57 509.6 217.05 502.5 219.05C496.72 220.67 487.95 224.7 483 228C478.05 231.3 473.32 234.02 472.5 234.05C471.67 234.08 467.88 238.8 464.06 244.55L457.13 255C457.96 322.31 457.26 339.44 455.41 349C453.92 356.7 450.46 367.95 447.73 374C445 380.05 438.73 390.85 433.8 398C428.87 405.15 422.22 415.5 419.03 421C415.84 426.5 409.58 435.62 405.12 441.27C400.65 446.92 394.97 452.54 392.5 453.77C389.56 455.23 387.65 455.31 387 454C386.45 452.9 311.7 398.3 312.8 394C313.5 391.25 314.58 385.4 315.2 381C315.82 376.6 313.78 304.66 313.43 296.5C313.12 289.07 313.62 280.3 314.54 277C315.47 273.7 316.69 261.55 317.25 250C318.03 234.06 317.64 228.45 315.64 226.71C314.19 225.44 308.05 223.9 302 223.28C295.95 222.66 290.1 222.13 289 222.11C287.9 222.09 275.3 223.3 261 224.8C246.7 226.3 224.89 228.76 212.54 230.26C190.77 232.92 181.9 229.52 181.77 226.5C181.64 223.47 178.56 107.93 180.79 105.5C182.56 103.57 183.77 100.46 183.5 98.58C183.05 95.49 185.34 95.2 207 95.63C220.2 95.88 236.85 96.65 244 97.34C251.15 98.02 269.6 98.76 285 98.99C300.4 99.22 327.4 100.35 345 101.52C362.6 102.68 379.25 104.17 382 104.82C384.75 105.47 400.5 106.5 417 107.11C433.5 107.72 451.05 108.39 456 108.61C463.63 108.94 465.9 108.09 470.91 103C474.16 99.7 546.27 27.84 551.5 25.2C556.72 22.57 563.02 17.62 565.5 14.2C567.97 10.79 570 7.1 570 6C570 4.9 567.07 3.38 563.5 2.62C559.92 1.86 537.65 1.36 514 1.5C490.35 1.64 456.29 2.04 438.31 2.38C420.34 2.72 338.65 1.17 283.42 1.38Z" />
</svg>