<svg xmlns="http://www.w3.org/2000/svg" viewBox="0 0 466 494" width="466" height="494">
	<style>
		tspan { white-space:pre }
		.shp0 { fill: #000000 } 
	</style>
	<path id="K" fill-rule="evenodd" class="shp0" d="M367 1.91L365.5 7.95C364.67 11.28 361.86 16.92 359.25 20.5C356.63 24.07 353.91 30.6 353.18 35C352.46 39.4 339.73 66.15 337.67 70C335.42 74.21 321.92 112.19 321.66 129C321.5 138.9 318.29 198.9 319.04 211C319.78 223.1 334.89 366 336.35 379C337.47 388.9 338.72 402.85 339.13 410C339.54 417.15 340.82 423.9 341.97 425C343.22 426.19 343.73 433.06 343.24 442C342.6 453.7 341.59 457.66 338.62 460C336.53 461.65 325.86 465.07 314.91 467.59C303.96 470.12 292.3 473.05 289 474.1C285.7 475.15 271.3 476.88 257 477.95C242.7 479.01 226.05 480.83 220 481.98C213.95 483.13 195.05 485.36 178 486.93C160.95 488.5 136.65 490.31 124 490.94C111.35 491.57 99.42 492.07 97.5 492.04C95.57 492.02 92.23 489.97 90.07 487.5C87.9 485.02 77.67 347.17 77.08 342.5C76.36 336.82 72.89 329.52 66.64 320.5C61.49 313.07 51.36 301.38 44.14 294.51C36.91 287.63 28.3 281.28 25 280.39C19.52 278.91 18.78 277.65 16.46 265.88C15.06 258.8 0 220.4 0 216C0 211.6 15.2 177.08 16.55 174.72C17.9 172.37 21.25 168.07 24 165.17C26.75 162.27 29.67 159.92 30.5 159.95C31.32 159.98 34.7 158.2 38 156C41.57 153.62 46.61 152.2 50.44 152.5C56.12 152.94 89.55 206.9 89 208C88.45 209.1 115.21 240.82 119.75 245.5C124.29 250.17 128.9 262 130 262C131.1 262 135.64 258.62 140.09 254.5C144.54 250.37 148.14 245.87 148.09 244.5C148.04 243.12 146.42 241.66 144.5 241.25C142.25 240.76 138.58 234.5 134.25 223.75C130.54 214.54 109.08 170.28 106.21 164.5C103.34 158.73 100.32 154.01 99.5 154C98.67 154 98.03 152.87 98.07 151.5C98.1 150.12 96.27 147.2 94 145C91.73 142.8 89.9 140.32 89.93 139.5C89.97 138.67 87.3 133.95 84 129C80.7 124.05 78.01 119.32 78.03 118.5C78.05 117.67 74.39 113.4 69.91 109C62.59 101.82 60.59 100.94 50.38 100.4C44.12 100.06 36.97 99.39 34.5 98.9C32.02 98.4 27.69 94.62 24.86 90.5C21.8 86.03 20.14 81.38 20.75 79C21.31 76.8 24.74 73.49 28.38 71.65C32.02 69.81 74.73 28.17 78.06 23.5C81.39 18.82 84.05 13.65 83.98 12C83.9 10.35 86.35 7.79 89.42 6.3C92.51 4.81 97.46 4.14 100.5 4.8C103.52 5.46 108.21 8.02 110.91 10.5C114.99 14.25 207.35 191.35 209 193C210.65 194.65 211.55 196.9 211 198C210.45 199.1 210.9 200 212 200C213.1 200 214.44 194.82 214.97 188.5C215.5 182.17 215.28 161.7 214.47 143C213.66 124.3 213.45 105.89 214 102.09C214.8 96.53 217.56 93.08 228 84.55C235.15 78.7 285.95 45.3 292 40.54C298.05 35.78 305.7 29.39 309 26.33C312.3 23.28 349.95 2.18 367 1.91ZM199.26 241.5C198.57 243.97 196.65 246.45 195 247C193.35 247.55 169.43 267.72 165.38 273.5C160.85 279.95 158 286.32 158 290C158 293.3 157.1 296 156 296C154.9 296 159.15 430.28 161.5 430.87C163.42 431.35 172.2 431.92 181 432.14C189.8 432.36 199.25 432.43 202 432.3C204.75 432.17 208.68 430.93 210.74 429.53C214.22 427.17 214.51 422.92 215.1 366C215.45 332.45 216.35 295.55 217.1 284C217.86 272.45 218.46 261.2 218.44 259C218.43 256.8 217.64 249.81 216.71 243.48C215.77 237.14 214.1 231.86 213 231.74C211.9 231.62 210.32 231.63 209.5 231.76C208.67 231.89 208.43 230.65 208.96 229C209.49 227.35 209.55 226 209.08 226C208.62 226 206.5 228.47 204.38 231.5C202.26 234.52 199.96 239.02 199.26 241.5ZM437.5 106.07C440.54 106.02 442.97 107.95 445 112C446.65 115.3 448.03 118.22 448.06 118.5C448.09 118.77 446.52 120.9 444.56 123.23C441.37 127.02 441 132.28 441 173.8C441 206.8 466.95 400.15 465.74 404C464.52 407.85 460.26 414.39 456.27 418.53C452.27 422.67 447.87 426.05 446.5 426.03C445.12 426.01 441.07 429.16 437.5 433.02C433.92 436.88 429.87 440.03 428.5 440.02C427.12 440.01 420.37 445.43 413.5 452.07C406.62 458.71 399.65 464.07 398 463.98C396.35 463.89 393.65 465.25 392 467C390.35 468.75 386.97 470.14 384.5 470.09C381.48 470.03 379.3 468.19 377.87 464.5C376.7 461.47 373.54 456.75 370.85 454C368.15 451.25 365.08 445.4 364.02 441C362.96 436.6 362.08 428.95 362.06 424C362.04 419.05 360.15 404.65 357.87 392C355.58 379.35 354.18 365.85 354.76 362C355.34 358.15 354.98 354.1 353.96 353C352.88 351.85 351.94 316.65 351.74 270C351.52 219.55 352.2 183.72 353.56 175C354.76 167.3 357.38 158.1 359.37 154.56C361.59 150.61 370.37 143.25 382 135.58C392.45 128.69 408.2 119.24 417 114.59C425.8 109.94 435.02 106.11 437.5 106.07Z" />
</svg>