<svg xmlns="http://www.w3.org/2000/svg" viewBox="0 0 486 646" width="486" height="646">
	<style>
		tspan { white-space:pre }
		.shp0 { fill: #000000 } 
	</style>
	<path id="L" class="shp0" d="M428.46 2.52C427.41 3.88 425.89 7.7 425.08 11C424.27 14.3 420.15 20.15 415.94 24C411.73 27.85 403.49 34.93 397.64 39.73C391.79 44.52 381.6 52.39 375 57.2C368.4 62.02 340.5 76.98 335 78.62C329.5 80.25 320.5 82.67 315 83.99C309.5 85.31 303.65 86.86 302 87.43C300.35 88 293.6 88.29 287 88.07C280.4 87.85 274.1 86.95 273 86.07C271.9 85.19 266.5 83.49 261 82.3C255.5 81.1 245.83 77.62 239.51 74.56C233.2 71.5 134.2 5 116.4 5L91 5C55.35 23.14 43.3 29.89 41.21 31.7C39.13 33.52 33.28 36.9 28.21 39.23C23.15 41.56 14.72 47.18 9.5 51.73C4.09 56.44 0 61.72 0 64C0 66.2 0.45 69.35 1 71C1.73 73.19 4.84 73.96 12.5 73.84C18.27 73.76 21.65 73.22 20 72.66C17.9 71.95 19.39 70.12 25 66.54C29.58 63.61 37.27 60.97 43 60.35C52.42 59.33 54.03 59.9 70.71 70.14C80.46 76.11 89.3 82.8 90.37 85C91.45 87.2 97.32 92.6 103.42 97C109.52 101.4 116.65 107.02 119.26 109.5C121.87 111.97 124.9 114 126 114C127.1 114 128 114.67 127.99 115.5C127.99 116.32 129.66 117.9 131.71 119C133.76 120.1 139.39 123.64 144.22 126.87C149.05 130.1 159.3 136.02 167 140.02C174.7 144.02 184.15 147.91 188 148.66C191.85 149.41 204.45 150.12 216 150.24C227.55 150.36 241.5 149.78 247 148.97C252.5 148.15 259.47 146.25 262.5 144.74C265.52 143.23 269.57 142.01 271.5 142.03C273.42 142.04 279.27 139.34 284.5 136.03C289.72 132.71 295.12 129.99 296.5 129.97C297.87 129.96 303.05 127.96 308 125.54C312.95 123.12 321.5 118.18 327 114.56C332.5 110.94 337.74 107.98 338.64 107.99C339.55 107.99 341.8 106.59 343.64 104.87C345.49 103.15 347.57 102.48 348.28 103.37C348.98 104.27 350.16 124.8 350.9 149C351.69 174.73 351.39 203.8 350.18 219C349.04 233.3 347.86 253.69 347.56 264.3C347.25 274.92 346.32 283.25 345.5 282.8C344.67 282.36 343.55 283.8 343 286C342.33 288.67 325.93 298.02 320.95 300.5C315.97 302.97 280.6 323.15 274 327C267.4 330.85 258.62 334.86 254.5 335.91C250.37 336.95 242.95 340.07 238 342.82C233.05 345.58 206.95 363.57 202 368C195.37 373.93 165.37 387.67 162.05 388.5C158.72 389.32 154.42 391.63 152.5 393.61C150.57 395.6 144.5 398.72 139 400.55C133.5 402.39 123.6 407.53 117 411.99C110.4 416.44 102.01 422.09 98.35 424.54C94.7 426.99 86.15 433.06 79.35 438.03C72.56 443 65.65 449.82 64 453.19C62.35 456.56 57.77 463.3 53.82 468.16C49.88 473.02 44.48 482.85 41.84 490C37.8 500.9 37.04 506.55 37.11 525C37.18 541.28 38.09 548.95 40.6 554.5C42.47 558.62 44.9 562 46 562C47.1 562 51.03 566.72 54.73 572.5C58.44 578.27 70.29 592.9 81.07 605C91.85 617.1 103.9 629.43 107.84 632.39C111.78 635.36 117.47 639.63 120.5 641.89C123.52 644.15 127.12 645.98 128.5 645.95C129.87 645.92 135.27 642.77 140.5 638.95C145.72 635.13 151.53 629.52 153.4 626.5C155.27 623.47 164.04 614.06 172.9 605.58C181.75 597.1 190.35 590.09 192 590C193.65 589.92 196.82 587.85 199.05 585.42C201.27 582.99 204.1 579.2 205.32 577C207.12 573.78 174.8 546.8 166 538C157.2 529.2 150.01 520.42 150.02 518.5C150.03 516.57 134.89 481.85 135.72 478C136.56 474.15 134.5 457.45 139.71 449C143.11 443.5 160.6 423.5 165 420.53C169.4 417.55 177.95 410.91 184 405.76C190.05 400.62 200.85 392.73 208 388.22C215.15 383.72 225.5 377.65 231 374.73C236.5 371.81 241.9 368.24 243 366.79C244.1 365.35 254.67 358.73 266.5 352.08C278.32 345.44 288.45 340 289 340C289.55 340 297.87 336.25 307.5 331.68C317.12 327.1 325.9 323.22 327 323.05C328.1 322.89 331.02 322.14 333.5 321.38C335.97 320.62 338.9 318.2 340 316C341.1 313.8 342.9 312 344 312C345.1 312 346.55 314.92 347.23 318.5C347.9 322.07 348.79 334.9 349.2 347C349.61 359.1 349.97 369.9 349.99 371C350.02 372.1 349.43 386.5 348.67 403C347.34 432.35 365.36 486.6 369.69 491C374.01 495.4 381.93 501.99 387.28 505.63L397 512.27C407.85 506.93 438.41 485.92 446.25 478.5C454.09 471.07 461.91 463.65 463.62 462C465.33 460.35 470.17 457.42 474.37 455.5C478.57 453.57 482 451.1 482 450C482 448.9 482.9 448.45 484 449C485.23 449.61 485.81 446.32 485.5 440.5C485.05 432.01 484.47 430.94 480 430.43C477.25 430.12 471.65 426.52 467.56 422.43C463.47 418.34 457.82 412.3 455 409C452.17 405.7 449.9 401.42 449.93 399.5C449.97 397.57 435.43 307.65 435.57 284C435.72 255.86 436.64 207.2 436.98 183C437.32 158.8 437.68 136.75 437.76 134C437.85 131.25 439.24 74.31 440.35 63C441.21 54.2 442.16 37.4 442.46 25.66C442.76 13.93 442.55 3.93 442 3.44C441.45 2.96 438.61 1.99 435.69 1.3C432.44 0.53 429.63 1 428.46 2.52Z" />
</svg>