<svg xmlns="http://www.w3.org/2000/svg" viewBox="0 0 334 560" width="334" height="560">
	<style>
		tspan { white-space:pre }
		.shp0 { fill: #000000 } 
	</style>
	<path id="m-" fill-rule="evenodd" class="shp0" d="M126 1.24C129.85 1.85 133.26 2.5 133.58 2.68C133.91 2.86 134.74 8.85 135.45 16C136.15 23.15 136.74 31.7 136.75 35C136.77 38.3 136.07 47.75 135.2 56C134.33 64.25 129.74 90.3 129.19 109C128.64 127.7 128.12 154.25 128.02 168C127.93 181.75 128.65 204.7 129.63 219C130.61 233.3 132.45 247.47 133.71 250.5C134.97 253.52 136 260.05 136 265C136 273.92 136.08 274.02 144.5 276.15C149.17 277.34 160.2 278.14 169 277.93C177.8 277.73 189.5 278.06 195 278.67C200.5 279.28 213.55 280.23 224 280.77C234.45 281.32 249.97 283.62 258.5 285.89C267.02 288.15 277.6 291.8 282 294C286.4 296.2 293.37 301.64 297.5 306.08C301.62 310.53 330.23 351.5 331.33 357C332.42 362.5 333 377.35 332.62 390C332.18 404.46 330.73 416.34 328.69 422C326.92 426.95 323.48 433.7 321.05 437C318.62 440.3 300.9 471.22 298.45 471.5C296 471.77 273.72 494.6 268.5 497.78C263.27 500.96 257.42 505.91 255.5 508.78C253.57 511.65 202.75 538.47 200 540.94C196.24 544.33 136.43 557 105 558.28C65.57 559.89 53.42 552.01 51.5 551.3C49.57 550.58 47.95 548.42 47.89 546.5C47.83 544.57 47.61 531.75 47.41 518C47.21 504.25 47.9 475.45 48.94 454C49.98 432.55 50.82 409.6 50.8 403C50.79 396.4 46.17 247.55 45.36 236C44.55 224.45 42.95 203.75 41.82 190C40.68 176.25 38.23 159.75 36.37 153.34C34.01 145.18 30.74 139.49 25.47 134.34C21.33 130.3 17.92 126.1 17.9 125C17.87 123.9 14.29 119.17 9.93 114.5C5.57 109.82 1.55 103.75 1 101C0.17 96.85 2.38 93.7 13.94 82.5C21.6 75.07 32.63 66.04 38.44 62.43C44.25 58.81 53.05 52.01 58 47.31C62.95 42.61 101.95 13.98 108 9.06C117.61 1.25 119.89 0.26 126 1.24ZM134 364C134.02 380.27 135.42 392.65 137.12 402C138.82 411.35 142.51 424.85 145.31 432C148.11 439.15 151.18 446.35 152.14 448C153.1 449.65 155.49 454.06 157.44 457.8C159.47 461.67 165.73 467.63 172 471.66C182.69 478.53 183.39 478.69 197 477.41C204.7 476.69 216.4 474.19 223 471.87C229.6 469.55 236.35 466.49 238 465.06C239.65 463.63 244.6 460.63 249 458.4C253.4 456.16 272.87 432.3 274.9 429C278.23 423.61 278.32 422.31 275.8 416.16C274.26 412.4 270.78 407.9 268.08 406.16C265.37 404.42 259.05 398.95 254.03 394C248.06 388.11 239.74 382.83 229.95 378.73C221.73 375.28 210.05 371.85 204 371.12C197.95 370.38 187.6 368.56 181 367.07C174.4 365.57 165.85 363.99 162 363.55C158.15 363.12 150.27 363.04 144.5 363.38L134 364Z" />
</svg>