<svg xmlns="http://www.w3.org/2000/svg" viewBox="0 0 482 560" width="482" height="560">
	<style>
		tspan { white-space:pre }
		.shp0 { fill: #000000 } 
	</style>
	<path id="M" fill-rule="evenodd" class="shp0" d="M274 1.24C277.85 1.85 281.26 2.5 281.58 2.68C281.91 2.86 282.74 8.85 283.45 16C284.15 23.15 284.74 31.7 284.75 35C284.77 38.3 284.07 47.75 283.2 56C282.33 64.25 277.74 90.3 277.19 109C276.64 127.7 276.12 154.25 276.02 168C275.93 181.75 276.65 204.7 277.63 219C278.61 233.3 280.45 247.47 281.71 250.5C282.97 253.52 284 260.05 284 265C284 273.92 284.08 274.02 292.5 276.15C297.17 277.34 308.2 278.14 317 277.93C325.8 277.73 337.5 278.06 343 278.67C348.5 279.28 361.55 280.23 372 280.77C382.45 281.32 397.97 283.62 406.5 285.89C415.02 288.15 425.6 291.8 430 294C434.4 296.2 441.37 301.64 445.5 306.08C449.62 310.53 478.23 351.5 479.33 357C480.42 362.5 481 377.35 480.62 390C480.18 404.46 478.73 416.34 476.69 422C474.92 426.95 471.48 433.7 469.05 437C466.62 440.3 448.9 471.22 446.45 471.5C444 471.77 421.72 494.6 416.5 497.78C411.27 500.96 405.42 505.91 403.5 508.78C401.57 511.65 350.75 538.47 348 540.94C344.24 544.33 284.43 557 253 558.28C213.57 559.89 201.42 552.01 199.5 551.3C197.57 550.58 195.95 548.42 195.89 546.5C195.83 544.57 195.61 531.75 195.41 518C195.21 504.25 195.9 475.45 196.94 454C197.98 432.55 198.82 409.6 198.8 403C198.79 396.4 197.93 385.37 196.89 378.48C195.02 366.06 194.94 365.96 188.5 365.98C184.92 365.99 179.97 367.23 177.5 368.73C175.02 370.23 159.5 373.05 143 375C119.67 377.75 77.35 377.86 68 377.76C55.8 377.62 47.33 378.75 38 381.76C30.85 384.06 22.07 385.96 18.5 385.97C14.92 385.99 9.75 385.1 7 384C3.42 382.57 1.77 380.16 1.2 375.5C0.76 371.92 1.66 366.97 3.2 364.5C4.74 362.02 57.05 303.21 62 299.66C70.77 293.38 71.62 293.19 95 292.55C108.2 292.18 127.55 290.95 138 289.81C148.45 288.66 165.55 286.66 195 283L194.92 270C194.87 262.85 194.17 247.55 193.36 236C192.55 224.45 190.95 203.75 189.82 190C188.68 176.25 186.23 159.75 184.37 153.34C182.01 145.18 178.74 139.49 173.47 134.34C169.33 130.3 165.92 126.1 165.9 125C165.87 123.9 162.29 119.17 157.93 114.5C153.57 109.82 149.55 103.75 149 101C148.17 96.85 150.38 93.7 161.94 82.5C169.6 75.07 180.63 66.04 186.44 62.43C192.25 58.81 201.05 52.01 206 47.31C210.95 42.61 249.95 13.98 256 9.06C265.61 1.25 267.89 0.26 274 1.24ZM282 364C282.02 380.27 283.42 392.65 285.12 402C286.82 411.35 290.51 424.85 293.31 432C296.11 439.15 299.18 446.35 300.14 448C301.1 449.65 303.49 454.06 305.44 457.8C307.47 461.67 313.73 467.63 320 471.66C330.69 478.53 331.39 478.69 345 477.41C352.7 476.69 364.4 474.19 371 471.87C377.6 469.55 384.35 466.49 386 465.06C387.65 463.63 392.6 460.63 397 458.4C401.4 456.16 420.87 432.3 422.9 429C426.23 423.61 426.32 422.31 423.8 416.16C422.26 412.4 418.79 407.9 416.08 406.16C413.37 404.42 407.05 398.95 402.03 394C396.06 388.11 387.74 382.83 377.95 378.73C369.73 375.28 358.05 371.85 352 371.12C345.95 370.38 335.6 368.56 329 367.07C322.4 365.57 313.85 363.99 310 363.55C306.15 363.12 298.27 363.04 292.5 363.38L282 364Z" />
</svg>