<svg xmlns="http://www.w3.org/2000/svg" viewBox="0 0 296 594" width="296" height="594">
	<style>
		tspan { white-space:pre }
		.shp0 { fill: #000000 } 
	</style>
	<path id="N" class="shp0" d="M103.94 1.86C100.06 2.74 95.89 4.7 94.67 6.23C93.45 7.75 88.53 10.76 83.73 12.91C78.93 15.06 72.75 19.3 70 22.33C67.25 25.36 60.92 29.9 55.94 32.42C50.8 35.02 41.48 43.07 34.41 51C27.56 58.7 19.67 77.95 16.86 84C14.06 90.05 10.83 98.6 9.7 103C8.56 107.4 6.41 117.3 4.92 125C3.41 132.82 1.63 161.09 0.89 189C-0.1 226.25 0.2 241.29 2.05 248C3.42 252.95 5.4 272.75 6.44 292C7.48 311.25 8.56 334.65 8.85 344C9.13 353.35 10.08 397.45 10.95 442C11.83 486.55 12.64 535.95 12.77 551.77L13 580.54L13 592C33.15 585.22 80.62 558.25 90.99 550C101.36 541.75 116.01 531.85 123.54 528C131.07 524.15 190.8 484.6 193 483.65C195.25 482.67 198.46 477.77 200.33 472.45C203.58 463.22 203.55 462.89 199.33 458.43C195.84 454.74 191.51 453.45 177 451.77C164.37 450.3 155.72 450.32 148 451.81C141.95 452.99 135.2 453.45 133 452.84C130.8 452.23 125.4 453.02 121 454.6C116.6 456.17 111.65 458.04 110 458.75C107.37 459.89 106.94 450.77 106.51 384.52C106.24 342.98 106.79 303.15 107.72 296C108.73 288.21 108.57 272.97 107.31 258C106.15 244.25 105.18 226.7 105.15 219C105.12 211.3 105.44 196.9 105.86 187C106.27 177.1 105.89 157.75 105 144C104.11 130.25 103.97 116.52 104.69 113.5C105.41 110.47 107.12 107.98 108.5 107.96C109.87 107.93 186.8 180.98 189 183.86C191.2 186.73 199.3 195.61 207 203.59C214.7 211.57 222.57 218.07 224.5 218.05C226.42 218.02 231.6 215.75 236 213C240.4 210.25 248.27 202.47 253.5 195.72C258.72 188.96 266 180.63 269.67 177.22C273.34 173.8 280.77 166.72 286.17 161.5C292.79 155.1 296 150.37 296 147C296 144.25 294.81 139.07 293.35 135.5C291.89 131.92 288.97 126.83 286.85 124.19C284.73 121.54 279.88 115.69 276.07 111.19C272.26 106.68 263.44 96.7 256.48 89C249.51 81.3 242.73 73.85 241.4 72.44C240.08 71.04 233.6 65.14 227 59.33C220.4 53.52 211.85 46.61 208 43.98C204.15 41.35 129.6 1.89 123 1.31C116.4 0.73 107.82 0.98 103.94 1.86Z" />
</svg>