<svg xmlns="http://www.w3.org/2000/svg" viewBox="0 0 548 564" width="548" height="564">
	<style>
		tspan { white-space:pre }
		.shp0 { fill: #000000 } 
	</style>
	<path id="o-" class="shp0" d="M257 3.2C250.4 4.83 242.97 7.47 240.5 9.08C238.02 10.69 234.87 11.99 233.5 11.99C232.12 11.98 224.25 16.15 216 21.25C207.75 26.35 197.33 33.78 192.84 37.76C188.35 41.74 124.94 87.7 120.7 91C116.47 94.3 112.61 97.9 112.13 99C111.65 100.1 102.65 109.43 92.13 119.73C81.61 130.03 71.42 139.26 69.5 140.23C67.57 141.2 61.05 148.3 55 156C48.95 163.7 24.12 197.7 21.65 201C17.8 206.15 16.94 210.7 15.54 233C14.65 247.3 17.19 339.5 18.94 345C20.68 350.5 23.46 366.7 25.11 381C26.76 395.3 28.54 421.85 29.05 440C29.63 460.27 29.14 476.86 27.78 483C26.57 488.5 23.77 498.85 21.56 506C19.34 513.15 16.31 520.35 14.82 522C13.32 523.65 12.08 526.12 12.05 527.5C12.02 528.87 9.3 534.05 6 539C0.67 547 0.22 548.78 2 555C3.73 561.06 5 562.15 11.5 563.11C15.62 563.73 21.47 563.28 24.5 562.11C27.52 560.95 29.98 558.87 29.96 557.5C29.93 556.12 32.86 553.42 36.46 551.49C40.06 549.57 47.95 543.9 54 538.89C60.05 533.89 66.8 528.15 69 526.13C71.2 524.11 131.88 456.05 134.51 450C138.66 440.46 139.14 437.01 138.12 424C137.47 415.75 131.3 247.55 130.65 236C130 224.45 135.25 167.27 136.79 161.5C138.32 155.72 141.11 146.95 142.98 142C145.06 136.51 150.5 129.1 156.92 123C162.71 117.5 170.95 111.84 175.22 110.42C179.5 109 194.02 106.97 207.5 105.92C220.97 104.86 234.02 102.96 236.5 101.69C238.97 100.43 246.4 99.41 253 99.45C259.6 99.48 281.2 99.87 301 100.31C330.98 100.98 366.27 116.63 371.5 119.84C376.72 123.05 383.59 129.58 386.76 134.34C390.08 139.34 392.78 146.38 393.14 151C393.48 155.4 394.23 164.85 394.81 172C395.39 179.15 395 192.65 393.95 202C392.91 211.35 391.75 425.9 392.45 427C393.15 428.1 394.72 437.55 395.94 448C397.16 458.45 400.03 473.3 402.31 481C404.59 488.7 407.87 499.05 409.59 504C411.31 508.95 414.58 514.43 416.86 516.17C419.14 517.91 423.7 525.29 427 532.56C431.63 542.77 434.14 546.01 438 546.8C440.75 547.36 450.2 547.03 459 546.06C467.8 545.1 477.7 543.66 481 542.87C484.3 542.08 494.2 538.05 503 533.9C511.8 529.76 523.47 523.36 528.94 519.68C534.41 516.01 540.92 509.4 543.41 505C545.9 500.6 547.95 494.07 547.97 490.5C547.99 485.48 546.63 483.09 542 480C538.7 477.8 534.42 475.97 532.5 475.94C530.57 475.91 524.5 473.31 519 470.17C512.99 466.74 505.87 460.18 501.14 453.73C496.82 447.83 491.55 438.5 489.42 433C486.14 424.56 485.46 416.93 485 384C484.71 362.55 485.26 332.85 486.23 318C487.2 303.15 488.42 277.5 488.96 261C489.49 244.5 490.44 223.35 491.07 214C491.71 204.65 493.07 193.17 494.11 188.5C495.15 183.82 495.6 179.32 495.1 178.5C494.61 177.67 495.15 165.3 496.29 151C497.44 136.7 498.28 113.75 498.16 100C498 81.57 497.01 72.37 494.38 65C492.43 59.5 489.37 52.3 487.59 49C485.81 45.7 481.56 40.3 478.14 37C474.71 33.7 467.35 24.82 461.55 22.16C454.5 18.92 445.02 16.78 433 15.7C423.1 14.81 406.45 13.1 396 11.91C385.55 10.71 368 8.38 357 6.73C346 5.07 323.5 3.41 307 3.04C290.5 2.67 275.2 1.89 273 1.31C270.8 0.72 263.6 1.57 257 3.2Z" />
</svg>