<svg xmlns="http://www.w3.org/2000/svg" viewBox="0 0 524 588" width="524" height="588">
	<style>
		tspan { white-space:pre }
		.shp0 { fill: #000000 } 
	</style>
	<path id="O" fill-rule="evenodd" class="shp0" d="M325.45 2.83C330.37 4.33 337.69 10.53 349.27 23C358.47 32.9 366.94 41.9 368.1 43C369.26 44.1 371.45 46.35 372.98 48C374.5 49.65 379.63 55.83 384.38 61.74C389.12 67.65 394.09 74.4 395.43 76.74C396.77 79.08 403.37 86.85 410.11 94C416.84 101.15 423.75 109.7 425.45 113C427.16 116.3 429.19 119.45 429.96 120C430.74 120.55 434.45 125.5 438.22 131C441.98 136.5 446.56 144.15 448.38 148C450.21 151.85 453.12 158.37 454.85 162.5C456.75 167.03 466.61 287.6 467.13 303C467.65 318.4 467.99 341.35 467.87 354C467.76 366.65 467.56 386.45 467.44 398C467.31 409.55 467.89 425.75 468.74 434C469.59 442.25 471.34 450.58 472.64 452.51C474.32 455 479.64 456.62 491 458.1C499.8 459.24 509.02 460.58 511.5 461.09C514.41 461.68 517.08 464.65 519.05 469.5C520.73 473.62 522.08 478.8 522.07 481C522.05 483.2 520.22 488.6 518 493C515.78 497.4 432.5 581.36 427 583.92C419.68 587.33 415.12 588.24 410 587.32C406.15 586.63 401.47 584.02 399.59 581.53C397.72 579.04 394.74 572.95 392.96 568C391.19 563.05 387.89 554.95 385.64 550C382.41 542.92 381.57 537.17 381.72 523C381.82 513.1 382.83 500.05 383.96 494C385.1 487.95 386 461.85 385.96 436C385.93 410.15 385.66 385.4 385.36 381C385.05 376.6 384.63 356.12 384.4 335.5C384.02 299.84 383.8 297.95 380 297C377.58 296.39 370.28 299.2 361.5 304.11C353.52 308.57 344.3 313.01 341 313.99C337.7 314.96 313.17 323.94 308.5 326.09C303.82 328.24 299.32 329.97 298.5 329.94C297.67 329.9 270.95 344.73 266 346.17C260.74 347.7 238.53 364.34 221.5 370.92C208.57 375.91 197.55 380 197 380C196.45 380 192.17 381.7 187.5 383.78C182.82 385.86 173.15 389.82 166 392.58C158.85 395.35 149.4 398.71 145 400.05C140.6 401.39 132.05 405.7 126 409.63C119.95 413.57 113.9 418.18 112.56 419.89C111.04 421.84 110.1 430.3 110.06 442.5C110.03 453.22 108.2 473.25 106 487C103.8 500.75 101.1 513.8 100 516C98.9 518.2 98 521.8 98 524C98 526.2 92.82 533.27 86.5 539.72C77.69 548.7 72.43 552.26 64 554.94C57.95 556.87 44 559.14 33 559.99C22 560.84 11.2 560.87 9 560.06C6.46 559.12 4.15 555.37 2.66 549.79C0.82 542.86 0.89 538.89 2.99 531C4.46 525.5 6.67 513.35 7.89 504C9.12 494.65 10.5 483.85 10.96 480C11.42 476.15 14.88 234.45 23.65 225C28.75 219.5 33.84 214.64 34.96 214.2C36.08 213.76 37.45 212.8 38 212.06C38.55 211.33 141.7 124.2 145 122.82C148.3 121.43 191.16 88.05 194.65 84.44C198.14 80.83 201.67 77.91 202.5 77.94C203.32 77.97 291.83 17.4 296.94 13C302.04 8.6 308.95 4.02 312.28 2.83C316.64 1.27 320.34 1.27 325.45 2.83ZM205 104.83C201.7 106.36 195.17 111.3 190.5 115.8C185.82 120.31 178.27 126.47 173.7 129.5C169.14 132.52 164.03 135.9 162.36 137C160.69 138.1 157.53 140.35 155.34 142C153.16 143.65 147.82 148.15 143.47 152C139.13 155.85 133.33 163.95 130.59 170C127.85 176.05 124.45 184.6 123.05 189C121.64 193.4 119.08 205.1 117.36 215C115.63 224.9 113.67 239.75 113 248C112.33 256.25 111.38 266.82 110.89 271.5C110.4 276.17 110.45 280 111 280C111.55 280 117.4 277.3 124 274C130.6 270.7 148.37 263.94 163.5 258.98C178.62 254.01 197.3 247.6 205 244.72C212.7 241.84 224.62 236.9 231.5 233.74C238.37 230.58 245.12 227.98 246.5 227.95C247.87 227.92 250.35 226.74 252 225.32C253.65 223.9 262.2 220.65 271 218.09C279.8 215.54 297.8 208.04 311 201.42C324.2 194.81 337.02 188.41 339.48 187.2C341.95 185.99 344 184.55 344.04 184C344.09 183.45 338.22 176.25 331.01 168C323.8 159.75 314.95 151.2 311.33 149C307.72 146.8 300.41 141.4 295.08 137C289.75 132.6 281.7 125.62 277.2 121.5C272.69 117.37 268.32 114 267.5 114C266.67 114 260.87 109.5 254.6 104C248.33 98.5 242.03 94 240.6 94C239.17 94 235.41 92.72 232.25 91.16C226.76 88.45 226.13 88.64 218.75 95.18C214.49 98.96 208.3 103.3 205 104.83ZM344 209.4C340.15 211 333.17 214.04 328.5 216.16C323.82 218.27 291.15 231.15 284 234.49C276.85 237.83 268.3 241.94 265 243.63C261.7 245.32 258.55 247.22 258 247.85C257.45 248.49 211.35 266.36 202 271.33C192.65 276.31 147.2 300.74 145 301.38C142.8 302.01 135.6 305 129 308.01C122.4 311.03 115.42 314.06 113.5 314.75C110.36 315.87 109.99 319.44 109.94 349.5C109.91 367.92 110.36 383.67 110.94 384.5C111.52 385.32 114.47 384.99 117.5 383.75C120.52 382.51 158.07 370.69 165.5 366.63C172.92 362.58 187.55 354.85 198 349.44C208.45 344.04 218.35 338.41 220 336.93C221.65 335.45 227.5 332.3 233 329.91C238.5 327.53 249.52 322.53 257.5 318.79C265.47 315.06 272.9 312 274 312C275.1 312 277.57 311.12 279.5 310.04C281.42 308.97 290.65 305.25 300 301.78C309.35 298.31 318.35 294.47 320 293.24C321.65 292.01 325.02 289.87 327.5 288.5C329.97 287.12 332.9 286 334 286C335.1 286 339.37 284.57 343.5 282.83C347.62 281.09 354.15 278.32 358 276.68C361.85 275.03 368.82 271.51 373.5 268.84L382 264C377.09 244.62 373.23 231.35 370.27 222C366.04 208.66 364.03 204.92 360.94 204.62C358.77 204.41 355.65 204.75 354 205.36C352.35 205.98 347.85 207.8 344 209.4Z" />
</svg>