<svg xmlns="http://www.w3.org/2000/svg" viewBox="0 0 510 584" width="510" height="584">
	<style>
		tspan { white-space:pre }
		.shp0 { fill: #000000 } 
	</style>
	<path id="P" fill-rule="evenodd" class="shp0" d="M63 0.15C64.1 -0.03 67.98 2.79 71.61 6.41C75.25 10.04 81.22 18.4 84.89 25C88.55 31.6 92.78 38.17 94.27 39.59C96.3 41.51 102.04 41.9 116.5 41.09C127.22 40.49 141.62 40.86 148.5 41.91C155.37 42.96 169.55 44.25 180 44.78C190.45 45.31 211.15 44.87 226 43.81C240.85 42.74 257.95 41.41 264 40.84C272.86 40.01 275.7 40.51 278.57 43.4C280.53 45.38 288.91 58.36 288.18 83.21C287.73 98.5 287.38 122.7 287.4 137C287.42 151.3 288.43 168.85 289.65 176C290.86 183.15 292.11 201 292.43 215.68C292.74 230.35 293.9 243.21 295 244.25C296.1 245.3 301.95 245.66 308 245.04C314.05 244.43 326.2 243.21 335 242.33C343.8 241.45 351.9 241.24 353 241.87C354.1 242.49 360.4 244.05 367 245.35C373.6 246.64 383.95 248.75 390 250.04C396.05 251.34 404.37 254.1 408.5 256.2C412.62 258.29 417.53 262.47 419.4 265.5C421.27 268.52 426.45 275.1 430.9 280.1C435.36 285.11 440.81 291.41 443.01 294.1C445.22 296.8 449.96 303.5 453.56 309C457.15 314.5 471.92 348.65 474.8 358C477.68 367.35 481.36 382.2 482.98 391C484.61 399.8 486.8 411.95 487.87 418C488.93 424.05 490.74 438.45 491.88 450C493.03 461.55 493.95 478.65 493.93 488C493.91 499.9 494.74 505.9 496.71 508C498.26 509.65 500.18 513.25 500.97 516C501.77 518.75 503.53 522.8 504.9 525C506.26 527.2 507.87 531.7 508.46 535C509.05 538.3 508.29 544.82 506.77 549.5C504.51 556.44 429.72 579.11 424.5 578.03C419.27 576.95 412.52 573.8 409.5 571.03C406.12 567.94 403.97 563.88 403.92 560.5C403.88 557.47 402.49 554.1 400.84 553C399.19 551.9 397.03 547.85 396.05 544C395.07 540.15 392.91 532.05 391.24 526C389.57 519.91 387.26 497.6 386.07 476C384.89 454.55 383.56 423.5 383.12 407C382.68 390.5 380.79 368.9 378.9 359C376.24 345 373.87 338.66 368.24 330.44C361.65 320.82 334.78 312.09 326 311.16C318.85 310.41 309.4 310.36 297 312.29L295.25 339.64C294.29 354.69 293.39 379.46 293.25 394.68C293.11 409.91 289.87 486.6 289.56 491C289.07 498.01 289.56 499.06 293.5 499.5C295.97 499.77 300.7 498.2 304 496C307.3 493.8 313.15 492 317 492C320.85 492 325.48 492.67 327.28 493.5C329.09 494.32 331.79 497.47 333.28 500.5C335.48 504.94 335.55 508.03 333.65 516.5C332.36 522.27 328.98 530.52 326.15 534.81C322.57 540.24 315.82 545.58 304 552.32C294.65 557.65 284.75 563.01 282 564.22C279.25 565.43 237.72 580.9 232.5 582.01C227.03 583.17 220.45 583.31 217 582.36C213.6 581.41 209.53 578.16 207.6 574.85C204.87 570.15 204 561.92 203.19 533C202.63 513.2 201.14 490.7 199.88 483C198.62 475.3 197.24 443.35 196.82 412C196.39 380.65 195.72 352.75 195.33 350C194.94 347.25 194.48 339.6 194 321C194 321 97.42 291.89 95.5 291.93C93.57 291.97 89.25 288.62 85.88 284.5C82.52 280.37 77.21 274.3 74.07 271C69.11 265.77 67.97 262.17 65.22 243C63.48 230.9 56.09 126.05 56.09 109L49.55 110.54C45.85 111.41 36.03 111.02 27 109.65C14.92 107.81 9.58 105.96 5.22 102.1C-0.2 97.31 -0.5 96.26 0.38 85C1 77.15 32.29 24.07 38.76 16.59C45.58 8.71 52.72 2.47 55.76 1.74C58.64 1.04 61.9 0.33 63 0.15ZM175.01 101.76C170.28 101.9 165.63 103.43 163.63 105.5C161.04 108.17 160 113.98 159.23 130C158.67 141.55 157.56 162.25 156.76 176C155.44 198.59 159.65 234.17 163 234.12C165.2 234.09 170.15 235.19 174 236.56C177.85 237.94 184.15 240.62 188 242.53C191.85 244.43 195.2 245.77 195.45 245.5C195.69 245.22 196.7 227.45 197.7 206C198.69 184.55 199.39 151.78 199.25 133.18C199.1 112.45 198.23 99.19 197 98.93C195.9 98.69 192.3 99.18 189 100.01C185.7 100.85 179.4 101.63 175.01 101.76Z" />
</svg>