<svg xmlns="http://www.w3.org/2000/svg" viewBox="0 0 500 634" width="500" height="634">
	<style>
		tspan { white-space:pre }
		.shp0 { fill: #000000 } 
	</style>
	<path id="Q" fill-rule="evenodd" class="shp0" d="M484.5 0.27C486.42 0.12 489.8 0.9 492 2C494.69 3.35 496.38 6.78 497.17 12.5C497.81 17.17 497.54 24.15 496.57 28C495.52 32.15 407.05 90.95 401 97C394.95 103.05 390.02 108.67 390.04 109.5C390.06 110.32 388.49 112.86 386.54 115.12C384.59 117.39 380.97 123.02 378.5 127.62C376.02 132.23 374.01 137.12 374.03 138.5C374.05 139.87 371.8 146.62 369.03 153.5C366.26 160.37 362.2 174.55 360 185C357.8 195.45 356.45 204.9 357 206C357.55 207.1 357.1 208.45 356 209C354.9 209.55 354 212.25 354 215C354 217.75 352.09 227.87 349.76 237.5C347.42 247.12 342.9 260.4 339.72 267C336.53 273.6 333.95 279.9 334 281C334.04 282.1 330.89 286.15 327 290C323.11 293.85 319.94 297.67 319.96 298.5C319.98 299.32 321.54 300.67 323.43 301.5C325.31 302.32 329.59 305.54 332.93 308.65C336.27 311.75 343.72 318.95 349.49 324.65C355.26 330.34 380.77 364.6 382.57 369C384.38 373.4 386.41 381.5 387.09 387C387.77 392.5 389.14 399.7 390.14 403C391.14 406.3 392.35 419.8 392.83 433C393.3 446.2 394.75 461.95 396.04 468C397.34 474.05 400.11 481.47 402.2 484.5C404.29 487.52 406.03 491.12 406.06 492.5C406.1 493.87 409.08 498.6 412.69 503C417.06 508.32 476.15 532.06 480 532.01C483.85 531.96 489.92 533.28 493.5 534.96C499.24 537.65 500 538.93 500 546C500 550.4 499.1 554 498 554C496.9 554 496 555.35 496 557C496 558.65 494.42 559.98 492.5 559.95C490.57 559.92 410.7 611.19 403 616.95C395.3 622.71 385.85 629.01 382 630.96C377.04 633.47 372.67 634.13 367 633.26C361.74 632.44 356.76 629.79 352.46 625.51C348.86 621.93 308.57 570.62 306.82 566.5C304.67 561.43 303.36 550.57 302.78 533C302.3 518.7 301.69 493.5 301.42 477C300.98 449.94 277.78 380.3 275.82 377C273.87 373.7 269.28 368.1 265.63 364.55C261.98 361.01 252.47 354.93 244.5 351.05C236.35 347.09 207.76 351.47 205.01 354.5C202.25 357.52 200 360.45 200 361C200 361.55 198.34 364.47 196.32 367.5C194.3 370.52 190.75 378.85 188.45 386C186.14 393.15 182.52 405.75 180.39 414C178.26 422.25 174.99 436.2 173.13 445C171.27 453.8 168.91 463.7 167.89 467C166.88 470.3 166.04 475.25 166.04 478C166.04 480.75 164.55 489.3 162.74 497C160.92 504.7 158.78 512.8 157.97 515C157.16 517.2 155.49 521.47 154.25 524.5C152.74 528.18 148.53 531.64 141.5 534.96C135.72 537.69 43.65 581.97 42 581.92C40.35 581.86 26.52 589.69 23.5 591.93C20.47 594.17 15.97 596.03 13.5 596.07C11.02 596.1 7.55 594.53 5.77 592.57C3.99 590.6 1.97 586.52 1.27 583.5C0.21 578.92 1.28 576.74 7.64 570.5C11.85 566.37 19.19 555.8 23.96 547C28.74 538.2 36.03 526.5 40.18 521C44.33 515.5 49.64 506.95 51.98 502C54.33 497.05 84.12 439.4 86.06 435C88.01 430.6 92.54 420.7 96.13 413C99.72 405.3 103.31 396.3 104.1 393C104.89 389.7 108.33 377.55 111.74 366C115.15 354.45 117.98 343.2 118.03 341C118.08 338.66 116.02 335.96 113.06 334.5C110.28 333.12 79.32 310.01 78.5 310.03C77.67 310.05 73.72 306.67 69.72 302.53C65.71 298.39 61.78 292.75 60.99 290C60.19 287.25 57.91 281.85 55.91 278C53.91 274.15 50.9 266.5 49.23 261C47.55 255.5 33.79 73.17 33.87 68.5C33.95 63.22 36.08 56.17 39.5 49.89C44.27 41.12 87.95 16.61 94 13.29C100.05 9.98 108.82 6.54 113.5 5.64C120.29 4.33 123.71 4.82 130.5 8.06C135.17 10.3 141.7 13.66 145 15.53C149.87 18.3 157.76 19.07 187 19.68C209.3 20.14 229.85 19.46 241 17.9C250.9 16.51 274.3 15.21 293 15.02C311.7 14.83 334.65 13.57 344 12.22C353.35 10.88 366.4 8.91 373 7.86C379.6 6.8 402.1 6.34 423 6.84C456.1 7.63 462.29 7.28 471 4.14C476.5 2.16 482.57 0.41 484.5 0.27ZM188 64.57C176.45 65.42 162.05 66.59 156 67.17C149.95 67.75 143.65 69.04 142 70.05C139.67 71.46 138.6 78.93 137.21 103.44C136.22 120.8 135.55 143.32 135.71 153.5C135.94 168.04 137.25 175.75 141.82 189.5C145.02 199.12 151.32 216 155.83 227C160.33 238 164.69 247.65 165.51 248.45C166.33 249.25 171.95 251.56 178 253.59C187.56 256.8 192.53 257.09 216 255.84C236.17 254.76 245.66 253.33 253.5 250.2C259.27 247.89 266.02 244.73 268.5 243.17C270.97 241.61 275.7 236.44 279 231.67C282.3 226.9 285.67 222.77 286.5 222.5C287.32 222.22 288 221.1 288 220C288 218.9 290.15 213.27 292.77 207.5C295.39 201.72 298.99 193.4 300.76 189C302.53 184.6 305.32 175.15 306.95 168C308.58 160.85 312.55 147.35 315.76 138C318.98 128.65 324.28 115.15 327.55 108C330.81 100.85 335.62 88.7 338.24 81C340.86 73.3 344.12 66.32 345.5 65.5C346.87 64.67 348 62.65 348 61C348 58.6 345.09 58.02 333.5 58.08C324.19 58.13 199.55 63.73 188 64.57Z" />
</svg>