<svg xmlns="http://www.w3.org/2000/svg" viewBox="0 0 446 518" width="446" height="518">
	<style>
		tspan { white-space:pre }
		.shp0 { fill: #000000 } 
	</style>
	<path id="R" class="shp0" d="M228.6 2.05C227.72 2.85 221.15 5.41 214 7.73C206.85 10.05 198.3 11.92 195 11.87C191.7 11.82 158.26 24.92 154.97 27.27C151.69 29.62 144.5 34.01 139 37.02C133.5 40.04 124.5 45.97 119 50.2C113.5 54.43 108.32 57.91 107.5 57.95C106.67 57.98 104.42 59.31 102.5 60.91C100.57 62.51 94.34 68.36 88.64 73.91C82.94 79.46 77.32 84 76.14 84C74.96 84 67.02 90.46 58.5 98.35C49.97 106.25 36.47 117.5 28.5 123.35C20.52 129.21 14 134.9 14 136C14 137.1 11.27 140.47 7.94 143.5C4.61 146.52 1.87 150.8 1.85 153C1.84 155.2 2.99 158.11 4.41 159.47C6.12 161.09 9.31 161.43 13.78 160.47C17.9 159.57 23.43 155.87 27.91 151C31.96 146.6 56.37 132.34 66 123.73C73.53 117 80.89 112.09 83.5 112.05L88 112C86.14 167.02 85.59 206.4 85.59 235C85.58 263.6 86.24 293.3 87.05 301C87.87 308.7 89.23 316.8 90.08 319C90.93 321.2 95.8 327.5 100.9 333C106.01 338.5 110.69 344.8 111.32 347C111.94 349.2 122.48 360.7 134.73 372.56C146.98 384.42 158.12 394.09 159.5 394.06C160.87 394.03 162.32 395.12 162.71 396.5C163.1 397.87 166.32 399.45 169.86 400C173.41 400.55 186.35 398.82 188 397.89C189.65 396.96 193.25 394.35 196 392.08C198.75 389.81 206.17 383.46 212.5 377.98C218.82 372.49 260.1 345.52 260.3 340.5C260.55 334.07 259.48 332.06 252.8 326.44C248.51 322.82 242.3 318.51 239 316.85C235.7 315.2 229.4 311.66 225 309.01C220.6 306.35 196.73 293.47 195 290C193.35 286.7 187.18 230.3 186.99 227C186.79 223.7 186.09 220.1 185.42 219C184.76 217.9 179.56 83.54 181.28 81.59C182.54 80.17 177.25 80.16 194.28 76.24C203.25 74.18 206.35 73.92 213 76.1C217.4 77.54 227.07 83.5 234.5 89.36C241.92 95.21 249.12 99.98 250.5 99.95C251.87 99.92 291 143 291 143C290.45 212.75 289.67 246.05 288.91 262C288.01 280.73 288.38 298.43 289.94 312C291.26 323.55 293.27 340.2 294.4 349C295.54 357.8 296.72 368.15 297.04 372C297.35 375.85 298.26 392.95 299.05 410C299.84 427.05 301.66 445.05 303.1 450C304.53 454.95 305.27 459.9 304.74 461C304.21 462.1 305.21 464.35 306.98 466C308.74 467.65 310.14 470.12 310.09 471.5C310.04 472.87 311.57 475.86 313.5 478.14C315.42 480.42 319.7 483.43 323 484.84C326.3 486.24 335.75 494.24 344 502.61C356.89 515.69 359.99 517.85 366 517.94C371.59 518.03 406.53 493.89 410 491C413.3 488.25 416 485.55 416 485C416 484.45 434.6 461.78 436.57 460.09C438.82 458.14 443.77 450.28 444.81 448C445.55 446.35 445.23 442.52 444.08 439.5C442.89 436.35 440.51 434.02 438.5 434.05C436.57 434.08 409.25 397.15 408.69 390C408.12 382.85 396.34 220.42 396.93 207.5C397.52 194.57 397.32 184.37 396.5 184.81C395.67 185.26 394.85 178.73 394.66 170.31C394.48 161.89 393.91 122.25 393.28 114C392.65 105.75 387.11 78.44 386 79C384.9 79.55 353.94 49.82 354 47C354.05 44.8 318.75 15.98 316 15.19C313.25 14.4 308.75 12.8 306 11.63C303.25 10.47 298.75 8.36 296 6.96C293.25 5.55 284.25 3.46 276 2.32C267.75 1.18 254.07 0.32 245.6 0.42C237.13 0.52 229.48 1.25 228.6 2.05Z" />
</svg>