<svg xmlns="http://www.w3.org/2000/svg" viewBox="0 0 256 718" width="256" height="718">
	<style>
		tspan { white-space:pre }
		.shp0 { fill: #000000 } 
	</style>
	<path id="S" fill-rule="evenodd" class="shp0" d="M250.5 1.43C251.32 1.74 252.95 6.72 254.12 12.5C256 21.81 255.77 23.79 252.1 30C248.21 36.58 245.75 591.45 243.16 594C241.48 595.65 240.09 597.45 240.07 598C240.06 598.55 233.06 606 224.52 614.55C215.98 623.11 204.5 634.58 199 640.04C193.5 645.51 187.65 649.96 186 649.93C184.35 649.9 176.02 656.65 167.5 664.94C158.97 673.22 151.32 679.96 150.5 679.91C149.67 679.86 146.3 682.47 143 685.71C139.7 688.96 133.85 693.45 130 695.71C126.15 697.97 118.73 702.34 113.52 705.41C108.3 708.48 103.58 712.57 103.02 714.5C102.4 716.63 100.04 718 97 718C93.67 718 91.67 716.67 91 714C90.37 711.49 92.42 706.63 96.5 700.94C100.07 695.96 103.67 691.91 104.5 691.94C105.32 691.97 108.76 688.17 112.14 683.5C115.51 678.82 120.46 673.87 123.14 672.5C126.65 670.69 136.53 653.72 142.07 648.5C148.97 641.99 153.43 627.65 155.05 626C157.33 623.68 153.65 496.45 153.24 486C152.68 471.69 56.5 332.95 52.67 328C48.84 323.05 40.6 313.21 34.35 306.13C28.11 299.06 18.27 288.03 12.5 281.63C6.72 275.24 1.43 267.52 0.73 264.5C0.04 261.47 0.49 257.42 1.73 255.5C2.98 253.57 4 250.2 4 248C4 245.8 5.03 241.97 6.28 239.5C7.53 237.02 17.21 226.18 27.78 215.4C38.35 204.62 48.05 193.82 49.33 191.4C50.61 188.98 56.01 183.7 61.33 179.67C66.65 175.64 80.96 162.14 93.13 149.67C105.3 137.2 116.33 124.97 117.63 122.5C118.93 120.02 122.47 116.76 125.5 115.25C128.52 113.74 134.74 107.66 139.31 101.75C143.88 95.84 154.68 83.69 163.31 74.77C171.94 65.84 188.26 50.09 199.58 39.77C210.89 29.44 220.12 19.87 220.08 18.5C220.03 17.12 223.82 12.93 228.5 9.18C233.17 5.42 239.7 2.02 243 1.61C246.3 1.19 249.67 1.11 250.5 1.43ZM100.1 166C91.11 175.35 84.04 184.35 84.4 186C84.76 187.65 94.74 204.74 101.5 211.5C106.17 216.17 110 220.9 110 222C110 223.1 113.66 227.82 118.12 232.5C122.59 237.17 128.22 244.4 130.62 248.55C133.03 252.7 136.35 256.08 138 256.06C140.61 256.03 140.76 252.53 139.21 229.51C138.23 214.93 137.4 201.2 137.36 199C137.33 196.8 137.86 190.5 138.55 185C139.23 179.5 140.63 172.75 141.67 170C142.71 167.25 143.76 159.15 144.01 152C144.26 144.85 144.36 136.07 144.23 132.5C144.09 128.6 142.95 126 141.38 126C139.95 126 133.75 131.17 127.61 137.5C121.48 143.82 109.1 156.65 100.1 166Z" />
</svg>