<svg xmlns="http://www.w3.org/2000/svg" viewBox="0 0 478 606" width="478" height="606">
	<style>
		tspan { white-space:pre }
		.shp0 { fill: #000000 } 
	</style>
	<path id="T" fill-rule="evenodd" class="shp0" d="M101 0.09C104.3 0.08 108 0.72 109.23 1.53C110.46 2.34 113.49 7.05 115.97 12C118.77 17.59 120.88 26.3 121.54 35C122.13 42.7 121.58 54.4 120.32 61C119.06 67.6 116.65 86.05 114.97 102C113.29 117.95 111.57 144.05 111.14 160C110.7 176.52 111.36 195.21 115 217.86L125 219.11C130.5 219.8 140.85 219.94 148 219.43C155.15 218.92 173.6 217.04 189 215.25C204.4 213.46 221.72 211.1 227.5 210C233.27 208.9 239.12 208.51 240.5 209.14C241.87 209.77 244.57 208.87 246.5 207.14C249.13 204.79 250 200.88 250 191.5C250 184.62 248.75 171.8 247.23 163C245.71 154.2 244.65 138 244.88 127C245.15 113.77 246.55 103.28 249 96C251.05 89.95 254.77 81.85 257.27 78C259.78 74.15 264.34 67.49 267.41 63.19C270.49 58.9 276.17 52.15 280.05 48.19C283.92 44.24 293.82 36.42 302.05 30.83C312.61 23.64 318.47 20.88 322 21.43C324.75 21.85 328.12 23.95 329.5 26.1C331.37 29.02 332.13 50.31 333 191.69L339 192.51C342.3 192.95 350.85 192.49 358 191.49C365.15 190.48 372.57 188.83 374.5 187.83C376.42 186.82 386.77 184.77 397.5 183.26C411.6 181.27 420.6 181.04 430 182.42C437.15 183.47 446.15 186.17 450 188.43C453.85 190.69 460.86 195.79 465.57 199.77C471.38 204.68 474.83 209.57 476.3 215C477.55 219.61 477.94 229.15 477.23 237.5C476.55 245.47 456.87 301.14 455.5 302.54C454.12 303.93 451.28 308.21 449.17 312.04C447.06 315.87 442.79 321.92 439.67 325.5C436.55 329.07 434 332.67 434 333.5C434 334.32 431.97 337.3 429.5 340.11C427.02 342.92 417.42 351.47 408.16 359.11C398.9 366.75 388.1 374.98 384.16 377.4C380.22 379.82 371.6 384.39 365 387.57C358.4 390.74 349.62 393.93 345.5 394.67C339.82 395.68 337.46 397.33 335.79 401.5C334.32 405.18 333.95 418.6 334.7 442C335.31 461.25 336.82 482.85 338.05 490C339.72 499.72 339.7 506.03 337.96 515C336.2 524.09 334.1 528.47 329.32 533.03C325.84 536.35 321.2 541.38 319 544.2C316.8 547.03 312.3 550.83 309 552.65C305.7 554.47 295.35 559.02 286 562.77C276.65 566.52 234.46 582.51 219 581.2C209.1 580.36 194.25 578.41 186 576.86C177.75 575.32 159.75 573.47 146 572.77C130.7 571.99 115.37 572.37 106.5 573.75C98.52 574.99 84.57 578.33 75.5 581.18C62.48 585.27 57.52 587.97 52 593.95C48.15 598.12 42.75 602.67 40 604.06C35.86 606.16 34.84 606.12 34.06 603.8C33.54 602.26 31.96 599.87 30.56 598.5C28.49 596.48 29.16 594.57 34.05 588.5C37.37 584.37 46.36 574.25 54.02 566C61.69 557.75 70.07 547.85 72.66 544C75.26 540.15 79.86 534.3 82.89 531C85.93 527.7 90.01 521.85 91.97 518C93.93 514.15 98.56 508.1 102.26 504.56C106.71 500.31 111.72 497.74 117 497.01C121.4 496.41 135.8 495.5 149 495C162.2 494.5 179.3 493.59 187 492.98C194.7 492.37 205.95 491.53 212 491.12C218.05 490.71 226.86 489.16 231.57 487.69C238.75 485.43 240.82 483.55 244.33 476C247.96 468.2 254.25 303.57 253.33 302.66C252.42 301.75 226.32 300.72 195.33 300.39C164.35 300.05 129.55 299.41 118 298.95C106.45 298.5 94.3 297.28 91 296.23C87.7 295.18 80.95 293.78 76 293.12C71.05 292.45 62.84 289.91 57.76 287.46C52.68 285 42.99 278.05 36.24 272C29.48 265.95 23.96 260.32 23.97 259.5C23.99 258.67 21.03 253.27 17.39 247.5C13.16 240.78 9.02 229.8 5.89 217C1.42 198.73 1.02 193.29 1.23 154C1.36 130.35 2.57 97.95 3.92 82C5.26 66.05 7.47 51.1 8.82 48.78C10.16 46.45 14.13 43.98 17.63 43.28C21.14 42.57 29.62 38.05 36.5 33.22C43.37 28.39 55.3 21.03 63 16.87C70.7 12.7 81.05 7.23 86 4.71C90.95 2.19 97.7 0.11 101 0.09ZM339.41 293.46C337.3 301.93 336.03 315.05 336.02 328.5C336 344.76 336.61 349.82 338.5 349.28C339.87 348.88 352.7 335.2 353.36 333C354.01 330.8 357.12 326.07 360.27 322.5C363.42 318.92 366.01 313.97 366.02 311.5C366.03 309.02 366.5 303.85 367.06 300C367.84 294.65 367.01 291.74 363.54 287.65C360.54 284.12 356.24 281.89 350.9 281.11L342.79 279.92L339.41 293.46Z" />
</svg>