<svg xmlns="http://www.w3.org/2000/svg" viewBox="0 0 604 610" width="604" height="610">
	<style>
		tspan { white-space:pre }
		.shp0 { fill: #000000 } 
	</style>
	<path id="U" fill-rule="evenodd" class="shp0" d="M184.5 0.14C189.72 0.06 196.47 1.24 199.5 2.76C202.52 4.28 206.12 7.88 207.5 10.76C208.87 13.64 213.17 49.85 212.84 68C212.52 86.15 210.88 111.35 209.2 124C207.53 136.65 206.67 147.45 207.3 148C207.92 148.55 212.61 149.45 217.72 150C222.82 150.55 256.7 150.92 293 150.82C337.14 150.71 366.26 149.71 402.83 145L405.16 137C406.43 132.6 410.3 123.82 413.74 117.5C417.18 111.17 420 105.1 420 104C420 102.9 422.32 98.62 425.17 94.5C428.01 90.37 432.19 82.95 434.47 78C436.75 73.05 439.83 67.87 441.31 66.5C442.79 65.12 444 63.1 444 62C444 60.9 448.72 54.7 454.5 48.23C460.27 41.75 466.9 34.33 469.22 31.73C471.54 29.13 476.77 24.75 480.84 22C484.91 19.25 489.31 16 490.62 14.78C491.93 13.56 496.6 10.63 501 8.26C506.62 5.25 512.87 3.9 522 3.74C529.15 3.62 537.25 4.64 540 6.02C542.75 7.41 546.57 8.86 548.5 9.27C550.42 9.67 553.8 11.8 556 14C558.2 16.2 561.35 18 563 18C564.65 18 577.83 32.47 580.07 35.5C582.31 38.52 604.53 98.8 603.4 101C602.27 103.2 602 113.15 602 117C602 120.85 601.32 124.22 600.5 124.5C599.67 124.77 589.21 154.39 584.06 162.5C579.69 169.37 572.56 178.6 568.21 183C563.85 187.4 558.65 192.51 556.65 194.35C554.64 196.19 550.3 198.73 547 200C543.7 201.26 536.05 203.22 530 204.34C523.95 205.45 517.87 207.19 516.5 208.18C515.12 209.18 512.42 209.66 510.5 209.24C508.57 208.81 504.75 210.11 502 212.12C497.91 215.11 496.98 217.52 496.88 225.39C496.81 230.67 491.94 302.55 491 324C489.95 347.93 497.67 412 498.5 412C499.32 412 500 413.35 500 415C500 416.65 555.69 466.22 556.16 467.7C556.73 469.52 580.98 471.77 582.78 475C584 477.2 585.7 479.45 586.55 480C587.41 480.55 588.64 484.6 589.28 489C590.16 495 589.63 497.75 587.14 500C585.31 501.65 583.86 503.9 583.92 505C583.97 506.1 582.21 508.12 580.01 509.5C577.8 510.87 529.93 575.88 526.05 579.4C522.17 582.91 515.85 586.35 512 587.04C508.15 587.72 499.37 588.67 492.5 589.14C484.93 589.66 480 589.21 480 588C480 586.9 478.65 586 477 586C475.35 586 465.68 575.37 464.2 572.5C463.21 570.57 462.08 568.1 461.7 567C461.31 565.9 460.32 565.22 459.5 565.5C458.67 565.77 457.44 563.97 456.75 561.5C456.06 559.02 454.31 555.65 452.86 554C451.42 552.35 447.26 547.44 443.62 543.1C439.98 538.75 432.5 530.72 427 525.25C420.95 519.24 414.34 509.71 410.27 501.15C406.58 493.37 402.3 481.15 400.77 474C399.24 466.85 397.15 452 396.13 441C394.96 428.48 395.01 395.95 396.25 354C397.34 317.15 398.74 277.1 399.36 265C399.99 252.9 400.43 238.95 400.34 234C400.26 229.05 399.65 224.55 398.99 224C398.32 223.45 384.56 224.58 368.39 226.52C351.74 228.52 317.33 230.49 289 231.07C261.5 231.63 232.25 233.02 224 234.16C215.75 235.29 208.1 236.82 207 237.55C205.9 238.28 203.42 240.25 201.48 241.94C198.68 244.37 192.66 386.9 193.91 399C195.15 411.1 196.16 434.05 196.14 450C196.13 465.95 195.61 483.95 194.99 490C194.37 496.05 192.77 506.28 191.43 512.73C190.1 519.18 187.83 525.48 186.41 526.73C184.99 527.98 183.86 530.12 183.91 531.5C183.96 532.87 179.27 539.17 173.5 545.48C167.72 551.8 156.05 563.72 147.56 571.98C139.06 580.24 120.55 599.4 120 600C119.45 600.6 116.75 602.55 114 604.32C111.25 606.1 105.85 608.2 102 609C97.86 609.85 93.16 609.54 90.5 608.22C86.24 606.12 86.06 605.17 87.21 590.5C87.87 581.97 89 574.1 89.71 573C90.42 571.9 91.61 558.4 92.36 543C93.11 527.6 94.6 506.9 95.67 497C96.74 487.1 98.5 475.85 99.57 472C100.64 468.15 102.53 456.45 103.76 446C105 435.55 106.51 416.65 107.13 404C107.75 391.35 108.57 380.55 108.95 380C109.33 379.45 109.95 345.7 111 231L103 231.64C98.35 232.01 69.2 233.97 67 232.55C64.8 231.13 61.42 229.98 59.5 229.98C57.57 229.99 48.57 226.19 39.5 221.52C30.42 216.86 21.35 211.24 19.34 209.02C17.33 206.81 12.38 198.25 1 175L1 147C1 121.07 1.37 118.28 6 109.22C9.13 103.11 17.74 93.24 29 82.86C38.9 73.74 49.7 63.98 53 61.17C56.3 58.36 64.79 53.12 71.88 49.53C78.96 45.94 86.61 41.51 88.88 39.69C91.14 37.87 97.05 34.47 102 32.13C106.95 29.8 117.3 24.32 125 19.95C132.7 15.59 141.02 11.11 143.5 10.01C145.97 8.9 149.12 7.97 150.5 7.94C151.87 7.91 157.95 6.18 164 4.08C170.05 1.99 179.27 0.22 184.5 0.14ZM82.5 109.48C82.92 119.17 83.62 121.07 87 121.69C89.2 122.09 92.35 123.65 94 125.16C95.65 126.67 100.6 128.15 105 128.45L113 129C112.23 105.75 111.58 94.5 111.07 89C110.56 83.5 108.98 75.62 107.57 71.5C106.05 67.07 103.7 64 101.84 64C100.1 64 96.71 66.02 94.3 68.5C91.79 71.09 82.21 102.83 82.5 109.48ZM491.44 105.74C491.78 116.22 492.75 119.84 496.05 123C499.41 126.21 501.7 126.72 507.62 125.58C511.68 124.8 518.37 122.77 522.5 121.08L530 118C516.82 106.79 504.1 90.6 502.99 89.08C501.29 86.75 500.21 86.8 495.99 89.4C491.4 92.24 491.04 93.54 491.44 105.74Z" />
</svg>