<svg xmlns="http://www.w3.org/2000/svg" viewBox="0 0 330 568" width="330" height="568">
	<style>
		tspan { white-space:pre }
		.shp0 { fill: #000000 } 
	</style>
	<path id="v-" fill-rule="evenodd" class="shp0" d="M93 0.51C95.2 0.41 99.08 1.83 101.62 3.67C104.16 5.5 106.64 8.57 107.12 10.5C107.6 12.42 110.18 205.95 110.11 212C110.03 218.05 110.51 223.45 111.16 224C111.8 224.55 125.54 224.92 141.67 224.82C157.8 224.71 175.05 223.61 180 222.36C184.95 221.12 203.4 220.07 221 220.04C241.07 220.01 259.71 218.8 271 216.82C280.9 215.07 295.09 213.5 302.53 213.32C315.33 213.02 316.31 213.32 320.85 219C323.49 222.3 326.45 228.15 327.43 232C328.4 235.85 328.98 253.85 328.71 272C328.44 290.15 328.16 307.47 328.11 310.5C328.05 313.52 328.05 320.27 328.12 325.5C328.18 330.72 327.72 343.55 327.1 354C326.29 367.47 326.69 374.27 328.48 377.38C330.72 381.27 330.37 382.26 325.24 386.38C322.07 388.92 317.57 392.84 315.24 395.09C312.91 397.33 306.83 403.63 301.73 409.09C296.64 414.54 256.07 444.04 252.5 444.02C247.68 444.01 245.74 442.97 245 440C244.45 437.8 243.32 436 242.5 436.01C241.67 436.01 240.28 419.14 239.4 398.51C238.52 377.88 237.39 357.4 236.89 353C236.4 348.6 234.67 336 233.05 325C231.43 314 229.18 298.02 228.05 289.5C226.92 280.97 225.2 272.42 224.23 270.5C223.17 268.41 218.96 266.42 213.73 265.56C208.93 264.77 194.65 265.02 182 266.12C169.35 267.22 104.76 287.4 104.15 291.41C103.69 294.48 103.24 302.99 103.15 310.31C103.07 317.63 102.32 323.25 101.5 322.81C100.67 322.36 99.48 330.77 98.84 341.5C98.2 352.22 97.8 367.3 97.95 375C98.1 382.7 97.65 470.6 96.64 475C95.63 479.4 95.42 485.7 96.17 489C96.91 492.3 97.63 497.02 97.76 499.5C97.93 502.67 97.11 503.7 95 503C92.83 502.28 36.53 561.09 33.52 562.48C30.5 563.87 28.02 565.67 28.02 566.5C28.01 567.32 23.05 568 17 568C7.25 568 5.87 567.49 4.9 563.5C4.29 561.02 3.17 552.25 2.4 544C1.63 535.75 1.58 522.7 2.29 515C2.99 507.3 4.18 481.2 4.92 457C5.67 432.8 6.57 391.85 6.93 366C7.28 340.15 10.4 258.6 11.11 241C11.82 223.4 11.52 192.8 10.45 173C9.38 153.2 9.14 134.75 9.91 132C10.69 129.25 10.63 113.5 9.8 97C8.56 72.68 8.82 65.86 11.15 61C12.73 57.7 16.94 52.99 20.51 50.53C24.08 48.06 30.15 43.05 34 39.39C37.85 35.72 84.35 3.17 86 2.29C87.65 1.41 90.8 0.61 93 0.51ZM226.18 80C232.33 80 253.57 111.69 255.5 113.76C257.42 115.83 260.59 119.66 262.53 122.26C264.47 124.87 266.06 129.25 266.06 132C266.06 134.75 226.5 183.58 221 187.18C215.5 190.78 208.52 194.68 205.5 195.86C201.42 197.45 198.71 197.35 195.02 195.5C192.27 194.12 190.02 192.32 190.02 191.5C190.01 190.67 161.46 142.3 163.22 139C164.97 135.7 170.14 129.11 174.7 124.35C179.27 119.59 184.35 113.66 186 111.16C187.65 108.67 191.25 103.96 194 100.71C196.75 97.46 203.35 91.47 208.68 87.4C216.03 81.78 220.23 80 226.18 80Z" />
</svg>