<svg xmlns="http://www.w3.org/2000/svg" viewBox="0 0 492 556" width="492" height="556">
	<style>
		tspan { white-space:pre }
		.shp0 { fill: #000000 } 
	</style>
	<path id="V" fill-rule="evenodd" class="shp0" d="M271.34 0C274.35 0 277.24 2.06 279.5 5.83C281.77 9.62 283.32 21.3 281.98 29C280.63 36.7 277.39 236.51 280 238.14C281.73 239.22 313.47 239.95 355 239.85C395.67 239.76 430.92 238.8 436 237.66C440.95 236.54 451.3 235.74 459 235.86C466.7 235.99 477.27 236.97 482.5 238.05C491.29 239.85 492 240.45 492 246C492 249.3 443.25 315.98 436.5 315.84C432.37 315.75 421.35 316.23 412 316.91C402.65 317.58 382.85 319.64 368 321.47C353.15 323.31 338.3 324.8 335 324.78C331.7 324.76 319.35 324.35 307.56 323.87C289.13 323.12 285.63 323.49 282.56 326.48C279.6 329.38 279.35 331.05 281.1 336.48C282.37 340.43 284.65 463.05 285.25 468C286.21 476 205.27 546.69 199.5 549.98C193.72 553.27 186.75 555.98 184 556C180.16 556.03 178.44 554.52 176.61 549.52C174.86 544.74 174.76 539.52 176.23 530C177.33 522.85 178.78 516.1 179.44 515C180.1 513.9 180.94 505.35 181.3 496C181.66 486.65 182.89 473.6 184.02 467C185.16 460.4 186.55 445.55 187.12 434C187.69 422.45 188 409.85 187.81 406C187.62 402.15 187.5 397.2 187.56 395C187.61 392.8 188.4 376.9 191 328.31L185 326.84C181.7 326.03 167.3 325.99 153 326.75C138.7 327.5 119.8 328.66 111 329.32C102.2 329.98 80.15 329.4 62 328.02C32.46 325.78 27.85 325.87 18 328.82C7.08 332.09 6.97 332.08 3.42 327.56C1.16 324.68 0.35 321.53 1.21 319C1.95 316.8 7.61 309.8 13.78 303.45C19.95 297.11 26.35 288.93 28 285.28C29.65 281.63 32.05 277.38 33.33 275.83C34.62 274.27 36.19 270.75 36.84 268C37.48 265.25 41.38 259.27 45.5 254.7C49.63 250.14 56.15 244.94 60 243.15C63.85 241.36 70.15 239.78 74 239.64C77.85 239.5 83.25 239.63 86 239.92C88.75 240.21 97.3 239.81 105 239.02C113.4 238.16 125.4 238.53 135 239.96C143.8 241.26 155.95 242.83 162 243.44C168.05 244.04 176.6 244.64 189 245L188.75 218C188.61 203.15 188.3 166.7 188.06 137C187.81 105.25 188.53 77.44 189.81 69.5C191.38 59.8 242.9 15.5 251.34 10C259.78 4.5 268.78 0 271.34 0ZM375 90.89C378.3 91.45 420.65 146.33 418.69 151C417.31 154.3 377.68 192.97 373.73 192.92C370.03 192.88 365.49 191.98 363.66 190.92C361.82 189.86 354.84 183.82 348.15 177.5C341.47 171.17 335.32 166.03 334.5 166.06C333.67 166.09 331.01 164.52 328.58 162.56C326.15 160.6 324.16 157.65 324.16 156C324.16 154.35 371.06 90.22 375 90.89Z" />
</svg>