<svg xmlns="http://www.w3.org/2000/svg" viewBox="0 0 266 562" width="266" height="562">
	<style>
		tspan { white-space:pre }
		.shp0 { fill: #000000 } 
	</style>
	<path id="w-" class="shp0" d="M218 5C214.15 7.62 172.95 38.94 168 41.5C163.05 44.05 150.9 50.38 141 55.57C124.36 64.29 122.96 65.49 122.5 71.5C122.18 75.69 123.41 79.6 125.96 82.5C128.17 85.01 130.94 92.73 132.24 100C133.75 108.46 134.03 119.29 133.02 131C132.17 140.9 131.4 162.95 131.31 180C131.22 197.05 131.56 226.3 132.07 245C132.58 263.7 132.1 294.09 131 312.52L129 346.05C118.92 350.66 113.07 353.22 109.5 354.72C105.92 356.21 100.52 358.46 97.5 359.72C94.47 360.97 90.65 362 89 362C87.35 362 85.08 359.07 83.96 355.5C82.83 351.9 81.75 325.34 81.54 296C81.33 266.85 81.37 234.9 81.62 225C81.86 215.1 81.98 202.05 81.86 196C81.75 189.95 82.27 180.5 83.01 175C83.81 169.1 83.47 162.74 82.18 159.5C80.31 154.78 78.86 154 72 154C67.6 154 7.42 190.22 5.5 190.85C3.57 191.48 1.48 194.47 0.84 197.5C0.09 201.04 0.74 204.07 2.66 206C5.24 208.58 5.52 218.2 4.69 275C3.73 340.99 3.73 341 8.37 349.99C10.91 354.94 14.82 359.89 17.04 360.99C19.26 362.1 23.99 365.02 27.54 367.5C31.09 369.97 34.67 371.98 35.5 371.97C36.32 371.95 37.9 372.86 39 373.98C40.1 375.11 48.65 378.71 58 381.99C67.68 385.38 79.74 388.08 86 388.27C92.05 388.45 99.02 388.02 101.5 387.3C104.16 386.53 106.41 383.95 107 381C107.57 378.17 110.82 374.29 114.5 372.06C118.07 369.89 122.57 368.09 124.5 368.06C127.73 368 127.92 370.46 126.94 400.5C126.36 418.37 125.5 434.8 125.04 437C124.57 439.2 125 445.95 125.98 452C126.96 458.05 128.94 467.05 130.38 472C131.82 476.95 149.79 517.7 152.71 521C155.63 524.3 165.44 534.8 174.51 544.32C189.58 560.16 191.52 561.55 197 560.49C200.3 559.86 206.75 555.66 211.32 551.17C215.9 546.68 224.45 538.72 230.32 533.48C236.2 528.24 244.71 521.04 249.25 517.48C253.79 513.92 259.08 510.1 261 509C263.4 507.62 264.5 504.51 264.51 499C264.52 494.6 263.06 486.72 261.26 481.5C259.47 476.27 255.74 467.27 252.97 461.5C250.21 455.72 247.32 441.66 246.5 441.24C245.67 440.82 244.15 436.1 243.12 430.74C242.09 425.38 241.01 419.65 240.73 418C240.45 416.35 238.73 407.8 236.92 399C234.29 386.28 233.35 365.38 232.34 297C231.64 249.7 231.09 187.6 231.12 159C231.15 130.4 231.9 93.05 232.79 76C233.68 58.95 235.73 37.88 237.34 29.17C240.06 14.42 240.02 12.98 236.68 8.17C234.71 5.33 232.17 2.34 231.05 1.53C229.92 0.72 228.1 0.1 227 0.15C225.9 0.19 221.85 2.38 218 5Z" />
</svg>