<svg xmlns="http://www.w3.org/2000/svg" viewBox="0 0 286 602" width="286" height="602">
	<style>
		tspan { white-space:pre }
		.shp0 { fill: #000000 } 
	</style>
	<path id="W" class="shp0" d="M215.1 2.32C211.85 3.43 209.38 5.16 209.6 6.17C209.82 7.17 169.92 37.72 162.5 42.28C155.07 46.83 146.75 52.12 144 54.04C139.28 57.34 138.93 58.85 137.82 81.27C137.16 94.32 137.22 118.5 137.95 135C138.86 155.63 138.52 168.12 136.88 175C135.57 180.5 133.93 194.22 133.25 205.5C132.56 216.77 131.22 227.57 130.26 229.5C129.31 231.42 125.93 233.79 122.76 234.75C119.59 235.71 102.41 236.61 84.59 236.75C54.68 236.98 51.94 237.31 49.15 241C47.49 243.2 46.08 246.35 46.01 248C45.95 249.65 44.76 252.35 43.36 254C41.97 255.65 39.62 260.6 38.15 265C36.68 269.4 30.7 282.9 24.87 295C19.03 307.1 12.37 318.8 10.07 321C7.76 323.2 5.9 326.57 5.93 328.5C5.97 330.42 5.32 331.98 4.5 331.95C3.67 331.93 2.33 334.85 1.52 338.45C0.4 343.41 0.89 345.89 3.52 348.65C6.37 351.63 8.82 352.06 17 351.01C22.5 350.3 29.7 348.88 33 347.84C36.3 346.81 44.85 345.52 52 344.99C59.15 344.45 78.36 343.79 94.68 343.51C112.86 343.2 124.86 343.78 125.64 345C126.34 346.1 127.03 366.8 127.18 391C127.32 415.2 128.05 444.45 128.8 456C129.55 467.55 131.09 487.8 132.23 501C133.97 521.28 135.02 525.93 138.99 531C141.58 534.3 150.74 544.2 159.35 553C167.96 561.81 179.26 572.61 184.47 577C189.68 581.4 196.25 594.25 199 597C203.38 601.38 204.81 601.76 210.5 600.03C214.28 598.88 221.41 593.23 227.54 586.53C233.34 580.19 285.69 519.42 285.8 517.5C285.91 515.57 284.87 513.97 283.5 513.94C282.12 513.9 277.62 510.3 273.5 505.94C269.37 501.57 265.32 497.97 264.5 497.93C263.67 497.9 260.07 494.3 256.5 489.93C252.92 485.57 248.87 482.03 247.5 482.06C246.12 482.09 242.49 477.36 239.42 471.56C235.74 464.6 233.18 455.71 231.92 445.5C230.86 436.97 238 22.85 238 19C238 13.89 236.38 10.38 232 6C228.7 2.7 224.87 0.07 223.5 0.16C222.12 0.24 218.34 1.22 215.1 2.32Z" />
</svg>