<svg xmlns="http://www.w3.org/2000/svg" viewBox="0 0 464 648" width="464" height="648">
	<style>
		tspan { white-space:pre }
		.shp0 { fill: #000000 } 
	</style>
	<path id="x-" fill-rule="evenodd" class="shp0" d="M202.17 0C204.28 0 209.37 1.98 213.5 4.41C217.62 6.84 221.45 9.33 222 9.95C222.55 10.57 225.47 12.19 228.5 13.54C231.52 14.89 306.94 86.12 310.15 87.5C313.37 88.87 317.25 92.02 318.78 94.5C320.3 96.97 322.68 104.85 324.06 112C325.97 121.93 326.06 130.2 324.43 147C323.2 159.71 322.61 198.13 323.04 238C323.44 275.95 324.32 316.9 325 329C325.69 341.33 324.34 431.22 324.57 431.48C324.81 431.74 335.35 430.54 348 428.81C360.65 427.08 378.65 424.84 388 423.83C397.35 422.81 414.9 421.18 427 420.18C444.56 418.75 450.31 418.95 455.5 421.19C460.57 423.38 462 425.21 462.02 429.5C462.03 432.52 460.91 437.47 459.52 440.48C458.13 443.5 456.1 445.96 455 445.95C453.9 445.94 449.4 449.13 445 453.04C440.6 456.96 436.55 460.11 436 460.05C435.45 459.99 429.82 464.45 423.5 469.97C416.28 476.27 409.58 480.34 405.5 480.91C401.92 481.42 388.2 482.84 375 484.07C361.8 485.31 346.95 486.58 342 486.9C337.05 487.22 330.3 487.58 327 487.7C322.12 487.87 320.09 489.51 316.15 496.45C312.07 503.64 311.23 508.03 310.89 524C310.66 534.45 309.91 549.3 309.21 557C308.44 565.62 306.56 572.92 304.33 576C302.34 578.75 295.56 584.15 289.26 588C282.97 591.85 273.95 597.25 269.22 600C264.48 602.75 257.26 607.7 253.16 611C249.07 614.3 243.08 619.02 239.86 621.5C236.64 623.97 201.62 642.06 197.5 644.17C193.37 646.27 188.2 647.55 186 647C183.8 646.45 181.91 644.42 181.79 642.5C181.68 640.57 181.39 628.2 181.15 615C180.91 601.8 181.84 585.15 183.22 578C184.6 570.85 187.15 558.25 188.89 550C190.63 541.75 192.04 532.97 192.03 530.5C192.01 528.02 192.78 524.42 193.74 522.5C194.69 520.57 196.04 515.62 198 504L161.5 503.77C141.42 503.64 119.15 503.56 112 503.58C104.85 503.61 87.3 504 73 504.44C58.7 504.89 41.15 506.39 34 507.77C26.85 509.14 18.97 509.76 16.5 509.14C14.02 508.51 11 505.97 9.77 503.5C8.55 501.02 50.6 456.25 55 451.01C59.4 445.77 65.92 440.24 69.5 438.74C74.53 436.62 89.7 436.01 136.5 436.05C169.77 436.07 197.21 435.85 197.47 435.55C197.73 435.25 199.34 430.05 201.03 424C203.16 416.44 204.41 400.34 205.06 372.5C205.79 340.93 205.45 332 203.5 332C202.12 332 196.05 336.95 190 342.99C183.95 349.03 174.27 356.23 168.5 358.99C162.72 361.74 157.32 364.03 156.5 364.06C155.67 364.09 149.6 366.89 143 370.29C135.54 374.13 124.94 377.42 115 378.98C106.2 380.36 97.2 381.06 95 380.54C92.8 380.02 86.14 377.21 80.2 374.3C74.25 371.38 65.25 365.4 60.2 361C55.14 356.6 50.64 352.1 50.19 351C49.75 349.9 42.88 342.25 34.93 334C26.98 325.75 19.81 316.75 19 314C18.19 311.25 16.41 307.65 15.05 306C13.69 304.35 10.63 298.95 8.24 294C5.58 288.49 3.27 278.41 2.27 268C0.94 254.04 1.32 248.49 4.38 237C6.43 229.3 9.08 219.4 10.26 215C11.44 210.6 13.79 204.3 15.48 201C17.18 197.7 20.26 193.2 22.33 191C24.41 188.8 28.11 184.14 30.56 180.63C33 177.13 38.82 169.26 43.5 163.13C48.17 157.01 52 151.55 52 151C52 150.45 55.37 146.33 59.5 141.83C63.62 137.34 93.4 102.05 98.93 96C104.45 89.95 114.87 79.15 122.08 72C129.29 64.85 141.14 52.25 148.41 44C155.68 35.75 165.41 26.3 170.03 23C174.65 19.7 179.93 15.65 181.77 14C183.6 12.35 188.08 8.52 191.72 5.5C195.36 2.47 200.06 0 202.17 0ZM124 119.49C114.81 123.81 107.53 129.33 99.19 138.3C92.69 145.29 86.13 152.8 84.62 155C82.78 157.69 81.54 167.87 80.84 186C80.06 206.61 80.58 216.55 83.07 228C84.86 236.25 88.28 248.31 90.66 254.8C93.05 261.29 97.7 269.19 101 272.36C104.3 275.53 110.15 280.8 114 284.08C118.23 287.68 127.32 291.94 137 294.84C145.8 297.48 156.37 300.17 160.5 300.82C164.62 301.47 171.82 300.92 176.5 299.61C181.17 298.3 188.15 295.28 192 292.91C195.85 290.53 200.35 286.96 202 284.97C204.04 282.5 205.17 275.83 205.53 264.17C205.82 254.73 206.43 238.45 206.88 228C207.33 217.55 212.76 139.41 210.89 136.5C209.3 134.02 207.97 130.87 207.93 129.5C207.89 128.12 205.86 124.64 203.43 121.76C200.99 118.87 196.75 115.35 194 113.92C191.25 112.5 182.7 110.14 175 108.67C167.3 107.2 160.1 106.07 159 106.15C157.9 106.23 152.5 107.88 147 109.83C141.5 111.78 131.15 116.12 124 119.49Z" />
</svg>