<svg xmlns="http://www.w3.org/2000/svg" viewBox="0 0 372 632" width="372" height="632">
	<style>
		tspan { white-space:pre }
		.shp0 { fill: #000000 } 
	</style>
	<path id="X" fill-rule="evenodd" class="shp0" d="M228.5 0.2C230.42 0.09 240.32 2.77 250.5 6.16C260.67 9.55 270.8 13.31 273 14.52C275.2 15.72 281.72 21.5 287.5 27.35C293.27 33.21 298.67 37.99 299.5 37.99C300.32 37.98 303.96 42.26 307.58 47.49C311.2 52.72 364.76 135.05 366.56 140C368.36 144.95 369.96 153.5 370.11 159C370.26 164.5 369.85 175.3 369.2 183C368.39 192.63 366.18 200.75 362.12 209C358.19 217.02 350.06 227.31 337.62 240.02C327.38 250.48 313.37 264.2 306.5 270.52C299.62 276.83 293.55 282 293 282C292.45 282 283.33 289.42 272.73 298.5C262.14 307.57 251.59 315.9 249.3 317C246.44 318.37 244.64 321.83 243.58 328C242.72 332.95 242.87 346 243.91 357C245.07 369.39 245.09 391.08 243.94 414C242.77 437.56 242.81 459.35 244.06 474C245.14 486.65 247.14 501.79 248.51 507.64C250.16 514.7 252.51 519.25 255.5 521.14C257.97 522.71 264.27 525.02 269.5 526.26C274.72 527.51 283.85 529.98 289.78 531.76C297.39 534.05 304.9 544 306 544C307.1 544 309.94 547.37 312.32 551.5C314.7 555.62 316.65 561.7 316.65 565C316.65 569.23 314.35 573.45 308.83 579.31C303.36 585.11 297.68 588.67 290 591.1C283.95 593.01 274.95 596.28 270 598.38C265.05 600.48 255.6 603.41 249 604.9C242.4 606.39 229.8 610.03 221 612.99C212.2 615.95 200.05 620.88 194 623.95C186.3 627.85 178.8 629.84 169 630.56C159.78 631.25 153.29 630.74 150 629.08C147.21 627.68 143.35 622.68 141.26 617.78C139.2 612.95 136.48 604.5 135.21 599C133.95 593.5 133.43 584.05 134.07 578C134.71 571.95 135.06 553.05 134.85 536C134.65 518.95 134.37 478.45 134.24 446C134.03 392.55 133.68 386.69 130.5 383.75C128.58 381.96 122.5 378.53 117 376.12C111.5 373.72 105.65 370.52 104 369.01C102.35 367.49 95.6 363.39 89 359.89C82.4 356.39 71.6 348.43 65 342.2C58.4 335.97 48.22 326.85 42.37 321.93C36.42 316.93 28.37 307.29 24.06 300C19.83 292.85 13.73 282.05 10.52 276C7.3 269.95 3.46 258.25 1.98 250C-0.23 237.65 -0.25 232.88 1.87 223C3.29 216.4 7.72 204.69 11.72 196.99C15.73 189.28 21.02 180.06 23.5 176.49C25.97 172.92 28 169.55 28 169C28 168.45 65.57 112.95 70.1 108C74.63 103.05 80.82 96.3 83.86 93C86.9 89.7 90.74 84.3 92.41 81C94.07 77.7 124.8 54.31 127 52.02C129.2 49.74 131.9 47.94 133 48.02C134.1 48.11 136.35 46.69 138 44.87C139.65 43.04 149.1 36.89 159 31.18C168.9 25.48 181.05 18.81 186 16.36C190.95 13.91 201.75 9.32 210 6.15C218.25 2.99 226.57 0.31 228.5 0.2ZM148 77.51C145.25 79.23 139.4 82.97 135 85.82C130.6 88.67 126.1 92.05 125 93.33C123.9 94.61 121.3 95.96 119.23 96.33C117.15 96.7 111.69 102.4 107.1 109C98.91 120.76 98.72 121.44 97.23 143C96.21 157.91 96.51 169.51 98.17 179C99.52 186.7 102.79 197.05 105.45 202C108.1 206.95 112.24 214.29 114.64 218.31C117.04 222.33 145.39 259.15 148.31 261.94C151.23 264.72 156.18 268.92 159.31 271.27C162.44 273.62 174.45 279.72 186 284.82C202.94 292.3 208.35 293.85 214 292.84C218.15 292.1 250.37 264.05 254.5 255.87C258.62 247.69 261.99 238.97 262 236.5C262 234.02 263.44 226.37 265.2 219.5C267.49 210.56 247.97 133.2 247.33 131C246.69 128.8 244.3 125.2 242.02 123C239.74 120.8 226.37 99.85 223.15 96C219.93 92.15 214.53 87.3 211.15 85.23C207.77 83.16 201.4 80.18 197 78.61C192.6 77.04 185.4 75.14 181 74.38C176.6 73.62 168.5 73.31 163 73.69C157.5 74.07 150.75 75.79 148 77.51Z" />
</svg>