<svg xmlns="http://www.w3.org/2000/svg" viewBox="0 0 480 692" width="480" height="692">
	<style>
		tspan { white-space:pre }
		.shp0 { fill: #000000 } 
	</style>
	<path id="Y" class="shp0" d="M267.31 1.28C266.7 1.91 146.6 14.87 129 18.37C111.4 21.87 90.25 24.8 82 24.88C73.75 24.96 12.02 90.05 9.29 106C6.55 121.95 3.22 144.45 1.88 156C-0.27 174.63 0.68 217.55 1.17 228C1.67 238.45 3.04 250.15 4.21 254C5.69 258.85 9.52 263.31 16.68 268.53C22.35 272.67 75.92 313.98 79.5 313.96C82.52 313.93 86.87 312.36 89.17 310.46C91.46 308.55 95.89 301.6 99.01 295C102.13 288.4 105.31 282.55 106.09 282C106.86 281.45 109.18 278.28 111.25 274.96C113.31 271.63 117.95 264.88 121.56 259.96C125.17 255.03 131.41 246.05 135.44 240C141.76 230.5 142.77 227.37 142.88 217C142.99 206 142.63 204.96 138.5 204.5C136.02 204.22 110.89 181.85 107 178C102.67 173.72 99.46 168.28 98.72 164C98.06 160.15 96.17 152.05 94.52 146C92.86 139.95 91.1 132.3 90.61 129C89.92 124.42 91.05 121.55 95.35 116.88C98.46 113.51 103.7 108.92 107 106.67C110.84 104.06 120.91 101.33 135 99.06C147.55 97.05 162.58 95.92 170 96.44C177.15 96.93 186.15 96.65 190 95.81C194.66 94.79 203.01 95.58 215 98.16C224.9 100.29 293.3 130.18 301 135.11C308.7 140.05 318.3 146.99 322.32 150.54C328.16 155.69 330.52 160.05 333.93 172C336.97 182.61 338.18 192.27 338.09 205C338.02 214.9 331.24 290.15 330.09 294C328.94 297.85 327.98 303.25 327.96 306C327.94 308.75 324.56 317.62 320.46 325.71C315.08 336.31 308.81 344.46 298 354.91C289.75 362.89 279.85 372.23 276 375.68C272.15 379.13 261.8 387.06 253 393.3C244.2 399.54 234.75 406.63 232 409.06C229.25 411.48 222.5 417.45 217 422.31C211.5 427.17 203.62 433.59 199.5 436.58C195.37 439.56 150.7 470.62 143 476.76C135.3 482.9 126.3 489.16 123 490.68C119.7 492.2 108.9 501.44 99 511.22C89.1 521 79 531.7 76.56 535C74.12 538.3 70.45 543.25 68.41 546C66.36 548.75 62.82 555.05 60.54 560C58.25 564.95 55.48 572.15 54.37 576C53.26 579.85 50.92 587.5 49.17 593C46.25 602.15 56.36 661.25 57.87 664C59.38 666.75 64.76 673.77 69.81 679.59C74.86 685.41 80.12 690.14 81.5 690.09C82.87 690.04 89.17 687.17 95.5 683.7C101.82 680.24 108.38 675.97 110.07 674.2C111.76 672.44 184.05 619.2 184.02 617C184 614.8 183.08 609.62 181.99 605.5C180.89 601.37 163.46 564.5 162.77 559C161.92 552.23 162.55 545.77 164.71 539C166.47 533.5 169.95 525.32 172.45 520.82C174.95 516.32 178.8 510.03 181 506.84C183.2 503.65 189.91 496.53 195.91 491.02C201.9 485.51 217.2 470.88 229.91 458.5C242.61 446.13 255.34 434.43 258.2 432.5C261.06 430.58 264.94 427.42 266.84 425.5C268.73 423.57 271.35 422 272.64 421.99C273.94 421.99 276.09 424.01 277.41 426.49C278.74 428.97 280.31 432.57 280.91 434.5C281.51 436.42 282.9 438 284 438C285.1 438 286 439.8 286 442C286 444.2 286.67 445.97 287.5 445.92C288.32 445.88 292.16 450.61 296.03 456.42C299.9 462.24 304.36 469.7 305.93 473C307.51 476.3 310.73 481.7 313.09 485C315.45 488.3 320.74 499.1 324.84 509C328.95 518.9 335.27 532.85 338.89 540C342.51 547.15 352.12 565.52 360.24 580.83C368.36 596.14 388.65 648.33 392.5 650.26C396.13 652.09 398.27 651.79 403.56 648.76C407.17 646.69 478.07 588.93 478.28 585.5C478.43 583.02 478.35 577.4 478.09 573C477.83 568.6 442.98 494.7 439.12 487C435.25 479.3 428.98 467.15 425.19 460C421.4 452.85 416.5 442.95 414.31 438C412.12 433.05 407.9 421.8 404.92 413C401.94 404.2 383.18 355.92 379.74 348.5C376.3 341.07 373.26 333.65 373 332C372.74 330.35 373.65 326.75 375.03 324C376.4 321.25 380.17 314.95 383.41 310C386.64 305.05 392.15 294.47 395.64 286.5C399.14 278.52 401.98 270.87 401.95 269.5C401.93 268.12 404.18 262.72 406.95 257.5C409.73 252.27 412 246.2 412 244C412 241.8 435.51 147.56 436.48 128.38C437.29 112.22 437.37 94.95 436.65 90C435.93 85.05 420.66 46.53 415.04 41C409.94 35.98 402.08 31.19 393.95 28.14C386.83 25.47 310.75 7.3 308 7.04C305.25 6.78 299.4 5.63 295 4.49C290.6 3.34 282.82 1.9 277.71 1.28C272.6 0.66 267.92 0.66 267.31 1.28Z" />
</svg>