<svg xmlns="http://www.w3.org/2000/svg" viewBox="0 0 466 600" width="466" height="600">
	<style>
		tspan { white-space:pre }
		.shp0 { fill: #000000 } 
	</style>
	<path id="Z" class="shp0" d="M117.6 1.83C114.63 2.65 82.3 19.89 79 21.6C75.7 23.31 68.95 29.22 64 34.71C59.05 40.21 52.3 47.25 49 50.35C45.7 53.45 42.36 56.67 41.58 57.49C40.79 58.32 34.62 65.3 27.85 73C21.09 80.7 12.14 92.85 7.97 100C3.79 107.15 0.74 114.57 1.19 116.5C1.7 118.68 3.88 120 7 120C11.05 120 13.15 117.82 18.07 108.5C21.4 102.17 27.7 93.17 32.07 88.5C39.64 80.39 40.53 80 51.5 80.04C57.82 80.06 69.75 81.35 78 82.9C86.25 84.46 97.05 87.21 102 89.01C106.95 90.82 112.8 93.95 115 95.99C117.2 98.02 200.82 157.82 205.5 160.01C210.17 162.21 215.12 163.98 216.5 163.97C217.87 163.95 219.9 164.81 221 165.89C222.1 166.96 227.05 168.27 232 168.8C236.95 169.33 269.1 168.05 279 167.75C294.8 167.27 297.49 166.65 301 162.68C303.2 160.19 305.67 158.12 306.5 158.08C307.32 158.04 308 158.9 308 160C308 161.1 303.69 166.27 298.43 171.5C293.17 176.72 280.8 188.2 270.93 197C261.07 205.8 237.81 228.3 219.25 247C200.69 265.7 181.79 285.86 177.25 291.81C172.71 297.75 165.93 306.75 162.17 311.81C158.41 316.86 154.59 321.22 153.67 321.5C152.75 321.77 152 322.9 152 324C152 325.1 145.73 334.32 138.08 344.5C130.42 354.67 121.64 366.43 118.58 370.63C115.51 374.82 108.95 383.05 104 388.9C99.05 394.75 92.75 403.38 90 408.08C87.25 412.78 82.97 419.64 80.5 423.31C77.07 428.41 76.03 432.74 76.13 441.5C76.2 447.82 77.41 458.4 78.83 465C80.93 474.84 83.16 478.9 91.2 487.53C97.46 494.26 102.62 498.05 105.5 498.03C108.39 498.01 114.49 493.38 122.5 485.12C129.37 478.04 137.48 469.26 140.52 465.62C143.56 461.98 184.85 429.81 192 426.6C203.6 421.37 205.26 419.9 207.43 412.87C208.76 408.54 210.14 392.85 210.48 378C210.98 356.71 211.84 349.84 214.56 345.5C216.45 342.47 218.9 340.45 220 341C221.1 341.55 222.45 341.1 223 340C223.58 338.83 229.2 338.39 236.5 338.93C243.37 339.44 252.15 339.18 256 338.37C259.85 337.55 268.85 337.86 276 339.06C283.15 340.26 291.47 342.32 294.5 343.62C297.52 344.93 300.9 345.55 302 345C303.1 344.45 361.82 391.57 364.49 402.58C366.4 410.51 367.97 419.7 367.96 423C367.95 426.3 366.83 434.06 365.47 440.25C363.68 448.41 348.4 467.8 344 470C339.6 472.2 287.55 484.71 276 484.98C262.57 485.3 251.75 486.67 246 488.78C241.05 490.6 214 497.02 209.03 499.5C204.07 501.97 182.75 512.52 180 513.14C177.25 513.76 172.97 515.56 170.5 517.14C168.02 518.71 164.2 524.05 162 529C159.8 533.95 158.01 541.37 158.03 545.5C158.05 549.62 159.81 558.85 161.96 566C164.82 575.58 167.84 580.88 173.42 586.14C178.6 591.02 184.49 594.14 192 595.97C198.05 597.45 209.3 598.69 217 598.73C224.7 598.77 279.7 575.9 283 575.1C286.3 574.29 320.77 551.42 331.5 540.93C342.22 530.44 351.71 521.21 352.57 520.43C353.44 519.64 359.29 512.97 365.57 505.59C371.86 498.22 381.75 482.92 387.56 471.59C393.37 460.27 399.57 445.6 401.34 439C403.11 432.4 405.38 422.05 406.38 416C407.38 409.95 408.68 394.2 409.28 381C409.87 367.8 409.38 348.67 408.18 338.5C406.98 328.32 405.18 318.42 404.17 316.5C403.16 314.57 400.91 309.62 399.17 305.5C397.43 301.37 395.97 297.32 395.92 296.5C395.88 295.67 392.73 291.62 388.92 287.5C385.11 283.37 343.85 255.85 340 255.03C336.15 254.21 332.1 252.86 331 252.02C329.9 251.19 325.85 249.97 322 249.31C318.15 248.66 310.5 247.6 305 246.96C299.5 246.33 287.35 245.58 278 245.3C268.65 245.02 259.65 244.02 258 243.09C255.66 241.76 284 212 308 188C328.9 167.1 355.19 144.63 357.86 140.5C360.53 136.38 367.8 128.05 374 122C380.21 115.95 411.48 80.29 414.86 76.98C418.24 73.66 422.93 68.71 425.29 65.98C427.65 63.24 435.6 55.15 442.96 48C450.31 40.85 457.95 31.85 459.92 28C461.9 24.15 464.07 18.07 464.76 14.5C465.52 10.51 465.03 6.81 463.5 4.91C462.12 3.21 458.97 1.86 456.5 1.91C454.02 1.96 449.97 3.03 447.5 4.29C445.02 5.55 440.07 9.15 436.5 12.29C432.92 15.43 413.79 24.07 396.5 40.98C383.57 53.62 368.5 66.35 363 69.28C357.5 72.21 346.7 76.81 339 79.49C327.16 83.61 322.99 84.15 312 82.95C304.2 82.1 298.2 80.36 297 78.61C295.9 77 240.22 51.14 229.5 45.77C218.77 40.4 176.7 13.74 173.97 12.2C171.23 10.67 161.35 7.3 152 4.73C142.65 2.16 132.3 0.12 129 0.2C125.7 0.28 120.57 1.01 117.6 1.83Z" />
</svg>