<svg xmlns="http://www.w3.org/2000/svg" viewBox="0 0 997.68 1000"><defs><style>.cls-1{fill:#3995ba;}</style></defs><g id="Layer_2" data-name="Layer 2"><g id="Layer_1-2" data-name="Layer 1"><path class="cls-1" d="M363.83,85.23h0a1.31,1.31,0,0,0,1.06-1.7L346.36,26.43a1.33,1.33,0,0,0-2.52.82l18.55,57.08A1.31,1.31,0,0,0,363.83,85.23Z"/><path class="cls-1" d="M379.08,83.12h0a1.31,1.31,0,0,0,1.09-1.66L363,21.39a1.33,1.33,0,1,0-2.55.74l17.22,60.05A1.32,1.32,0,0,0,379.08,83.12Z"/><path class="cls-1" d="M348.47,87.62h0a1.32,1.32,0,0,0,1-1.75L329.93,32a1.33,1.33,0,1,0-2.5.9L347,86.78A1.3,1.3,0,0,0,348.47,87.62Z"/><path class="cls-1" d="M394.25,81.28h0a1.3,1.3,0,0,0,1.12-1.62L379.77,17a1.32,1.32,0,0,0-1.61-1,1.34,1.34,0,0,0-1,1.61L392.83,80.3A1.31,1.31,0,0,0,394.25,81.28Z"/><path class="cls-1" d="M543.44,76.51a1.32,1.32,0,0,0,1.37-1.17l7.35-70a1.33,1.33,0,0,0-2.64-.28l-7.35,70a1.32,1.32,0,0,0,1.24,1.45Z"/><path class="cls-1" d="M439.35,77.33a1.32,1.32,0,0,0,1.22-1.49l-9.66-68.7a1.32,1.32,0,0,0-2.62.37l9.65,68.7a1.3,1.3,0,0,0,1.38,1.12Z"/><path class="cls-1" d="M454.27,76.51a1.32,1.32,0,0,0,1.24-1.45l-7.36-70a1.32,1.32,0,1,0-2.63.28l7.35,70a1.31,1.31,0,0,0,1.37,1.17Z"/><path class="cls-1" d="M333,90.31h0a1.32,1.32,0,0,0,1-1.79L313.7,38.22a1.33,1.33,0,1,0-2.46,1l20.32,50.3A1.3,1.3,0,0,0,333,90.31Z"/><path class="cls-1" d="M826.17,137.15a1.31,1.31,0,0,0,1.47-.33l5.09-5.66a1.33,1.33,0,0,0-2-1.77l-5.09,5.66a1.31,1.31,0,0,0,.48,2.09Z"/><path class="cls-1" d="M409.34,79.71h0a1.31,1.31,0,0,0,1.15-1.58l-13.82-65a1.33,1.33,0,0,0-2.6.55l13.83,65.05A1.31,1.31,0,0,0,409.34,79.71Z"/><path class="cls-1" d="M204.84,124.4h0a1.31,1.31,0,0,0,.59-2l-11.87-15.2a1.33,1.33,0,0,0-2.1,1.63L203.37,124A1.32,1.32,0,0,0,204.84,124.4Z"/><path class="cls-1" d="M221.32,118.74h0a1.31,1.31,0,0,0,.65-2l-14.52-20a1.32,1.32,0,0,0-2.14,1.56l14.51,20A1.3,1.3,0,0,0,221.32,118.74Z"/><path class="cls-1" d="M237.68,113.52h0a1.32,1.32,0,0,0,.7-2L221.73,86.8a1.33,1.33,0,1,0-2.2,1.49L236.2,113A1.32,1.32,0,0,0,237.68,113.52Z"/><path class="cls-1" d="M188.24,130.53h0a1.31,1.31,0,0,0,.54-2.07L180.06,118a1.33,1.33,0,1,0-2,1.71l8.73,10.41A1.33,1.33,0,0,0,188.24,130.53Z"/><path class="cls-1" d="M270,104.33h0a1.31,1.31,0,0,0,.8-1.93L251.23,68.48a1.33,1.33,0,1,0-2.3,1.32l19.58,33.91A1.34,1.34,0,0,0,270,104.33Z"/><path class="cls-1" d="M253.89,108.72h0a1.32,1.32,0,0,0,.76-2L236.32,77.38a1.33,1.33,0,1,0-2.25,1.41l18.35,29.37A1.31,1.31,0,0,0,253.89,108.72Z"/><path class="cls-1" d="M301.75,96.64h0a1.3,1.3,0,0,0,.89-1.85L281.94,52.26a1.33,1.33,0,0,0-2.39,1.16l20.74,42.51A1.3,1.3,0,0,0,301.75,96.64Z"/><path class="cls-1" d="M285.93,100.3h0a1.32,1.32,0,0,0,.85-1.89L266.44,60.1a1.33,1.33,0,1,0-2.34,1.25l20.36,38.29A1.31,1.31,0,0,0,285.93,100.3Z"/><path class="cls-1" d="M317.44,93.31h0a1.32,1.32,0,0,0,.94-1.82L297.69,45A1.33,1.33,0,0,0,295.27,46L316,92.56A1.31,1.31,0,0,0,317.44,93.31Z"/><path class="cls-1" d="M424.39,78.39a1.31,1.31,0,0,0,1.19-1.53l-11.83-67a1.31,1.31,0,0,0-1.53-1.07,1.33,1.33,0,0,0-1.08,1.54l11.82,67a1.33,1.33,0,0,0,1.4,1.08Z"/><path class="cls-1" d="M727.7,104.33a1.34,1.34,0,0,0,1.47-.62L748.74,69.8a1.32,1.32,0,1,0-2.29-1.32l-19.58,33.91a1.31,1.31,0,0,0,.8,1.93Z"/><path class="cls-1" d="M743.79,108.72a1.3,1.3,0,0,0,1.46-.56l18.36-29.37a1.33,1.33,0,0,0-2.25-1.41L743,106.76a1.32,1.32,0,0,0,.76,2Z"/><path class="cls-1" d="M711.75,100.3a1.29,1.29,0,0,0,1.46-.66l20.37-38.29a1.34,1.34,0,0,0-.55-1.8,1.32,1.32,0,0,0-1.79.55L710.87,98.41a1.32,1.32,0,0,0,.85,1.89Z"/><path class="cls-1" d="M695.93,96.64a1.3,1.3,0,0,0,1.46-.71l20.74-42.51a1.33,1.33,0,0,0-2.39-1.16L695,94.78a1.31,1.31,0,0,0,.9,1.85Z"/><path class="cls-1" d="M171.51,137.15h0a1.31,1.31,0,0,0,.48-2.09l-5.1-5.66a1.32,1.32,0,0,0-2,1.77l5.09,5.66A1.31,1.31,0,0,0,171.51,137.15Z"/><path class="cls-1" d="M558.36,77.33a1.3,1.3,0,0,0,1.38-1.12l9.65-68.7a1.32,1.32,0,0,0-2.62-.37l-9.66,68.7a1.32,1.32,0,0,0,1.22,1.49Z"/><path class="cls-1" d="M760,113.52a1.3,1.3,0,0,0,1.47-.52l16.67-24.71a1.33,1.33,0,1,0-2.2-1.49l-16.67,24.72a1.32,1.32,0,0,0,.7,2Z"/><path class="cls-1" d="M809.44,130.53a1.34,1.34,0,0,0,1.48-.38l8.73-10.41a1.33,1.33,0,1,0-2-1.71l-8.74,10.42a1.31,1.31,0,0,0,.54,2.07Z"/><path class="cls-1" d="M776.35,118.74a1.31,1.31,0,0,0,1.48-.48l14.51-20a1.32,1.32,0,0,0-2.14-1.56l-14.52,20a1.31,1.31,0,0,0,.65,2Z"/><path class="cls-1" d="M792.84,124.4a1.32,1.32,0,0,0,1.47-.43l11.88-15.2a1.33,1.33,0,0,0-2.1-1.63l-11.88,15.2a1.32,1.32,0,0,0,.6,2Z"/><path class="cls-1" d="M680.23,93.31a1.3,1.3,0,0,0,1.46-.75L702.41,46A1.33,1.33,0,0,0,700,45L679.27,91.49a1.31,1.31,0,0,0,.94,1.82Z"/><path class="cls-1" d="M603.43,81.28a1.31,1.31,0,0,0,1.42-1l15.64-62.71a1.34,1.34,0,0,0-1-1.61,1.32,1.32,0,0,0-1.61,1L602.28,79.66a1.3,1.3,0,0,0,1.12,1.62Z"/><path class="cls-1" d="M618.6,83.12a1.32,1.32,0,0,0,1.43-.94l17.22-60.05a1.33,1.33,0,1,0-2.55-.74L617.48,81.45a1.31,1.31,0,0,0,1.09,1.66Z"/><path class="cls-1" d="M573.32,78.4a1.33,1.33,0,0,0,1.4-1.08l11.82-67a1.33,1.33,0,0,0-1.08-1.54,1.31,1.31,0,0,0-1.53,1.07L572.1,76.86a1.31,1.31,0,0,0,1.19,1.53Z"/><path class="cls-1" d="M588.34,79.71a1.31,1.31,0,0,0,1.41-1l13.83-65.05a1.33,1.33,0,0,0-2.6-.55L587.15,78.13a1.32,1.32,0,0,0,1.16,1.58Z"/><path class="cls-1" d="M664.66,90.31a1.31,1.31,0,0,0,1.46-.8l20.32-50.3a1.33,1.33,0,1,0-2.46-1L663.66,88.53a1.3,1.3,0,0,0,1,1.78Z"/><path class="cls-1" d="M649.2,87.62a1.31,1.31,0,0,0,1.45-.84l19.59-53.84a1.32,1.32,0,0,0-.79-1.7,1.33,1.33,0,0,0-1.7.8L648.16,85.87a1.32,1.32,0,0,0,1,1.75Z"/><path class="cls-1" d="M633.85,85.23a1.32,1.32,0,0,0,1.44-.9l18.55-57.08a1.33,1.33,0,0,0-2.52-.82L632.77,83.52a1.31,1.31,0,0,0,1.06,1.7Z"/><path class="cls-1" d="M695.93,903.36h0a1.31,1.31,0,0,0-.9,1.85l20.74,42.52a1.33,1.33,0,0,0,1.2.75,1.24,1.24,0,0,0,.58-.14,1.33,1.33,0,0,0,.61-1.77l-20.74-42.51A1.3,1.3,0,0,0,695.93,903.36Z"/><path class="cls-1" d="M649.21,912.38h0a1.32,1.32,0,0,0-1,1.75L667.75,968a1.34,1.34,0,0,0,1.25.88,1.42,1.42,0,0,0,.45-.08,1.32,1.32,0,0,0,.79-1.7l-19.59-53.84A1.3,1.3,0,0,0,649.21,912.38Z"/><path class="cls-1" d="M618.6,916.88h0a1.31,1.31,0,0,0-1.09,1.66l17.22,60.06a1.31,1.31,0,0,0,1.27,1,1.57,1.57,0,0,0,.37-.05,1.34,1.34,0,0,0,.91-1.65l-17.22-60A1.32,1.32,0,0,0,618.6,916.88Z"/><path class="cls-1" d="M633.85,914.77h0a1.31,1.31,0,0,0-1.06,1.7l18.55,57.09a1.33,1.33,0,0,0,1.26.92,1.18,1.18,0,0,0,.41-.07,1.31,1.31,0,0,0,.85-1.67l-18.55-57.08A1.32,1.32,0,0,0,633.85,914.77Z"/><path class="cls-1" d="M543.41,923.49a1.32,1.32,0,0,0-1.24,1.45l7.35,70a1.33,1.33,0,0,0,1.32,1.18H551a1.33,1.33,0,0,0,1.18-1.46l-7.35-70a1.32,1.32,0,0,0-1.37-1.17Z"/><path class="cls-1" d="M573.29,921.61a1.31,1.31,0,0,0-1.19,1.53l11.83,67.05a1.32,1.32,0,0,0,1.3,1.09.9.9,0,0,0,.23,0,1.33,1.33,0,0,0,1.08-1.54l-11.82-67a1.33,1.33,0,0,0-1.4-1.08Z"/><path class="cls-1" d="M603.43,918.72h0a1.3,1.3,0,0,0-1.12,1.62l15.63,62.72a1.32,1.32,0,0,0,1.29,1,1.22,1.22,0,0,0,.32,0,1.33,1.33,0,0,0,1-1.61l-15.64-62.7A1.31,1.31,0,0,0,603.43,918.72Z"/><path class="cls-1" d="M558.33,922.67a1.32,1.32,0,0,0-1.22,1.49l9.66,68.7a1.32,1.32,0,0,0,1.31,1.14l.19,0a1.31,1.31,0,0,0,1.12-1.49l-9.65-68.69a1.31,1.31,0,0,0-1.38-1.13Z"/><path class="cls-1" d="M680.23,906.69h0a1.31,1.31,0,0,0-.94,1.82L700,955a1.34,1.34,0,0,0,1.22.79,1.24,1.24,0,0,0,.53-.12,1.33,1.33,0,0,0,.68-1.75l-20.72-46.52A1.3,1.3,0,0,0,680.23,906.69Z"/><path class="cls-1" d="M588.34,920.29h0a1.32,1.32,0,0,0-1.16,1.58l13.83,65a1.33,1.33,0,0,0,1.3,1.05l.27,0a1.33,1.33,0,0,0,1-1.57l-13.83-65A1.3,1.3,0,0,0,588.34,920.29Z"/><path class="cls-1" d="M664.66,909.69h0a1.31,1.31,0,0,0-1,1.79L684,961.78a1.33,1.33,0,0,0,1.23.83,1.47,1.47,0,0,0,.5-.09,1.33,1.33,0,0,0,.73-1.73l-20.32-50.3A1.31,1.31,0,0,0,664.66,909.69Z"/><path class="cls-1" d="M792.84,875.6h0a1.31,1.31,0,0,0-.59,2l11.87,15.2a1.33,1.33,0,0,0,2.1-1.63L794.31,876A1.32,1.32,0,0,0,792.84,875.6Z"/><path class="cls-1" d="M809.44,869.47h0a1.31,1.31,0,0,0-.54,2.07L817.62,882a1.33,1.33,0,0,0,1,.47,1.32,1.32,0,0,0,1-2.17l-8.74-10.42A1.32,1.32,0,0,0,809.44,869.47Z"/><path class="cls-1" d="M826.17,862.85h0a1.31,1.31,0,0,0-.48,2.09l5.09,5.66a1.35,1.35,0,0,0,1,.44,1.33,1.33,0,0,0,1-2.21l-5.09-5.66A1.31,1.31,0,0,0,826.17,862.85Z"/><path class="cls-1" d="M711.75,899.7h0a1.32,1.32,0,0,0-.85,1.89l20.37,38.31a1.3,1.3,0,0,0,1.17.7,1.38,1.38,0,0,0,.62-.15,1.33,1.33,0,0,0,.55-1.8l-20.37-38.29A1.3,1.3,0,0,0,711.75,899.7Z"/><path class="cls-1" d="M776.35,881.26h0a1.31,1.31,0,0,0-.65,2l14.52,20a1.32,1.32,0,1,0,2.14-1.56l-14.51-20A1.31,1.31,0,0,0,776.35,881.26Z"/><path class="cls-1" d="M727.7,895.67h0a1.31,1.31,0,0,0-.8,1.93l19.58,33.91a1.31,1.31,0,0,0,1.15.67,1.34,1.34,0,0,0,.66-.18,1.32,1.32,0,0,0,.48-1.81l-19.57-33.91A1.34,1.34,0,0,0,727.7,895.67Z"/><path class="cls-1" d="M760,886.48h0a1.32,1.32,0,0,0-.7,2l16.67,24.72a1.34,1.34,0,0,0,1.11.58,1.36,1.36,0,0,0,.74-.22,1.34,1.34,0,0,0,.35-1.85L761.47,887A1.3,1.3,0,0,0,760,886.48Z"/><path class="cls-1" d="M743.79,891.28h0a1.32,1.32,0,0,0-.76,2l18.36,29.38a1.33,1.33,0,0,0,1.83.42,1.34,1.34,0,0,0,.42-1.83l-18.35-29.37A1.31,1.31,0,0,0,743.79,891.28Z"/><path class="cls-1" d="M439.32,922.67a1.31,1.31,0,0,0-1.38,1.13l-9.65,68.69a1.31,1.31,0,0,0,1.12,1.49l.19,0a1.32,1.32,0,0,0,1.31-1.14l9.66-68.7a1.32,1.32,0,0,0-1.22-1.49Z"/><path class="cls-1" d="M270,895.67a1.34,1.34,0,0,0-1.47.62L248.93,930.2a1.33,1.33,0,0,0,1.15,2,1.31,1.31,0,0,0,1.15-.67l19.58-33.91a1.31,1.31,0,0,0-.8-1.93Z"/><path class="cls-1" d="M285.93,899.7a1.32,1.32,0,0,0-1.47.66L264.1,938.65a1.33,1.33,0,0,0,.55,1.8,1.38,1.38,0,0,0,.62.15,1.31,1.31,0,0,0,1.17-.7l20.37-38.31a1.32,1.32,0,0,0-.85-1.89Z"/><path class="cls-1" d="M253.89,891.28a1.31,1.31,0,0,0-1.47.56l-18.35,29.37a1.33,1.33,0,0,0,2.25,1.41l18.36-29.38a1.31,1.31,0,0,0-.76-2Z"/><path class="cls-1" d="M317.44,906.69a1.31,1.31,0,0,0-1.46.75L295.27,954a1.33,1.33,0,1,0,2.42,1.08l20.72-46.53a1.31,1.31,0,0,0-.94-1.82Z"/><path class="cls-1" d="M301.75,903.36a1.3,1.3,0,0,0-1.46.71l-20.74,42.51a1.32,1.32,0,0,0,.61,1.77,1.24,1.24,0,0,0,.58.14,1.34,1.34,0,0,0,1.2-.75l20.73-42.52a1.3,1.3,0,0,0-.89-1.85Z"/><path class="cls-1" d="M204.84,875.6a1.32,1.32,0,0,0-1.47.43l-11.88,15.2a1.33,1.33,0,0,0,2.1,1.63l11.87-15.2a1.31,1.31,0,0,0-.59-2Z"/><path class="cls-1" d="M237.68,886.48a1.32,1.32,0,0,0-1.48.52l-16.67,24.71a1.33,1.33,0,0,0,.36,1.85,1.36,1.36,0,0,0,.74.22,1.31,1.31,0,0,0,1.1-.58l16.68-24.72a1.32,1.32,0,0,0-.7-2Z"/><path class="cls-1" d="M188.24,869.47a1.33,1.33,0,0,0-1.48.38L178,880.27a1.32,1.32,0,0,0,2,1.7l8.74-10.42a1.31,1.31,0,0,0-.54-2.07Z"/><path class="cls-1" d="M221.32,881.26a1.3,1.3,0,0,0-1.47.48l-14.51,20a1.32,1.32,0,0,0,1.07,2.1,1.33,1.33,0,0,0,1.07-.54l14.52-20a1.31,1.31,0,0,0-.65-2Z"/><path class="cls-1" d="M348.47,912.38a1.3,1.3,0,0,0-1.44.84l-19.6,53.84a1.33,1.33,0,0,0,.8,1.7,1.42,1.42,0,0,0,.45.08,1.34,1.34,0,0,0,1.25-.88l19.59-53.83a1.32,1.32,0,0,0-1-1.75Z"/><path class="cls-1" d="M409.34,920.29a1.31,1.31,0,0,0-1.41,1l-13.83,65a1.33,1.33,0,0,0,1,1.57l.28,0a1.33,1.33,0,0,0,1.3-1.05l13.82-65a1.31,1.31,0,0,0-1.15-1.58Z"/><path class="cls-1" d="M333,909.69a1.3,1.3,0,0,0-1.46.8l-20.32,50.3a1.33,1.33,0,0,0,.73,1.73,1.43,1.43,0,0,0,.5.09,1.33,1.33,0,0,0,1.23-.83L334,911.48a1.32,1.32,0,0,0-1-1.79Z"/><path class="cls-1" d="M171.51,862.85a1.31,1.31,0,0,0-1.47.33L165,868.84a1.33,1.33,0,0,0,.1,1.87,1.32,1.32,0,0,0,1.87-.1L172,865a1.31,1.31,0,0,0-.48-2.09Z"/><path class="cls-1" d="M394.25,918.72a1.31,1.31,0,0,0-1.42,1l-15.64,62.7a1.33,1.33,0,0,0,1,1.61,1.22,1.22,0,0,0,.32,0,1.32,1.32,0,0,0,1.29-1l15.63-62.72a1.3,1.3,0,0,0-1.12-1.62Z"/><path class="cls-1" d="M424.36,921.6a1.33,1.33,0,0,0-1.4,1.08l-11.82,67a1.33,1.33,0,0,0,1.08,1.54.86.86,0,0,0,.23,0,1.32,1.32,0,0,0,1.3-1.09l11.83-67.05a1.31,1.31,0,0,0-1.19-1.53Z"/><path class="cls-1" d="M454.24,923.49a1.31,1.31,0,0,0-1.37,1.17l-7.35,70a1.33,1.33,0,0,0,1.18,1.46h.14a1.31,1.31,0,0,0,1.31-1.18l7.36-70a1.32,1.32,0,0,0-1.24-1.45Z"/><path class="cls-1" d="M379.08,916.88a1.32,1.32,0,0,0-1.43.94l-17.22,60a1.34,1.34,0,0,0,.91,1.65,1.57,1.57,0,0,0,.37.05,1.32,1.32,0,0,0,1.27-1l17.22-60.06a1.31,1.31,0,0,0-1.09-1.66Z"/><path class="cls-1" d="M363.83,914.77a1.31,1.31,0,0,0-1.44.9l-18.55,57.08a1.31,1.31,0,0,0,.85,1.67,1.18,1.18,0,0,0,.41.07,1.33,1.33,0,0,0,1.26-.92l18.55-57.09a1.31,1.31,0,0,0-1.06-1.7Z"/><path class="cls-1" d="M475.52,147.45l-10-145a1.32,1.32,0,0,0-1.41-1.23h0a1.33,1.33,0,0,0-1.23,1.42l10,145a1.31,1.31,0,0,0,1.35,1.22h0A1.31,1.31,0,0,0,475.52,147.45Z"/><path class="cls-1" d="M524.81,147.63l10-145a1.32,1.32,0,0,0-1.23-1.42h0a1.32,1.32,0,0,0-1.41,1.23l-10,145a1.31,1.31,0,0,0,1.27,1.4h0A1.32,1.32,0,0,0,524.81,147.63Z"/><path class="cls-1" d="M522.16,852.55l10,145a1.32,1.32,0,0,0,1.41,1.23h0a1.32,1.32,0,0,0,1.23-1.42l-10-145a1.32,1.32,0,0,0-1.35-1.22h0A1.31,1.31,0,0,0,522.16,852.55Z"/><path class="cls-1" d="M472.87,852.37l-10,145a1.33,1.33,0,0,0,1.23,1.42h0a1.32,1.32,0,0,0,1.41-1.23l10-145a1.31,1.31,0,0,0-1.27-1.4h0A1.31,1.31,0,0,0,472.87,852.37Z"/><path class="cls-1" d="M510.17,213.55,517.48,1.67A1.33,1.33,0,0,0,516.2.3h0a1.33,1.33,0,0,0-1.37,1.28l-7.31,211.88a1.31,1.31,0,0,0,1.3,1.36h0A1.31,1.31,0,0,0,510.17,213.55Z"/><path class="cls-1" d="M490.16,213.46,482.85,1.58A1.33,1.33,0,0,0,481.48.3h0a1.32,1.32,0,0,0-1.28,1.37l7.31,211.88a1.3,1.3,0,0,0,1.32,1.27h0A1.31,1.31,0,0,0,490.16,213.46Z"/><path class="cls-1" d="M507.52,786.54l7.31,211.88a1.33,1.33,0,0,0,1.37,1.28h0a1.33,1.33,0,0,0,1.28-1.37l-7.31-211.88a1.31,1.31,0,0,0-1.33-1.27h0A1.31,1.31,0,0,0,507.52,786.54Z"/><path class="cls-1" d="M487.51,786.45,480.2,998.33a1.32,1.32,0,0,0,1.28,1.37h0a1.33,1.33,0,0,0,1.37-1.28l7.31-211.88a1.31,1.31,0,0,0-1.3-1.36h0A1.3,1.3,0,0,0,487.51,786.45Z"/><path class="cls-1" d="M500.17,332.86V1.33A1.33,1.33,0,0,0,498.84,0h0a1.33,1.33,0,0,0-1.33,1.33V332.86a1.31,1.31,0,0,0,1.31,1.31h0A1.31,1.31,0,0,0,500.17,332.86Z"/><path class="cls-1" d="M497.51,667.15V998.67a1.33,1.33,0,0,0,1.33,1.33h0a1.33,1.33,0,0,0,1.33-1.33V667.15a1.31,1.31,0,0,0-1.31-1.31h0A1.31,1.31,0,0,0,497.51,667.15Z"/><path class="cls-1" d="M1.58,484l51.68,1.81a1.31,1.31,0,0,0,1.35-1.28v0a1.29,1.29,0,0,0-1.26-1.34L1.68,481.31a1.33,1.33,0,1,0-.1,2.65Z"/><path class="cls-1" d="M943.07,484.49a1.31,1.31,0,0,0,1.35,1.28L996.1,484a1.33,1.33,0,1,0-.1-2.65l-51.67,1.81a1.31,1.31,0,0,0-1.27,1.34Z"/><path class="cls-1" d="M996.1,516l-51.68-1.81a1.31,1.31,0,0,0-1.35,1.28v0a1.31,1.31,0,0,0,1.27,1.34L996,518.69h0a1.33,1.33,0,0,0,.05-2.65Z"/><path class="cls-1" d="M54.61,515.51a1.31,1.31,0,0,0-1.35-1.28L1.58,516a1.33,1.33,0,0,0,0,2.65h.05l51.67-1.81a1.29,1.29,0,0,0,1.26-1.34Z"/><path class="cls-1" d="M996.35,498.67H752.22a1.31,1.31,0,0,0-1.31,1.31v0a1.31,1.31,0,0,0,1.31,1.31H996.35a1.33,1.33,0,0,0,0-2.66Z"/><path class="cls-1" d="M246.77,500a1.31,1.31,0,0,0-1.31-1.31H1.33a1.33,1.33,0,1,0,0,2.66H245.46a1.31,1.31,0,0,0,1.31-1.31Z"/></g></g></svg>